<svg width="16" height="16" viewBox="0 0 16 16" fill="none" xmlns="http://www.w3.org/2000/svg">
<path d="M8 -0.00012207C3.58897 -0.00012207 0 3.58885 0 7.99988C0 12.4109 3.58897 15.9999 8 15.9999C12.411 15.9999 16 12.4109 16 7.99988C16 3.58885 12.411 -0.00012207 8 -0.00012207ZM12.4712 5.89461L7.3584 10.9673C7.05764 11.268 6.57644 11.2881 6.25564 10.9873L3.54887 8.52118C3.22807 8.22043 3.20802 7.71918 3.48872 7.39837C3.78947 7.07757 4.29073 7.05752 4.61153 7.35827L6.75689 9.32319L11.3283 4.75176C11.6491 4.43096 12.1504 4.43096 12.4712 4.75176C12.792 5.07256 12.792 5.57381 12.4712 5.89461Z" fill="#16A34A"/>
</svg>
