<svg width="20" height="20" viewBox="0 0 20 20" fill="none" xmlns="http://www.w3.org/2000/svg">
<g clipPath="url(#clip0_515_8363)">
<path d="M12.3511 3.35938L1.3468 14.3645C1.29144 14.42 1.25146 14.4901 1.23242 14.5654L0.0127046 19.4611C-0.0237807 19.6085 0.0195258 19.7652 0.127078 19.8728C0.208456 19.9542 0.31934 19.9992 0.432762 19.9992C0.467502 19.9992 0.503035 19.9949 0.537617 19.9862L5.43331 18.7663C5.50961 18.7473 5.57893 18.7075 5.6343 18.6521L16.6395 7.64783L12.3511 3.35938Z" fill="#B18C07"/>
<path d="M19.3669 1.85821L18.142 0.633258C17.3233 -0.185441 15.8964 -0.184648 15.0786 0.633258L13.5781 2.13376L17.8664 6.42205L19.3669 4.92155C19.7759 4.51276 20.0011 3.96865 20.0011 3.38996C20.0011 2.81127 19.7759 2.26716 19.3669 1.85821Z" fill="#B18C07"/>
</g>
<defs>
<clipPath id="clip0_515_8363">
<rect width="20" height="20" fill="white"/>
</clipPath>
</defs>
</svg>
