<svg width="108" height="108" viewBox="0 0 108 108" fill="none" xmlns="http://www.w3.org/2000/svg">
<rect y="-0.00012207" width="108" height="108" rx="54" fill="#EF4444" fill-opacity="0.05"/>
<circle cx="54" cy="53.9999" r="43" fill="#EF4444" fill-opacity="0.1"/>
<rect x="22" y="21.9999" width="64" height="64" rx="32" fill="#EF4444"/>
<path opacity="0.4" d="M51 49.1999V58.7899C51 61.9999 53 63.9999 56.2 63.9999H58.79C61.99 63.9999 63.99 61.9999 63.99 58.7999V49.1999C64 45.9999 62 43.9999 58.8 43.9999H56.2C53 43.9999 51 45.9999 51 49.1999Z" fill="white"/>
<path d="M54.43 50.1199L57.78 53.4699C58.07 53.7599 58.07 54.2399 57.78 54.5299L54.43 57.8799C54.14 58.1699 53.66 58.1699 53.37 57.8799C53.08 57.5899 53.08 57.1099 53.37 56.8199L55.44 54.7499H44.75C44.34 54.7499 44 54.4099 44 53.9999C44 53.5899 44.34 53.2499 44.75 53.2499H55.44L53.37 51.1799C53.22 51.0299 53.15 50.8399 53.15 50.6499C53.15 50.4599 53.22 50.2699 53.37 50.1199C53.66 49.8199 54.13 49.8199 54.43 50.1199Z" fill="white"/>
</svg>
