<svg width="20" height="20" viewBox="0 0 20 20" fill="none" xmlns="http://www.w3.org/2000/svg">
<path d="M17.7513 10.1917H14.8513C14.0346 10.1917 13.3096 10.6417 12.943 11.375L12.243 12.7583C12.0763 13.0917 11.743 13.3 11.3763 13.3H8.64297C8.38464 13.3 8.01797 13.2417 7.7763 12.7583L7.0763 11.3833C6.70964 10.6583 5.9763 10.2 5.16797 10.2H2.2513C1.9263 10.2 1.66797 10.4583 1.66797 10.7833V13.5C1.66797 16.525 3.48464 18.3333 6.51797 18.3333H13.5013C16.3596 18.3333 18.118 16.7667 18.3346 13.9833V10.775C18.3346 10.4583 18.0763 10.1917 17.7513 10.1917Z" fill="#B18C07"/>
<path d="M10.625 1.66663C10.625 1.32496 10.3417 1.04163 10 1.04163C9.65833 1.04163 9.375 1.32496 9.375 1.66663V3.33329H10.625V1.66663Z" fill="#B18C07"/>
<path d="M18.3346 8.17504V9.04171C18.1513 8.97504 17.9513 8.94171 17.7513 8.94171H14.8513C13.5596 8.94171 12.4013 9.65837 11.8263 10.8084L11.2013 12.0417H8.81797L8.19297 10.8167C7.61797 9.65837 6.45964 8.94171 5.16797 8.94171H2.2513C2.0513 8.94171 1.8513 8.97504 1.66797 9.04171V8.17504C1.66797 5.14171 3.4763 3.33337 6.50964 3.33337H9.3763V5.99171L8.7763 5.39171C8.53464 5.15004 8.13464 5.15004 7.89297 5.39171C7.6513 5.63337 7.6513 6.03337 7.89297 6.27504L9.55964 7.94171C9.56797 7.95004 9.5763 7.95004 9.5763 7.95837C9.63464 8.00837 9.69297 8.05004 9.75964 8.07504C9.84297 8.10837 9.91797 8.12504 10.0013 8.12504C10.0846 8.12504 10.1596 8.10837 10.2346 8.07504C10.3096 8.05004 10.3846 8.00004 10.443 7.94171L12.1096 6.27504C12.3513 6.03337 12.3513 5.63337 12.1096 5.39171C11.868 5.15004 11.468 5.15004 11.2263 5.39171L10.6263 5.99171V3.33337H13.493C16.5263 3.33337 18.3346 5.14171 18.3346 8.17504Z" fill="#B18C07"/>
</svg>
