<svg width="24" height="25" viewBox="0 0 24 25" fill="none" xmlns="http://www.w3.org/2000/svg">
<path d="M12.0196 3.24023C8.7096 3.24023 6.0196 5.93023 6.0196 9.24023V12.1302C6.0196 12.7402 5.7596 13.6702 5.4496 14.1902L4.2996 16.1002C3.5896 17.2802 4.0796 18.5902 5.3796 19.0302C9.6896 20.4702 14.3396 20.4702 18.6496 19.0302C19.8596 18.6302 20.3896 17.2002 19.7296 16.1002L18.5796 14.1902C18.2796 13.6702 18.0196 12.7402 18.0196 12.1302V9.24023C18.0196 5.94023 15.3196 3.24023 12.0196 3.24023Z" stroke="#171717" strokeWidth="1.5" stroke-miterlimit="10" strokeLinecap="round"/>
<path d="M13.8699 3.53051C13.5599 3.44051 13.2399 3.37051 12.9099 3.33051C11.9499 3.21051 11.0299 3.28051 10.1699 3.53051C10.4599 2.79051 11.1799 2.27051 12.0199 2.27051C12.8599 2.27051 13.5799 2.79051 13.8699 3.53051Z" stroke="#171717" strokeWidth="1.5" stroke-miterlimit="10" strokeLinecap="round" strokeLinejoin="round"/>
<path d="M15.0195 19.3896C15.0195 21.0396 13.6695 22.3896 12.0195 22.3896C11.1995 22.3896 10.4395 22.0496 9.89953 21.5096C9.35953 20.9696 9.01953 20.2096 9.01953 19.3896" stroke="#171717" strokeWidth="1.5" stroke-miterlimit="10"/>
</svg>
