<svg width="16" height="17" viewBox="0 0 16 17" fill="none" xmlns="http://www.w3.org/2000/svg">
<path d="M12.2681 16.246C11.4185 16.1888 10.2208 15.8957 9.05155 15.4773C4.9293 14.002 0.907008 10.0711 0.0521524 4.57281C-0.099852 3.59394 0.0601579 2.69965 0.801868 1.97165C1.05043 1.72822 1.27158 1.45737 1.51444 1.20823C2.42873 0.267077 3.76473 0.243073 4.71159 1.14708C5.01159 1.43279 5.31673 1.71451 5.6093 2.00937C6.00994 2.40445 6.2419 2.9394 6.2565 3.50187C6.2711 4.06436 6.06719 4.61061 5.68759 5.02595C5.45902 5.27966 5.21901 5.5208 4.97788 5.76138C4.71445 6.02423 4.38702 6.17509 4.03559 6.2848C3.60187 6.42077 3.5213 6.60256 3.71845 7.01682C4.96416 9.6259 6.91404 11.5046 9.5682 12.6528C9.92301 12.806 10.087 12.7369 10.2299 12.3848C10.543 11.6129 11.1174 11.0499 11.7773 10.5951C12.5241 10.0808 13.5939 10.1951 14.3014 10.8031C14.6891 11.1364 15.0598 11.4892 15.4117 11.8602C15.7903 12.2653 16.0005 12.7992 16 13.3537C15.9995 13.9081 15.7881 14.4416 15.4087 14.8459C15.2985 14.966 15.1848 15.0832 15.0791 15.2066C14.4424 15.9465 13.6351 16.2928 12.2681 16.246Z" fill="white"/>
</svg>
