<svg width="15" height="16" viewBox="0 0 15 16" fill="none" xmlns="http://www.w3.org/2000/svg">
<path d="M7.33334 0.368164C5.88294 0.368164 4.46512 0.79826 3.25916 1.60405C2.0532 2.40985 1.11327 3.55516 0.558216 4.89515C0.00317729 6.23514 -0.142047 7.70963 0.140911 9.13216C0.423866 10.5547 1.12231 11.8614 2.14789 12.887C3.17348 13.9126 4.48015 14.611 5.90268 14.894C7.32521 15.1769 8.7997 15.0317 10.1397 14.4767C11.4797 13.9216 12.625 12.9817 13.4308 11.7757C14.2366 10.5698 14.6667 9.15189 14.6667 7.7015C14.6644 5.75728 13.891 3.89335 12.5163 2.51858C11.1415 1.14381 9.27756 0.370458 7.33334 0.368164ZM9.8047 10.1729C9.6797 10.2979 9.5101 10.3681 9.33334 10.3681C9.15656 10.3681 8.98703 10.2979 8.86201 10.1729L6.86201 8.17283C6.73697 8.04784 6.66671 7.87829 6.66667 7.7015V3.7015C6.66667 3.52469 6.73691 3.35512 6.86194 3.23009C6.98696 3.10507 7.15653 3.03483 7.33334 3.03483C7.51015 3.03483 7.67972 3.10507 7.80474 3.23009C7.92977 3.35512 8.00001 3.52469 8.00001 3.7015V7.4255L9.8047 9.23016C9.9297 9.35518 9.9999 9.52472 9.9999 9.7015C9.9999 9.87826 9.9297 10.0479 9.8047 10.1729Z" fill="white"/>
</svg>
