<svg width="30" height="30" viewBox="0 0 30 30" fill="none" xmlns="http://www.w3.org/2000/svg">
<g clipPath="url(#clip0_5418_6232)">
<path d="M16.0465 15.3066L22.9295 8.4243C23.3568 7.99704 23.3568 7.30432 22.9295 6.87709C22.5023 6.44982 21.8095 6.44982 21.3823 6.87709L14.5 13.7601L7.61766 6.87709C7.1904 6.44982 6.49768 6.44982 6.07045 6.87709C5.64322 7.30435 5.64318 7.99708 6.07045 8.4243L12.9535 15.3066L6.07045 22.189C5.64318 22.6162 5.64318 23.3089 6.07045 23.7362C6.49771 24.1634 7.19044 24.1634 7.61766 23.7362L14.5 16.8531L21.3823 23.7362C21.8095 24.1634 22.5023 24.1634 22.9295 23.7362C23.3568 23.3089 23.3568 22.6162 22.9295 22.189L16.0465 15.3066Z" fill="#6B7280"/>
</g>
<defs>
<clipPath id="clip0_5418_6232">
<rect width="17.5" height="17.5" fill="white" transform="translate(5.75 6.55664)"/>
</clipPath>
</defs>
</svg>
