<svg width="40" height="40" viewBox="0 0 40 40" fill="none" xmlns="http://www.w3.org/2000/svg">
<path d="M29.3463 9.88241L21.9229 27.7891H20.0246L27.8729 8.77741H27.9863C25.9841 7.36074 23.7835 6.52963 21.3846 6.28408C19.0235 6.05741 16.7663 6.40686 14.6129 7.33241C12.3652 8.27686 10.5046 9.72186 9.03128 11.6674C7.55794 13.613 6.66072 15.7852 6.33961 18.1841C6.03739 20.5263 6.31128 22.793 7.16128 24.9841C8.04905 27.2507 9.43739 29.1538 11.3263 30.6932C13.2152 32.2327 15.3591 33.2007 17.7579 33.5974C20.0813 33.9752 22.3574 33.7769 24.5863 33.0024C26.8718 32.1902 28.8127 30.8632 30.4088 29.0216C32.0049 27.1799 33.0391 25.0691 33.5113 22.6891C33.9646 20.3657 33.8418 18.0802 33.1429 15.8324C32.4063 13.528 31.1407 11.5446 29.3463 9.88241ZM17.9846 17.7024C17.7579 18.0802 17.6446 18.4863 17.6446 18.9207V24.8707H15.3496V14.5291H17.5596V15.8324H17.6163C18.0129 15.3791 18.4852 15.0296 19.0329 14.7841C19.6941 14.5007 20.3835 14.3685 21.1013 14.3874C21.4224 14.3685 21.7529 14.3969 22.0929 14.4724C22.3196 14.5102 22.5368 14.5857 22.7446 14.6991L21.8096 16.8807C21.3374 16.6352 20.8368 16.5219 20.3079 16.5407C19.8168 16.5407 19.3541 16.6446 18.9196 16.8524C18.5229 17.0413 18.2113 17.3246 17.9846 17.7024Z" fill="url(#paint0_linear_5026_32527)"/>
<defs>
<linearGradient id="paint0_linear_5026_32527" x1="3.50665" y1="35.6627" x2="31.9083" y2="6.22533" gradientUnits="userSpaceOnUse">
<stop stop-color="#FFF2D0"/>
<stop offset="1" stop-color="#8E6B0F"/>
</linearGradient>
</defs>
</svg>
