<svg width="25" height="24" viewBox="0 0 25 24" fill="none" xmlns="http://www.w3.org/2000/svg">
<path fill-rule="evenodd" clip-rule="evenodd" d="M6.46191 3.81734C6.46191 3.1529 7.00056 2.61426 7.665 2.61426H16.3272C16.9916 2.61426 17.5303 3.1529 17.5303 3.81734V16.8106C17.5303 17.4751 16.9916 18.0137 16.3272 18.0137H7.665C7.00056 18.0137 6.46191 17.4751 6.46191 16.8106V3.81734ZM12.6826 7.37394C12.4665 6.7089 11.5257 6.7089 11.3096 7.37394L11.0237 8.25375C10.9271 8.55118 10.6499 8.75255 10.3372 8.75255H9.41209C8.71281 8.75255 8.42207 9.64735 8.98778 10.0584L9.7362 10.6021C9.98921 10.786 10.0951 11.1118 9.99845 11.4092L9.71257 12.289C9.49647 12.9541 10.2577 13.5071 10.8234 13.0961L11.5718 12.5523C11.8248 12.3685 12.1674 12.3685 12.4204 12.5523L13.1688 13.0961C13.7345 13.5071 14.4957 12.9541 14.2796 12.289L13.9937 11.4092C13.8971 11.1118 14.003 10.786 14.256 10.6021L15.0044 10.0584C15.5701 9.64735 15.2794 8.75255 14.5801 8.75255H13.655C13.3423 8.75255 13.0651 8.55118 12.9685 8.25375L12.6826 7.37394Z" fill="#9CA3AF"/>
<path d="M14.8765 18.9763L13.2852 19.6267L17.4404 21.325C18.0554 21.5763 18.7578 21.2815 19.0092 20.6665L23.9249 8.63895C24.1764 8.02389 23.8814 7.3215 23.2664 7.07013L18.4928 5.11914V16.8108C18.4928 18.0068 17.5233 18.9763 16.3272 18.9763H14.8765Z" fill="#9CA3AF"/>
<path d="M5.50255 5.13184L0.762886 7.06897C0.147822 7.32034 -0.146988 8.02272 0.104391 8.63778L5.02009 20.6653C5.27146 21.2804 5.97384 21.5752 6.58891 21.3238L12.3355 18.9751H7.66809C6.47209 18.9751 5.50255 18.0056 5.50255 16.8096V5.13184Z" fill="#9CA3AF"/>
</svg>
