<svg width="25" height="24" viewBox="0 0 25 24" fill="none" xmlns="http://www.w3.org/2000/svg">
<path d="M12.709 7C14.3658 7 15.709 5.65685 15.709 4C15.709 2.34315 14.3658 1 12.709 1C11.0521 1 9.70898 2.34315 9.70898 4C9.70898 5.65685 11.0521 7 12.709 7Z" fill="#9CA3AF"/>
<path d="M7.22949 12.0044C8.15419 12.0028 9.31104 12.0013 10.709 12.0005V11C10.709 9.89545 11.6044 9 12.709 9C13.8136 9 14.709 9.89545 14.709 11V12.0005C16.107 12.0013 17.2639 12.0028 18.1886 12.0044C18.02 10.9984 17.7996 10.166 17.6086 9.55575C17.3518 8.73465 16.6931 8.11735 15.8307 7.97395C15.1282 7.8571 14.1039 7.75 12.7092 7.75C11.3145 7.75 10.2901 7.8571 9.58754 7.97395C8.72504 8.11735 8.06624 8.7347 7.80934 9.5559C7.61844 10.1661 7.39809 10.9985 7.22949 12.0044Z" fill="#9CA3AF"/>
<path d="M13.459 11C13.459 10.5858 13.1232 10.25 12.709 10.25C12.2948 10.25 11.959 10.5858 11.959 11V13.2503C7.77508 13.2535 5.39851 13.2827 4.64945 13.2936C4.25478 13.2994 3.7508 13.5186 3.58404 14.0686C3.51504 14.2961 3.45898 14.6038 3.45898 15C3.45898 15.3962 3.51504 15.7039 3.58404 15.9314C3.7508 16.4814 4.25479 16.7006 4.64945 16.7064C4.73279 16.7076 4.83628 16.709 4.96017 16.7106C5.24434 19.0665 5.50042 20.8849 5.62944 21.7701C5.73043 22.4629 6.29888 22.9934 7.00159 23.0399C8.07959 23.1114 10.4602 23.25 12.709 23.25C14.9577 23.25 17.3384 23.1114 18.4164 23.0399C19.1191 22.9934 19.6875 22.4629 19.7885 21.7701C19.9175 20.8849 20.1736 19.0665 20.4578 16.7106C20.5817 16.709 20.6852 16.7076 20.7685 16.7064C21.1632 16.7006 21.6672 16.4814 21.8339 15.9314C21.9029 15.7039 21.959 15.3962 21.959 15C21.959 14.6038 21.9029 14.2961 21.8339 14.0686C21.6672 13.5186 21.1632 13.2994 20.7685 13.2936C20.0194 13.2827 17.6429 13.2535 13.459 13.2503V11Z" fill="#64748B"/>
</svg>
