<svg width="21" height="20" viewBox="0 0 21 20" fill="none" xmlns="http://www.w3.org/2000/svg">
<path d="M19.5693 6.36985L12.6392 0.829849C11.5693 -0.0301508 9.83925 -0.0301508 8.77925 0.819849L1.84925 6.36985C1.06925 6.98985 0.569249 8.29985 0.739249 9.27985L2.06925 17.2398C2.30925 18.6598 3.66925 19.8098 5.10925 19.8098H16.3092C17.7393 19.8098 19.1092 18.6498 19.3492 17.2398L20.6792 9.27985C20.8392 8.29985 20.3393 6.98985 19.5693 6.36985ZM10.7092 13.4998C9.32925 13.4998 8.20925 12.3798 8.20925 10.9998C8.20925 9.61985 9.32925 8.49985 10.7092 8.49985C12.0892 8.49985 13.2092 9.61985 13.2092 10.9998C13.2092 12.3798 12.0892 13.4998 10.7092 13.4998Z" fill="#94A3B8"/>
</svg>
