<?xml version="1.0" encoding="UTF-8"?>
<svg version="1.1" xmlns="http://www.w3.org/2000/svg" width="21" height="20">
<path d="M0 0 C3.40547398 1.71443965 5.86262821 3.83993639 8 7 C8.5130088 11.49964348 8.0395279 15.9209442 6 20 C3.37438891 20.08074203 0.75124324 20.1403623 -1.875 20.1875 C-2.99455078 20.22520508 -2.99455078 20.22520508 -4.13671875 20.26367188 C-6.3046875 20.29296875 -6.3046875 20.29296875 -10 20 C-12.59289004 16.11066494 -13.3536309 12.67121751 -13 8 C-10.75 5.125 -10.75 5.125 -8 3 C-7.505 2.401875 -7.01 1.80375 -6.5 1.1875 C-4.28680307 -0.56461424 -2.76860398 -0.25829542 0 0 Z M-4 9 C-4 10.32 -4 11.64 -4 13 C-2.68 12.67 -1.36 12.34 0 12 C-0.33 11.01 -0.66 10.02 -1 9 C-1.99 9 -2.98 9 -4 9 Z " fill="#94A2B8" transform="translate(13,0)"/>
</svg>
