<svg width="17" height="17" viewBox="0 0 17 17" fill="none" xmlns="http://www.w3.org/2000/svg">
<path d="M4.86719 7.16626V15.1663" stroke="#64748B" strokeLinecap="round" strokeLinejoin="round"/>
<path d="M10.1999 4.41931L9.5332 7.16597H13.4199C13.6269 7.16597 13.831 7.21417 14.0162 7.30674C14.2013 7.39931 14.3623 7.53371 14.4865 7.69931C14.6107 7.8649 14.6947 8.05714 14.7317 8.26079C14.7687 8.46445 14.7578 8.67393 14.6999 8.87264L13.1465 14.206C13.0658 14.4829 12.8973 14.7262 12.6665 14.8993C12.4357 15.0724 12.155 15.166 11.8665 15.166H2.86654C2.51291 15.166 2.17378 15.0255 1.92373 14.7754C1.67368 14.5254 1.5332 14.1863 1.5332 13.8326V8.49931C1.5332 8.14569 1.67368 7.80655 1.92373 7.5565C2.17378 7.30645 2.51291 7.16597 2.86654 7.16597H4.70654C4.95459 7.16584 5.19769 7.09652 5.40851 6.96579C5.61932 6.83506 5.78949 6.64812 5.89987 6.42597L8.19987 1.83264C8.51425 1.83653 8.8237 1.91142 9.10507 2.05171C9.38645 2.19199 9.63249 2.39405 9.82481 2.64278C10.0171 2.89151 10.1507 3.18048 10.2157 3.48811C10.2806 3.79574 10.2752 4.11406 10.1999 4.41931Z" stroke="#64748B" strokeLinecap="round" strokeLinejoin="round"/>
</svg>
