<svg width="37" height="36" viewBox="0 0 37 36" fill="none" xmlns="http://www.w3.org/2000/svg">
<rect x="0.666504" width="36" height="36" rx="18" fill="#3F3F3F"/>
<g clipPath="url(#clip0_10091_16390)">
<path d="M10.2957 16.4698C10.0941 16.6712 9.93413 16.9104 9.82499 17.1737C9.71584 17.437 9.65967 17.7192 9.65967 18.0043C9.65967 18.2893 9.71584 18.5715 9.82499 18.8348C9.93413 19.0981 10.0941 19.3373 10.2957 19.5388L17.1267 26.3698C17.3282 26.5714 17.5674 26.7314 17.8307 26.8405C18.094 26.9497 18.3762 27.0058 18.6612 27.0058C18.9463 27.0058 19.2285 26.9497 19.4918 26.8405C19.7551 26.7314 19.9943 26.5714 20.1957 26.3698L27.0267 19.5388C27.2284 19.3373 27.3884 19.0981 27.4975 18.8348C27.6066 18.5715 27.6628 18.2893 27.6628 18.0043C27.6628 17.7192 27.6066 17.437 27.4975 17.1737C27.3884 16.9104 27.2284 16.6712 27.0267 16.4698L20.1957 9.63876C19.9943 9.43711 19.7551 9.27715 19.4918 9.168C19.2285 9.05886 18.9463 9.00269 18.6612 9.00269C18.3762 9.00269 18.094 9.05886 17.8307 9.168C17.5674 9.27715 17.3282 9.43711 17.1267 9.63876L10.2957 16.4698Z" stroke="#878787" strokeWidth="2.4" strokeLinecap="round" strokeLinejoin="round"/>
<path d="M16.1479 15.4802H16.1569" stroke="#878787" strokeWidth="2.4" strokeLinecap="round" strokeLinejoin="round"/>
<path d="M20.9175 15.7498L16.4175 20.2498" stroke="#878787" strokeWidth="2.4" strokeLinecap="round" strokeLinejoin="round"/>
<path d="M21.0972 20.5201H21.1062" stroke="#878787" strokeWidth="2.4" strokeLinecap="round" strokeLinejoin="round"/>
</g>
<defs>
<clipPath id="clip0_10091_16390">
<rect width="21.6" height="21.6" fill="white" transform="translate(7.8667 7.19995)"/>
</clipPath>
</defs>
</svg>
