<svg width="15" height="21" viewBox="0 0 15 21" fill="none" xmlns="http://www.w3.org/2000/svg">
<path d="M7.49997 0.368164C3.36446 0.368164 0 3.61746 0 7.61141C0 12.5679 6.71174 19.8444 6.99749 20.1518C7.26591 20.4405 7.73452 20.44 8.00244 20.1518C8.2882 19.8444 15 12.5679 15 7.61141C14.9999 3.61746 11.6355 0.368164 7.49997 0.368164ZM7.49997 11.2557C5.41929 11.2557 3.72658 9.62079 3.72658 7.61141C3.72658 5.60191 5.41933 3.96715 7.49997 3.96715C9.5806 3.96715 11.2733 5.60195 11.2733 7.61141C11.2733 9.62091 9.5806 11.2557 7.49997 11.2557Z" fill="white"/>
</svg>
