<svg width="16" height="12" viewBox="0 0 16 12" fill="none" xmlns="http://www.w3.org/2000/svg">
<path fillRule="evenodd" clipRule="evenodd" d="M1.9647 1.00835L6.2872 5.33273C7.22995 6.27366 8.77101 6.27448 9.71454 5.33273L14.0371 1.00835C14.0806 0.964824 14.0742 0.893134 14.0237 0.857914C13.5829 0.550454 13.0465 0.368164 12.4687 0.368164H3.53314C2.95529 0.368164 2.41889 0.550484 1.97801 0.857914C1.92751 0.893134 1.92117 0.964824 1.9647 1.00835ZM0.80957 3.0917C0.80957 2.63732 0.922226 2.20801 1.12067 1.83066C1.1517 1.77163 1.23036 1.7597 1.27751 1.80685L5.54529 6.07463C6.89676 7.42807 9.1042 7.42885 10.4565 6.07463L14.7243 1.80685C14.7714 1.7597 14.8501 1.77163 14.8811 1.83066C15.0795 2.20801 15.1922 2.63735 15.1922 3.0917V8.77727C15.1922 10.2802 13.9697 11.5008 12.4687 11.5008H3.53314C2.03214 11.5008 0.80957 10.2802 0.80957 8.77727V3.0917Z" fill="white"/>
</svg>
