<svg width="29" height="30" viewBox="0 0 29 30" fill="none" xmlns="http://www.w3.org/2000/svg">
<path d="M25.0198 19.7259C24.9279 19.6151 24.8376 19.5043 24.7489 19.3974C23.5302 17.9233 22.7929 17.0336 22.7929 12.8605C22.7929 10.6999 22.276 8.92721 21.2572 7.59767C20.506 6.61547 19.4906 5.87037 18.1522 5.31971C18.135 5.31013 18.1196 5.29756 18.1068 5.2826C17.6254 3.67052 16.308 2.59082 14.8222 2.59082C13.3365 2.59082 12.0197 3.67052 11.5383 5.28093C11.5254 5.29535 11.5102 5.30752 11.4934 5.31694C8.37006 6.60272 6.85216 9.06959 6.85216 12.8588C6.85216 17.0336 6.11592 17.9233 4.89607 19.3957C4.80743 19.5026 4.71713 19.6112 4.62517 19.7242C4.38763 20.0107 4.23712 20.3592 4.19147 20.7286C4.14582 21.0979 4.20693 21.4726 4.36757 21.8083C4.70938 22.5285 5.43786 22.9755 6.26938 22.9755H23.3812C24.2088 22.9755 24.9323 22.529 25.2752 21.8122C25.4366 21.4764 25.4983 21.1014 25.453 20.7316C25.4077 20.3619 25.2574 20.0128 25.0198 19.7259Z" fill="white"/>
<path d="M14.8258 27.4091C15.6263 27.4084 16.4117 27.1911 17.0988 26.7802C17.7858 26.3693 18.3488 25.7802 18.728 25.0752C18.7459 25.0414 18.7547 25.0036 18.7536 24.9654C18.7526 24.9272 18.7416 24.8899 18.7219 24.8572C18.7022 24.8244 18.6743 24.7974 18.641 24.7786C18.6077 24.7598 18.5701 24.75 18.5319 24.75H11.1208C11.0825 24.7499 11.0449 24.7596 11.0115 24.7784C10.9782 24.7971 10.9502 24.8242 10.9304 24.8569C10.9106 24.8897 10.8996 24.927 10.8985 24.9652C10.8974 25.0035 10.9063 25.0414 10.9241 25.0752C11.3034 25.7801 11.8663 26.3692 12.5532 26.7801C13.2401 27.191 14.0254 27.4083 14.8258 27.4091Z" fill="white"/>
</svg>
