<svg width="25" height="24" viewBox="0 0 25 24" fill="none" xmlns="http://www.w3.org/2000/svg">
<path opacity="0.4" d="M18.239 7.77C18.169 7.76 18.099 7.76 18.029 7.77C16.479 7.72 15.249 6.45 15.249 4.89C15.249 3.3 16.539 2 18.139 2C19.729 2 21.029 3.29 21.029 4.89C21.019 6.45 19.789 7.72 18.239 7.77Z" fill="#9CA3AF"/>
<path opacity="0.4" d="M21.4986 14.7004C20.3786 15.4504 18.8086 15.7304 17.3586 15.5404C17.7386 14.7204 17.9386 13.8104 17.9486 12.8504C17.9486 11.8504 17.7286 10.9004 17.3086 10.0704C18.7886 9.8704 20.3586 10.1504 21.4886 10.9004C23.0686 11.9404 23.0686 13.6504 21.4986 14.7004Z" fill="#64748B"/>
<path opacity="0.4" d="M7.14937 7.77C7.21937 7.76 7.28938 7.76 7.35938 7.77C8.90938 7.72 10.1394 6.45 10.1394 4.89C10.1394 3.3 8.84937 2 7.24937 2C5.65937 2 4.35938 3.29 4.35938 4.89C4.36937 6.45 5.59937 7.72 7.14937 7.77Z" fill="#64748B"/>
<path opacity="0.4" d="M7.2591 12.8496C7.2591 13.8196 7.4691 14.7396 7.8491 15.5696C6.4391 15.7196 4.9691 15.4196 3.8891 14.7096C2.3091 13.6596 2.3091 11.9496 3.8891 10.8996C4.9591 10.1796 6.4691 9.88962 7.8891 10.0496C7.4791 10.8896 7.2591 11.8396 7.2591 12.8496Z" fill="#64748B"/>
<path d="M12.8288 15.87C12.7488 15.86 12.6588 15.86 12.5688 15.87C10.7288 15.81 9.25879 14.3 9.25879 12.44C9.25879 10.54 10.7888 9 12.6988 9C14.5988 9 16.1388 10.54 16.1388 12.44C16.1388 14.3 14.6788 15.81 12.8288 15.87Z" fill="#64748B"/>
<path d="M9.57879 17.9396C8.06879 18.9496 8.06879 20.6096 9.57879 21.6096C11.2988 22.7596 14.1188 22.7596 15.8388 21.6096C17.3488 20.5996 17.3488 18.9396 15.8388 17.9396C14.1288 16.7896 11.3088 16.7896 9.57879 17.9396Z" fill="#64748B"/>
</svg>
