<svg width="23" height="40" viewBox="0 0 23 40" fill="none" xmlns="http://www.w3.org/2000/svg">
<path d="M9.90023 38.4478C9.9881 38.9869 10.4538 39.3828 11 39.3828C11.5462 39.3828 12.0119 38.9869 12.0998 38.4478L16.0348 14.3047C16.5407 11.2008 14.1449 8.38281 11 8.38281C7.85513 8.38281 5.45929 11.2008 5.96519 14.3047L9.90023 38.4478Z" fill="#1F2937"/>
<path d="M5.99121 2.54199C10.8742 -0.398084 17.2183 1.17064 20.1631 6.05176C21.1594 7.70604 21.6372 9.51991 21.6465 11.3184L21.6426 11.6777C21.543 15.0702 19.7735 18.3418 16.6572 20.2168L16.6553 20.2178C11.9288 23.0746 5.82611 21.6911 2.77148 17.1631L2.48535 16.7148L2.22266 16.2529C-0.357903 11.4425 1.2638 5.40122 5.99219 2.54297L5.99121 2.54199Z" fill="white" stroke="#1F2937" strokeWidth="2"/>
</svg>
