<svg width="28" height="28" viewBox="0 0 28 28" fill="none" xmlns="http://www.w3.org/2000/svg">
<path d="M23.3482 3.88241L15.9249 21.7891H14.0266L21.8749 2.77741H21.9882C19.986 1.36075 17.7855 0.529634 15.3866 0.284078C13.0255 0.0574118 10.7682 0.406856 8.6149 1.33241C6.36712 2.27686 4.50656 3.72186 3.03323 5.66741C1.5599 7.61297 0.662674 9.78519 0.341563 12.1841C0.0393411 14.5263 0.31323 16.793 1.16323 18.9841C2.05101 21.2507 3.43934 23.1538 5.32823 24.6932C7.21712 26.2327 9.36101 27.2007 11.7599 27.5974C14.0832 27.9752 16.3593 27.7769 18.5882 27.0024C20.8738 26.1902 22.8146 24.8632 24.4107 23.0216C26.0068 21.1799 27.041 19.0691 27.5132 16.6891C27.9666 14.3657 27.8438 12.0802 27.1449 9.83241C26.4082 7.52797 25.1427 5.54463 23.3482 3.88241ZM11.9866 11.7024C11.7599 12.0802 11.6466 12.4863 11.6466 12.9207V18.8707H9.35156V8.52908H11.5616V9.83241H11.6182C12.0149 9.37908 12.4871 9.02963 13.0349 8.78408C13.696 8.50074 14.3855 8.36852 15.1032 8.38741C15.4243 8.36852 15.7549 8.39686 16.0949 8.47241C16.3216 8.51019 16.5388 8.58574 16.7466 8.69908L15.8116 10.8807C15.3393 10.6352 14.8388 10.5219 14.3099 10.5407C13.8188 10.5407 13.356 10.6446 12.9216 10.8524C12.5249 11.0413 12.2132 11.3246 11.9866 11.7024Z" fill="url(#paint0_linear_9289_14258)"/>
<defs>
<linearGradient id="paint0_linear_9289_14258" x1="-2.4914" y1="29.6627" x2="25.9102" y2="0.225327" gradientUnits="userSpaceOnUse">
<stop stop-color="#FFF2D0"/>
<stop offset="1" stop-color="#8E6B0F"/>
</linearGradient>
</defs>
</svg>
