<svg width="17" height="17" viewBox="0 0 17 17" fill="none" xmlns="http://www.w3.org/2000/svg">
<path d="M10.491 14.9566C10.5163 15.0197 10.5604 15.0736 10.6172 15.111C10.674 15.1483 10.7409 15.1674 10.8089 15.1657C10.8769 15.164 10.9427 15.1415 10.9975 15.1012C11.0524 15.061 11.0936 15.0049 11.1157 14.9406L15.449 2.27393C15.4703 2.21486 15.4744 2.15093 15.4607 2.08963C15.4471 2.02833 15.4162 1.97219 15.3718 1.92778C15.3274 1.88337 15.2713 1.85253 15.21 1.83886C15.1487 1.82519 15.0847 1.82926 15.0257 1.8506L2.35899 6.18393C2.29466 6.20599 2.23861 6.24721 2.19837 6.30205C2.15814 6.35688 2.13564 6.42271 2.1339 6.4907C2.13216 6.5587 2.15126 6.62559 2.18863 6.68242C2.22601 6.73924 2.27987 6.78327 2.34299 6.8086L7.62966 8.9286C7.79678 8.99551 7.94863 9.09557 8.07604 9.22275C8.20345 9.34993 8.30378 9.50159 8.37099 9.6686L10.491 14.9566Z" stroke="#64748B" strokeLinecap="round" strokeLinejoin="round"/>
<path d="M15.3695 1.93079L8.07617 9.22345" stroke="#64748B" strokeLinecap="round" strokeLinejoin="round"/>
</svg>
