<svg width="15" height="15" viewBox="0 0 15 15" fill="none" xmlns="http://www.w3.org/2000/svg">
<path d="M9.49099 13.9566C9.51632 14.0197 9.56035 14.0736 9.61718 14.111C9.674 14.1483 9.7409 14.1674 9.80889 14.1657C9.87688 14.164 9.94271 14.1415 9.99755 14.1012C10.0524 14.061 10.0936 14.0049 10.1157 13.9406L14.449 1.27393C14.4703 1.21486 14.4744 1.15093 14.4607 1.08963C14.4471 1.02833 14.4162 0.972193 14.3718 0.927783C14.3274 0.883372 14.2713 0.852528 14.21 0.838859C14.1487 0.82519 14.0847 0.829262 14.0257 0.850598L1.35899 5.18393C1.29466 5.20599 1.23861 5.24721 1.19837 5.30205C1.15814 5.35688 1.13564 5.42271 1.1339 5.4907C1.13216 5.5587 1.15126 5.62559 1.18863 5.68242C1.22601 5.73924 1.27987 5.78327 1.34299 5.8086L6.62966 7.9286C6.79678 7.99551 6.94863 8.09557 7.07604 8.22275C7.20345 8.34993 7.30378 8.50159 7.37099 8.6686L9.49099 13.9566Z" stroke="#64748B" strokeLinecap="round" strokeLinejoin="round"/>
</svg>
