<svg width="25" height="24" viewBox="0 0 25 24" fill="none" xmlns="http://www.w3.org/2000/svg">
<path d="M21.679 16.08C21.439 18.75 19.509 20.5 16.709 20.5H7.70898C4.94898 20.5 2.70898 18.26 2.70898 15.5V8.5C2.70898 5.78 4.34898 3.88 6.89898 3.56C7.15898 3.52 7.42898 3.5 7.70898 3.5H16.709C16.969 3.5 17.219 3.51 17.459 3.55C19.849 3.83 21.469 5.5 21.679 7.92C21.709 8.21 21.469 8.45 21.179 8.45H19.629C18.669 8.45 17.779 8.82 17.139 9.48C16.379 10.22 15.999 11.26 16.089 12.3C16.249 14.12 17.849 15.55 19.749 15.55H21.179C21.469 15.55 21.709 15.79 21.679 16.08Z" fill="#9CA3AF"/>
<path d="M22.7092 10.9702V13.0302C22.7092 13.5802 22.2692 14.0302 21.7092 14.0502H19.7492C18.6692 14.0502 17.6792 13.2602 17.5892 12.1802C17.5292 11.5502 17.7692 10.9602 18.1892 10.5502C18.5592 10.1702 19.0692 9.9502 19.6292 9.9502H21.7092C22.2692 9.9702 22.7092 10.4202 22.7092 10.9702Z" fill="#9CA3AF"/>
</svg>
