<svg width="24" height="25" viewBox="0 0 24 25" fill="none" xmlns="http://www.w3.org/2000/svg">
<rect y="0.912109" width="24" height="24" rx="12" fill="#E4C575"/>
<g clipPath="url(#clip0_13533_17133)">
<g clipPath="url(#clip1_13533_17133)">
<g clipPath="url(#clip2_13533_17133)">
<path fill-rule="evenodd" clip-rule="evenodd" d="M11.9939 7.99219C12.1157 7.99219 12.2326 8.04059 12.3188 8.12676C12.4049 8.21293 12.4533 8.32979 12.4533 8.45165V12.5868H16.5885C16.7103 12.5868 16.8272 12.6352 16.9134 12.7214C16.9995 12.8075 17.0479 12.9244 17.0479 13.0462C17.0479 13.1681 16.9995 13.285 16.9134 13.3711C16.8272 13.4573 16.7103 13.5057 16.5885 13.5057H12.4533V17.6408C12.4533 17.7627 12.4049 17.8796 12.3188 17.9657C12.2326 18.0519 12.1157 18.1003 11.9939 18.1003C11.872 18.1003 11.7552 18.0519 11.669 17.9657C11.5828 17.8796 11.5344 17.7627 11.5344 17.6408V13.5057H7.39928C7.27742 13.5057 7.16056 13.4573 7.07439 13.3711C6.98823 13.285 6.93982 13.1681 6.93982 13.0462C6.93982 12.9244 6.98823 12.8075 7.07439 12.7214C7.16056 12.6352 7.27742 12.5868 7.39928 12.5868H11.5344V8.45165C11.5344 8.39131 11.5463 8.33156 11.5694 8.27582C11.5925 8.22008 11.6263 8.16942 11.669 8.12676C11.7117 8.0841 11.7623 8.05025 11.818 8.02716C11.8738 8.00407 11.9335 7.99219 11.9939 7.99219Z" fill="black"/>
</g>
</g>
</g>
<defs>
<clipPath id="clip0_13533_17133">
<rect width="11.027" height="11.027" fill="white" transform="translate(6.48651 7.39844)"/>
</clipPath>
<clipPath id="clip1_13533_17133">
<rect width="11.027" height="11.027" fill="white" transform="translate(6.48474 7.39844)"/>
</clipPath>
<clipPath id="clip2_13533_17133">
<rect width="11.027" height="10.4144" fill="white" transform="translate(6.48297 7.70508)"/>
</clipPath>
</defs>
</svg>
