<svg width="1160" height="500" viewBox="0 0 1160 500" fill="none" xmlns="http://www.w3.org/2000/svg">
<g style="mix-blend-mode:exclusion" opacity="0.5">
<path d="M46.5028 0H0V46.5497M46.5028 0V46.5497M46.5028 0H93.004M0 46.5497H46.5028M0 46.5497L0.00156563 93.1009M46.5028 46.5497L46.5012 93.1009M46.5028 46.5497H93.0024M93.004 0L93.0024 46.5497M93.004 0H139.504M46.5012 93.1009H0.00156563M46.5012 93.1009V139.651M46.5012 93.1009H93.0024M93.0024 46.5497V93.1009M93.0024 46.5497H139.502M0.00156563 93.1009V139.651M46.5012 139.651H0.00156563M46.5012 139.651V186.2M46.5012 139.651H93.0024M93.0024 93.1009V139.651M93.0024 93.1009H139.502M0.00156563 139.651V186.2M46.5012 186.2H0.00156563M46.5012 186.2V232.75M46.5012 186.2H93.0024M93.0024 139.651V186.2M93.0024 139.651H139.502M0.00156563 186.2V232.75M46.5012 232.75H0.00156563M46.5012 232.75V279.3M46.5012 232.75H93.0024M93.0024 186.2V232.75M93.0024 186.2H139.502M0.00156563 232.75V279.3M46.5012 279.3H0.00156563M46.5012 279.3V325.851M46.5012 279.3H93.0024M93.0024 232.75V279.3M93.0024 232.75H139.502M0.00156563 279.3V325.851M46.5012 325.851H0.00156563M46.5012 325.851V372.401M46.5012 325.851H93.0024M93.0024 279.3V325.851M93.0024 279.3H139.502M0.00156563 325.851V372.401M46.5012 372.401H0.00156563M46.5012 372.401V418.95M46.5012 372.401H93.0024M93.0024 325.851V372.401M93.0024 325.851H139.502M0.00156563 372.401V418.95M46.5012 418.95H0.00156563M46.5012 418.95V465.5M46.5012 418.95H93.0024M93.0024 372.401V418.95M93.0024 372.401H139.502M0.00156563 418.95V465.5M46.5012 465.5H0.00156563M46.5012 465.5V512.051M46.5012 465.5H93.0024M93.0024 418.95V465.5M93.0024 418.95H139.502M0.00156563 465.5V512.051M46.5012 512.051H0.00156563M46.5012 512.051V558.601M46.5012 512.051H93.0024M93.0024 465.5V512.051M93.0024 465.5H139.502M0.00156563 512.051V558.601M46.5012 558.601H0.00156563M46.5012 558.601V605.151M46.5012 558.601H93.0024M93.0024 512.051V558.601M93.0024 512.051H139.502M0.00156563 558.601V605.151M46.5012 605.151H0.00156563M46.5012 605.151V651.7M46.5012 605.151H93.0024M93.0024 558.601V605.151M93.0024 558.601H139.502M0.00156563 605.151V651.7M46.5012 651.7H0.00156563M46.5012 651.7V698.25M46.5012 651.7H93.0024M93.0024 605.151V651.7M93.0024 605.151H139.502M0.00156563 651.7V698.25M46.5012 698.25H0.00156563M46.5012 698.25V744.801M46.5012 698.25H93.0024M93.0024 651.7V698.25M93.0024 651.7H139.502M0.00156563 698.25V744.801M46.5012 744.801H0.00156563M46.5012 744.801V791.351M46.5012 744.801H93.0024M93.0024 698.25V744.801M93.0024 698.25H139.502M0.00156563 744.801V791.351M46.5012 791.351H0.00156563M46.5012 791.351V837.901M46.5012 791.351H93.0024M93.0024 744.801V791.351M93.0024 744.801H139.502M0.00156563 791.351V837.901M46.5012 837.901H0.00156563M46.5012 837.901V884.45M46.5012 837.901H93.0024M93.0024 791.351V837.901M93.0024 791.351H139.502M0.00156563 837.901V884.45M46.5012 884.45H0.00156563M46.5012 884.45V931M46.5012 884.45H93.0024M93.0024 837.901V884.45M93.0024 837.901H139.502M0.00156563 884.45V931H46.5012M46.5012 931H93.004M93.0024 884.45L93.004 931M93.0024 884.45H139.502M93.004 931H139.502M139.504 0L139.502 46.5497M139.504 0H186.002M139.502 46.5497V93.1009M139.502 46.5497H186.002M139.502 93.1009V139.651M139.502 93.1009H186.002M139.502 139.651V186.2M139.502 139.651H186.002M139.502 186.2V232.75M139.502 186.2H186.002M139.502 232.75V279.3M139.502 232.75H186.002M139.502 279.3V325.851M139.502 279.3H186.002M139.502 325.851V372.401M139.502 325.851H186.002M139.502 372.401V418.95M139.502 372.401H186.002M139.502 418.95V465.5M139.502 418.95H186.002M139.502 465.5V512.051M139.502 465.5H186.002M139.502 512.051V558.601M139.502 512.051H186.002M139.502 558.601V605.151M139.502 558.601H186.002M139.502 605.151V651.7M139.502 605.151H186.002M139.502 651.7V698.25M139.502 651.7H186.002M139.502 698.25V744.801M139.502 698.25H186.002M139.502 744.801V791.351M139.502 744.801H186.002M139.502 791.351V837.901M139.502 791.351H186.002M139.502 837.901V884.45M139.502 837.901H186.002M139.502 884.45V931M139.502 884.45H186.002M139.502 931H186.002M186.002 0V46.5497M186.002 0H232.501M186.002 46.5497V93.1009M186.002 46.5497H232.501M186.002 93.1009V139.651M186.002 93.1009H232.501M186.002 139.651V186.2M186.002 139.651H232.501M186.002 186.2V232.75M186.002 186.2H232.501M186.002 232.75V279.3M186.002 232.75H232.501M186.002 279.3V325.851M186.002 279.3H232.501M186.002 325.851V372.401M186.002 325.851H232.501M186.002 372.401V418.95M186.002 372.401H232.501M186.002 418.95V465.5M186.002 418.95H232.501M186.002 465.5V512.051M186.002 465.5H232.501M186.002 512.051V558.601M186.002 512.051H232.501M186.002 558.601V605.151M186.002 558.601H232.501M186.002 605.151V651.7M186.002 605.151H232.501M186.002 651.7V698.25M186.002 651.7H232.501M186.002 698.25V744.801M186.002 698.25H232.501M186.002 744.801V791.351M186.002 744.801H232.501M186.002 791.351V837.901M186.002 791.351H232.501M186.002 837.901V884.45M186.002 837.901H232.501M186.002 884.45V931M186.002 884.45H232.501M186.002 931H232.501M232.501 0V46.5497M232.501 0H279.001M232.501 46.5497V93.1009M232.501 46.5497H279.001M232.501 93.1009V139.651M232.501 93.1009H279.001M232.501 139.651V186.2M232.501 139.651H279.001M232.501 186.2V232.75M232.501 186.2H279.001M232.501 232.75V279.3M232.501 232.75H279.001M232.501 279.3V325.851M232.501 279.3H279.001M232.501 325.851V372.401M232.501 325.851H279.001M232.501 372.401V418.95M232.501 372.401H279.001M232.501 418.95V465.5M232.501 418.95H279.001M232.501 465.5V512.051M232.501 465.5H279.001M232.501 512.051V558.601M232.501 512.051H279.001M232.501 558.601V605.151M232.501 558.601H279.001M232.501 605.151V651.7M232.501 605.151H279.001M232.501 651.7V698.25M232.501 651.7H279.001M232.501 698.25V744.801M232.501 698.25H279.001M232.501 744.801V791.351M232.501 744.801H279.001M232.501 791.351V837.901M232.501 791.351H279.001M232.501 837.901V884.45M232.501 837.901H279.001M232.501 884.45V931M232.501 884.45H279.001M232.501 931H279.001M279.001 0V46.5497M279.001 0H325.502M279.001 46.5497V93.1009M279.001 46.5497H325.502M279.001 93.1009V139.651M279.001 93.1009H325.502M279.001 139.651V186.2M279.001 139.651H325.502M279.001 186.2V232.75M279.001 186.2H325.502M279.001 232.75V279.3M279.001 232.75H325.502M279.001 279.3V325.851M279.001 279.3H325.502M279.001 325.851V372.401M279.001 325.851H325.502M279.001 372.401V418.95M279.001 372.401H325.502M279.001 418.95V465.5M279.001 418.95H325.502M279.001 465.5V512.051M279.001 465.5H325.502M279.001 512.051V558.601M279.001 512.051H325.502M279.001 558.601V605.151M279.001 558.601H325.502M279.001 605.151V651.7M279.001 605.151H325.502M279.001 651.7V698.25M279.001 651.7H325.502M279.001 698.25V744.801M279.001 698.25H325.502M279.001 744.801V791.351M279.001 744.801H325.502M279.001 791.351V837.901M279.001 791.351H325.502M279.001 837.901V884.45M279.001 837.901H325.502M279.001 884.45V931M279.001 884.45H325.502M279.001 931H325.502M325.502 0V46.5497M325.502 0H372.002M325.502 46.5497V93.1009M325.502 46.5497H372.002M325.502 93.1009V139.651M325.502 93.1009H372.002M325.502 139.651V186.2M325.502 139.651H372.002M325.502 186.2V232.75M325.502 186.2H372.002M325.502 232.75V279.3M325.502 232.75H372.002M325.502 279.3V325.851M325.502 279.3H372.002M325.502 325.851V372.401M325.502 325.851H372.002M325.502 372.401V418.95M325.502 372.401H372.002M325.502 418.95V465.5M325.502 418.95H372.002M325.502 465.5V512.051M325.502 465.5H372.002M325.502 512.051V558.601M325.502 512.051H372.002M325.502 558.601V605.151M325.502 558.601H372.002M325.502 605.151V651.7M325.502 605.151H372.002M325.502 651.7V698.25M325.502 651.7H372.002M325.502 698.25V744.801M325.502 698.25H372.002M325.502 744.801V791.351M325.502 744.801H372.002M325.502 791.351V837.901M325.502 791.351H372.002M325.502 837.901V884.45M325.502 837.901H372.002M325.502 884.45V931M325.502 884.45H372.002M325.502 931H372.002M372.002 0V46.5497M372.002 0H418.501M372.002 46.5497V93.1009M372.002 46.5497H418.501M372.002 93.1009V139.651M372.002 93.1009H418.501M372.002 139.651V186.2M372.002 139.651H418.501M372.002 186.2V232.75M372.002 186.2H418.501M372.002 232.75V279.3M372.002 232.75H418.501M372.002 279.3V325.851M372.002 279.3H418.501M372.002 325.851V372.401M372.002 325.851H418.501M372.002 372.401V418.95M372.002 372.401H418.501M372.002 418.95V465.5M372.002 418.95H418.501M372.002 465.5V512.051M372.002 465.5H418.501M372.002 512.051V558.601M372.002 512.051H418.501M372.002 558.601V605.151M372.002 558.601H418.501M372.002 605.151V651.7M372.002 605.151H418.501M372.002 651.7V698.25M372.002 651.7H418.501M372.002 698.25V744.801M372.002 698.25H418.501M372.002 744.801V791.351M372.002 744.801H418.501M372.002 791.351V837.901M372.002 791.351H418.501M372.002 837.901V884.45M372.002 837.901H418.501M372.002 884.45V931M372.002 884.45H418.501M372.002 931H418.501M418.501 0V46.5497M418.501 0H465.001M418.501 46.5497V93.1009M418.501 46.5497H465.001M418.501 93.1009V139.651M418.501 93.1009H465.001M418.501 139.651V186.2M418.501 139.651H465.001M418.501 186.2V232.75M418.501 186.2H465.001M418.501 232.75V279.3M418.501 232.75H465.001M418.501 279.3V325.851M418.501 279.3H465.001M418.501 325.851V372.401M418.501 325.851H465.001M418.501 372.401V418.95M418.501 372.401H465.001M418.501 418.95V465.5M418.501 418.95H465.001M418.501 465.5V512.051M418.501 465.5H465.001M418.501 512.051V558.601M418.501 512.051H465.001M418.501 558.601V605.151M418.501 558.601H465.001M418.501 605.151V651.7M418.501 605.151H465.001M418.501 651.7V698.25M418.501 651.7H465.001M418.501 698.25V744.801M418.501 698.25H465.001M418.501 744.801V791.351M418.501 744.801H465.001M418.501 791.351V837.901M418.501 791.351H465.001M418.501 837.901V884.45M418.501 837.901H465.001M418.501 884.45V931M418.501 884.45H465.001M418.501 931H465.001M465.001 0V46.5497M465.001 0H511.501M465.001 46.5497V93.1009M465.001 46.5497H511.501M465.001 93.1009V139.651M465.001 93.1009H511.501M465.001 139.651V186.2M465.001 139.651H511.501M465.001 186.2V232.75M465.001 186.2H511.501M465.001 232.75V279.3M465.001 232.75H511.501M465.001 279.3V325.851M465.001 279.3H511.501M465.001 325.851V372.401M465.001 325.851H511.501M465.001 372.401V418.95M465.001 372.401H511.501M465.001 418.95V465.5M465.001 418.95H511.501M465.001 465.5V512.051M465.001 465.5H511.501M465.001 512.051V558.601M465.001 512.051H511.501M465.001 558.601V605.151M465.001 558.601H511.501M465.001 605.151V651.7M465.001 605.151H511.501M465.001 651.7V698.25M465.001 651.7H511.501M465.001 698.25V744.801M465.001 698.25H511.501M465.001 744.801V791.351M465.001 744.801H511.501M465.001 791.351V837.901M465.001 791.351H511.501M465.001 837.901V884.45M465.001 837.901H511.501M465.001 884.45V931M465.001 884.45H511.501M465.001 931H511.501M511.501 0V46.5497M511.501 0H558.002M511.501 46.5497V93.1009M511.501 46.5497H558.002M511.501 93.1009V139.651M511.501 93.1009H558.002M511.501 139.651V186.2M511.501 139.651H558.002M511.501 186.2V232.75M511.501 186.2H558.002M511.501 232.75V279.3M511.501 232.75H558.002M511.501 279.3V325.851M511.501 279.3H558.002M511.501 325.851V372.401M511.501 325.851H558.002M511.501 372.401V418.95M511.501 372.401H558.002M511.501 418.95V465.5M511.501 418.95H558.002M511.501 465.5V512.051M511.501 465.5H558.002M511.501 512.051V558.601M511.501 512.051H558.002M511.501 558.601V605.151M511.501 558.601H558.002M511.501 605.151V651.7M511.501 605.151H558.002M511.501 651.7V698.25M511.501 651.7H558.002M511.501 698.25V744.801M511.501 698.25H558.002M511.501 744.801V791.351M511.501 744.801H558.002M511.501 791.351V837.901M511.501 791.351H558.002M511.501 837.901V884.45M511.501 837.901H558.002M511.501 884.45V931M511.501 884.45H558.002M511.501 931H558.002M558.002 0V46.5497M558.002 0H604.502M558.002 46.5497V93.1009M558.002 46.5497H604.502M558.002 93.1009V139.651M558.002 93.1009H604.502M558.002 139.651V186.2M558.002 139.651H604.502M558.002 186.2V232.75M558.002 186.2H604.502M558.002 232.75V279.3M558.002 232.75H604.502M558.002 279.3V325.851M558.002 279.3H604.502M558.002 325.851V372.401M558.002 325.851H604.502M558.002 372.401V418.95M558.002 372.401H604.502M558.002 418.95V465.5M558.002 418.95H604.502M558.002 465.5V512.051M558.002 465.5H604.502M558.002 512.051V558.601M558.002 512.051H604.502M558.002 558.601V605.151M558.002 558.601H604.502M558.002 605.151V651.7M558.002 605.151H604.502M558.002 651.7V698.25M558.002 651.7H604.502M558.002 698.25V744.801M558.002 698.25H604.502M558.002 744.801V791.351M558.002 744.801H604.502M558.002 791.351V837.901M558.002 791.351H604.502M558.002 837.901V884.45M558.002 837.901H604.502M558.002 884.45V931M558.002 884.45H604.502M558.002 931H604.502M604.502 0V46.5497M604.502 0H651.001M604.502 46.5497V93.1009M604.502 46.5497H651.001M604.502 93.1009V139.651M604.502 93.1009H651.001M604.502 139.651V186.2M604.502 139.651H651.001M604.502 186.2V232.75M604.502 186.2H651.001M604.502 232.75V279.3M604.502 232.75H651.001M604.502 279.3V325.851M604.502 279.3H651.001M604.502 325.851V372.401M604.502 325.851H651.001M604.502 372.401V418.95M604.502 372.401H651.001M604.502 418.95V465.5M604.502 418.95H651.001M604.502 465.5V512.051M604.502 465.5H651.001M604.502 512.051V558.601M604.502 512.051H651.001M604.502 558.601V605.151M604.502 558.601H651.001M604.502 605.151V651.7M604.502 605.151H651.001M604.502 651.7V698.25M604.502 651.7H651.001M604.502 698.25V744.801M604.502 698.25H651.001M604.502 744.801V791.351M604.502 744.801H651.001M604.502 791.351V837.901M604.502 791.351H651.001M604.502 837.901V884.45M604.502 837.901H651.001M604.502 884.45V931M604.502 884.45H651.001M604.502 931H651.001M651.001 0V46.5497M651.001 0H697.501M651.001 46.5497V93.1009M651.001 46.5497H697.501M651.001 93.1009V139.651M651.001 93.1009H697.501M651.001 139.651V186.2M651.001 139.651H697.501M651.001 186.2V232.75M651.001 186.2H697.501M651.001 232.75V279.3M651.001 232.75H697.501M651.001 279.3V325.851M651.001 279.3H697.501M651.001 325.851V372.401M651.001 325.851H697.501M651.001 372.401V418.95M651.001 372.401H697.501M651.001 418.95V465.5M651.001 418.95H697.501M651.001 465.5V512.051M651.001 465.5H697.501M651.001 512.051V558.601M651.001 512.051H697.501M651.001 558.601V605.151M651.001 558.601H697.501M651.001 605.151V651.7M651.001 605.151H697.501M651.001 651.7V698.25M651.001 651.7H697.501M651.001 698.25V744.801M651.001 698.25H697.501M651.001 744.801V791.351M651.001 744.801H697.501M651.001 791.351V837.901M651.001 791.351H697.501M651.001 837.901V884.45M651.001 837.901H697.501M651.001 884.45V931M651.001 884.45H697.501M651.001 931H697.501M697.501 0V46.5497M697.501 0H744.002M697.501 46.5497V93.1009M697.501 46.5497H744.002M697.501 93.1009V139.651M697.501 93.1009H744.002M697.501 139.651V186.2M697.501 139.651H744.002M697.501 186.2V232.75M697.501 186.2H744.002M697.501 232.75V279.3M697.501 232.75H744.002M697.501 279.3V325.851M697.501 279.3H744.002M697.501 325.851V372.401M697.501 325.851H744.002M697.501 372.401V418.95M697.501 372.401H744.002M697.501 418.95V465.5M697.501 418.95H744.002M697.501 465.5V512.051M697.501 465.5H744.002M697.501 512.051V558.601M697.501 512.051H744.002M697.501 558.601V605.151M697.501 558.601H744.002M697.501 605.151V651.7M697.501 605.151H744.002M697.501 651.7V698.25M697.501 651.7H744.002M697.501 698.25V744.801M697.501 698.25H744.002M697.501 744.801V791.351M697.501 744.801H744.002M697.501 791.351V837.901M697.501 791.351H744.002M697.501 837.901V884.45M697.501 837.901H744.002M697.501 884.45V931M697.501 884.45H744.002M697.501 931H744.002M744.002 0V46.5497M744.002 0H790.502M744.002 46.5497V93.1009M744.002 46.5497H790.502M744.002 93.1009V139.651M744.002 93.1009H790.502M744.002 139.651V186.2M744.002 139.651H790.502M744.002 186.2V232.75M744.002 186.2H790.502M744.002 232.75V279.3M744.002 232.75H790.502M744.002 279.3V325.851M744.002 279.3H790.502M744.002 325.851V372.401M744.002 325.851H790.502M744.002 372.401V418.95M744.002 372.401H790.502M744.002 418.95V465.5M744.002 418.95H790.502M744.002 465.5V512.051M744.002 465.5H790.502M744.002 512.051V558.601M744.002 512.051H790.502M744.002 558.601V605.151M744.002 558.601H790.502M744.002 605.151V651.7M744.002 605.151H790.502M744.002 651.7V698.25M744.002 651.7H790.502M744.002 698.25V744.801M744.002 698.25H790.502M744.002 744.801V791.351M744.002 744.801H790.502M744.002 791.351V837.901M744.002 791.351H790.502M744.002 837.901V884.45M744.002 837.901H790.502M744.002 884.45V931M744.002 884.45H790.502M744.002 931H790.502M790.502 0V46.5497M790.502 0H837.001M790.502 46.5497V93.1009M790.502 46.5497H837.001M790.502 93.1009V139.651M790.502 93.1009H837.001M790.502 139.651V186.2M790.502 139.651H837.001M790.502 186.2V232.75M790.502 186.2H837.001M790.502 232.75V279.3M790.502 232.75H837.001M790.502 279.3V325.851M790.502 279.3H837.001M790.502 325.851V372.401M790.502 325.851H837.001M790.502 372.401V418.95M790.502 372.401H837.001M790.502 418.95V465.5M790.502 418.95H837.001M790.502 465.5V512.051M790.502 465.5H837.001M790.502 512.051V558.601M790.502 512.051H837.001M790.502 558.601V605.151M790.502 558.601H837.001M790.502 605.151V651.7M790.502 605.151H837.001M790.502 651.7V698.25M790.502 651.7H837.001M790.502 698.25V744.801M790.502 698.25H837.001M790.502 744.801V791.351M790.502 744.801H837.001M790.502 791.351V837.901M790.502 791.351H837.001M790.502 837.901V884.45M790.502 837.901H837.001M790.502 884.45V931M790.502 884.45H837.001M790.502 931H837.001M837.001 0V46.5497M837.001 0H883.501M837.001 46.5497V93.1009M837.001 46.5497H883.501M837.001 93.1009V139.651M837.001 93.1009H883.501M837.001 139.651V186.2M837.001 139.651H883.501M837.001 186.2V232.75M837.001 186.2H883.501M837.001 232.75V279.3M837.001 232.75H883.501M837.001 279.3V325.851M837.001 279.3H883.501M837.001 325.851V372.401M837.001 325.851H883.501M837.001 372.401V418.95M837.001 372.401H883.501M837.001 418.95V465.5M837.001 418.95H883.501M837.001 465.5V512.051M837.001 465.5H883.501M837.001 512.051V558.601M837.001 512.051H883.501M837.001 558.601V605.151M837.001 558.601H883.501M837.001 605.151V651.7M837.001 605.151H883.501M837.001 651.7V698.25M837.001 651.7H883.501M837.001 698.25V744.801M837.001 698.25H883.501M837.001 744.801V791.351M837.001 744.801H883.501M837.001 791.351V837.901M837.001 791.351H883.501M837.001 837.901V884.45M837.001 837.901H883.501M837.001 884.45V931M837.001 884.45H883.501M837.001 931H883.501M883.501 0V46.5497M883.501 0H930.001M883.501 46.5497V93.1009M883.501 46.5497H930.001M883.501 93.1009V139.651M883.501 93.1009H930.001M883.501 139.651V186.2M883.501 139.651H930.001M883.501 186.2V232.75M883.501 186.2H930.001M883.501 232.75V279.3M883.501 232.75H930.001M883.501 279.3V325.851M883.501 279.3H930.001M883.501 325.851V372.401M883.501 325.851H930.001M883.501 372.401V418.95M883.501 372.401H930.001M883.501 418.95V465.5M883.501 418.95H930.001M883.501 465.5V512.051M883.501 465.5H930.001M883.501 512.051V558.601M883.501 512.051H930.001M883.501 558.601V605.151M883.501 558.601H930.001M883.501 605.151V651.7M883.501 605.151H930.001M883.501 651.7V698.25M883.501 651.7H930.001M883.501 698.25V744.801M883.501 698.25H930.001M883.501 744.801V791.351M883.501 744.801H930.001M883.501 791.351V837.901M883.501 791.351H930.001M883.501 837.901V884.45M883.501 837.901H930.001M883.501 884.45V931M883.501 884.45H930.001M883.501 931H930.001M930.001 0V46.5497M930.001 0H976.502M930.001 46.5497V93.1009M930.001 46.5497H976.502M930.001 93.1009V139.651M930.001 93.1009H976.502M930.001 139.651V186.2M930.001 139.651H976.502M930.001 186.2V232.75M930.001 186.2H976.502M930.001 232.75V279.3M930.001 232.75H976.502M930.001 279.3V325.851M930.001 279.3H976.502M930.001 325.851V372.401M930.001 325.851H976.502M930.001 372.401V418.95M930.001 372.401H976.502M930.001 418.95V465.5M930.001 418.95H976.502M930.001 465.5V512.051M930.001 465.5H976.502M930.001 512.051V558.601M930.001 512.051H976.502M930.001 558.601V605.151M930.001 558.601H976.502M930.001 605.151V651.7M930.001 605.151H976.502M930.001 651.7V698.25M930.001 651.7H976.502M930.001 698.25V744.801M930.001 698.25H976.502M930.001 744.801V791.351M930.001 744.801H976.502M930.001 791.351V837.901M930.001 791.351H976.502M930.001 837.901V884.45M930.001 837.901H976.502M930.001 884.45V931M930.001 884.45H976.502M930.001 931H976.502M976.502 0V46.5497M976.502 0H1023M976.502 46.5497V93.1009M976.502 46.5497H1023M976.502 93.1009V139.651M976.502 93.1009H1023M976.502 139.651V186.2M976.502 139.651H1023M976.502 186.2V232.75M976.502 186.2H1023M976.502 232.75V279.3M976.502 232.75H1023M976.502 279.3V325.851M976.502 279.3H1023M976.502 325.851V372.401M976.502 325.851H1023M976.502 372.401V418.95M976.502 372.401H1023M976.502 418.95V465.5M976.502 418.95H1023M976.502 465.5V512.051M976.502 465.5H1023M976.502 512.051V558.601M976.502 512.051H1023M976.502 558.601V605.151M976.502 558.601H1023M976.502 605.151V651.7M976.502 605.151H1023M976.502 651.7V698.25M976.502 651.7H1023M976.502 698.25V744.801M976.502 698.25H1023M976.502 744.801V791.351M976.502 744.801H1023M976.502 791.351V837.901M976.502 791.351H1023M976.502 837.901V884.45M976.502 837.901H1023M976.502 884.45V931M976.502 884.45H1023M976.502 931H1023M1023 0V46.5497M1023 0H1069.5M1023 46.5497V93.1009M1023 46.5497H1069.5M1023 93.1009V139.651M1023 93.1009H1069.5M1023 139.651V186.2M1023 139.651H1069.5M1023 186.2V232.75M1023 186.2H1069.5M1023 232.75V279.3M1023 232.75H1069.5M1023 279.3V325.851M1023 279.3H1069.5M1023 325.851V372.401M1023 325.851H1069.5M1023 372.401V418.95M1023 372.401H1069.5M1023 418.95V465.5M1023 418.95H1069.5M1023 465.5V512.051M1023 465.5H1069.5M1023 512.051V558.601M1023 512.051H1069.5M1023 558.601V605.151M1023 558.601H1069.5M1023 605.151V651.7M1023 605.151H1069.5M1023 651.7V698.25M1023 651.7H1069.5M1023 698.25V744.801M1023 698.25H1069.5M1023 744.801V791.351M1023 744.801H1069.5M1023 791.351V837.901M1023 791.351H1069.5M1023 837.901V884.45M1023 837.901H1069.5M1023 884.45V931M1023 884.45H1069.5M1023 931H1069.5M1069.5 0V46.5497M1069.5 0H1116M1069.5 46.5497V93.1009M1069.5 46.5497H1116M1069.5 93.1009V139.651M1069.5 93.1009H1116M1069.5 139.651V186.2M1069.5 139.651H1116M1069.5 186.2V232.75M1069.5 186.2H1116M1069.5 232.75V279.3M1069.5 232.75H1116M1069.5 279.3V325.851M1069.5 279.3H1116M1069.5 325.851V372.401M1069.5 325.851H1116M1069.5 372.401V418.95M1069.5 372.401H1116M1069.5 418.95V465.5M1069.5 418.95H1116M1069.5 465.5V512.051M1069.5 465.5H1116M1069.5 512.051V558.601M1069.5 512.051H1116M1069.5 558.601V605.151M1069.5 558.601H1116M1069.5 605.151V651.7M1069.5 605.151H1116M1069.5 651.7V698.25M1069.5 651.7H1116M1069.5 698.25V744.801M1069.5 698.25H1116M1069.5 744.801V791.351M1069.5 744.801H1116M1069.5 791.351V837.901M1069.5 791.351H1116M1069.5 837.901V884.45M1069.5 837.901H1116M1069.5 884.45V931M1069.5 884.45H1116M1069.5 931H1116M1116 0V46.5497M1116 0H1162.5M1116 46.5497V93.1009M1116 46.5497H1162.5M1116 93.1009V139.651M1116 93.1009H1162.5M1116 139.651V186.2M1116 139.651H1162.5M1116 186.2V232.75M1116 186.2H1162.5M1116 232.75V279.3M1116 232.75H1162.5M1116 279.3V325.851M1116 279.3H1162.5M1116 325.851V372.401M1116 325.851H1162.5M1116 372.401V418.95M1116 372.401H1162.5M1116 418.95V465.5M1116 418.95H1162.5M1116 465.5V512.051M1116 465.5H1162.5M1116 512.051V558.601M1116 512.051H1162.5M1116 558.601V605.151M1116 558.601H1162.5M1116 605.151V651.7M1116 605.151H1162.5M1116 651.7V698.25M1116 651.7H1162.5M1116 698.25V744.801M1116 698.25H1162.5M1116 744.801V791.351M1116 744.801H1162.5M1116 791.351V837.901M1116 791.351H1162.5M1116 837.901V884.45M1116 837.901H1162.5M1116 884.45V931M1116 884.45H1162.5M1116 931H1162.5M1162.5 0V46.5497M1162.5 0H1209M1162.5 46.5497V93.1009M1162.5 46.5497H1209M1162.5 93.1009V139.651M1162.5 93.1009H1209M1162.5 139.651V186.2M1162.5 139.651H1209M1162.5 186.2V232.75M1162.5 186.2H1209M1162.5 232.75V279.3M1162.5 232.75H1209M1162.5 279.3V325.851M1162.5 279.3H1209M1162.5 325.851V372.401M1162.5 325.851H1209M1162.5 372.401V418.95M1162.5 372.401H1209M1162.5 418.95V465.5M1162.5 418.95H1209M1162.5 465.5V512.051M1162.5 465.5H1209M1162.5 512.051V558.601M1162.5 512.051H1209M1162.5 558.601V605.151M1162.5 558.601H1209M1162.5 605.151V651.7M1162.5 605.151H1209M1162.5 651.7V698.25M1162.5 651.7H1209M1162.5 698.25V744.801M1162.5 698.25H1209M1162.5 744.801V791.351M1162.5 744.801H1209M1162.5 791.351V837.901M1162.5 791.351H1209M1162.5 837.901V884.45M1162.5 837.901H1209M1162.5 884.45V931M1162.5 884.45H1209M1162.5 931H1209M1209 0V46.5497M1209 0H1255.5M1209 46.5497V93.1009M1209 46.5497H1255.5M1209 93.1009V139.651M1209 93.1009H1255.5M1209 139.651V186.2M1209 139.651H1255.5M1209 186.2V232.75M1209 186.2H1255.5M1209 232.75V279.3M1209 232.75H1255.5M1209 279.3V325.851M1209 279.3H1255.5M1209 325.851V372.401M1209 325.851H1255.5M1209 372.401V418.95M1209 372.401H1255.5M1209 418.95V465.5M1209 418.95H1255.5M1209 465.5V512.051M1209 465.5H1255.5M1209 512.051V558.601M1209 512.051H1255.5M1209 558.601V605.151M1209 558.601H1255.5M1209 605.151V651.7M1209 605.151H1255.5M1209 651.7V698.25M1209 651.7H1255.5M1209 698.25V744.801M1209 698.25H1255.5M1209 744.801V791.351M1209 744.801H1255.5M1209 791.351V837.901M1209 791.351H1255.5M1209 837.901V884.45M1209 837.901H1255.5M1209 884.45V931M1209 884.45H1255.5M1209 931H1255.5M1255.5 0V46.5497M1255.5 0H1302M1255.5 46.5497V93.1009M1255.5 46.5497H1302M1255.5 93.1009V139.651M1255.5 93.1009H1302M1255.5 139.651V186.2M1255.5 139.651H1302M1255.5 186.2V232.75M1255.5 186.2H1302M1255.5 232.75V279.3M1255.5 232.75H1302M1255.5 279.3V325.851M1255.5 279.3H1302M1255.5 325.851V372.401M1255.5 325.851H1302M1255.5 372.401V418.95M1255.5 372.401H1302M1255.5 418.95V465.5M1255.5 418.95H1302M1255.5 465.5V512.051M1255.5 465.5H1302M1255.5 512.051V558.601M1255.5 512.051H1302M1255.5 558.601V605.151M1255.5 558.601H1302M1255.5 605.151V651.7M1255.5 605.151H1302M1255.5 651.7V698.25M1255.5 651.7H1302M1255.5 698.25V744.801M1255.5 698.25H1302M1255.5 744.801V791.351M1255.5 744.801H1302M1255.5 791.351V837.901M1255.5 791.351H1302M1255.5 837.901V884.45M1255.5 837.901H1302M1255.5 884.45V931M1255.5 884.45H1302M1255.5 931H1302M1302 0V46.5497M1302 0H1348.5M1302 46.5497V93.1009M1302 46.5497H1348.5M1302 93.1009V139.651M1302 93.1009H1348.5M1302 139.651V186.2M1302 139.651H1348.5M1302 186.2V232.75M1302 186.2H1348.5M1302 232.75V279.3M1302 232.75H1348.5M1302 279.3V325.851M1302 279.3H1348.5M1302 325.851V372.401M1302 325.851H1348.5M1302 372.401V418.95M1302 372.401H1348.5M1302 418.95V465.5M1302 418.95H1348.5M1302 465.5V512.051M1302 465.5H1348.5M1302 512.051V558.601M1302 512.051H1348.5M1302 558.601V605.151M1302 558.601H1348.5M1302 605.151V651.7M1302 605.151H1348.5M1302 651.7V698.25M1302 651.7H1348.5M1302 698.25V744.801M1302 698.25H1348.5M1302 744.801V791.351M1302 744.801H1348.5M1302 791.351V837.901M1302 791.351H1348.5M1302 837.901V884.45M1302 837.901H1348.5M1302 884.45V931M1302 884.45H1348.5M1302 931H1348.5M1348.5 0V46.5497M1348.5 0H1395M1348.5 46.5497V93.1009M1348.5 46.5497H1395M1348.5 93.1009V139.651M1348.5 93.1009H1395M1348.5 139.651V186.2M1348.5 139.651H1395M1348.5 186.2V232.75M1348.5 186.2H1395M1348.5 232.75V279.3M1348.5 232.75H1395M1348.5 279.3V325.851M1348.5 279.3H1395M1348.5 325.851V372.401M1348.5 325.851H1395M1348.5 372.401V418.95M1348.5 372.401H1395M1348.5 418.95V465.5M1348.5 418.95H1395M1348.5 465.5V512.051M1348.5 465.5H1395M1348.5 512.051V558.601M1348.5 512.051H1395M1348.5 558.601V605.151M1348.5 558.601H1395M1348.5 605.151V651.7M1348.5 605.151H1395M1348.5 651.7V698.25M1348.5 651.7H1395M1348.5 698.25V744.801M1348.5 698.25H1395M1348.5 744.801V791.351M1348.5 744.801H1395M1348.5 791.351V837.901M1348.5 791.351H1395M1348.5 837.901V884.45M1348.5 837.901H1395M1348.5 884.45V931M1348.5 884.45H1395M1348.5 931H1395M1395 0V46.5497M1395 0H1441.5M1395 46.5497V93.1009M1395 46.5497H1441.5M1395 93.1009V139.651M1395 93.1009H1441.5M1395 139.651V186.2M1395 139.651H1441.5M1395 186.2V232.75M1395 186.2H1441.5M1395 232.75V279.3M1395 232.75H1441.5M1395 279.3V325.851M1395 279.3H1441.5M1395 325.851V372.401M1395 325.851H1441.5M1395 372.401V418.95M1395 372.401H1441.5M1395 418.95V465.5M1395 418.95H1441.5M1395 465.5V512.051M1395 465.5H1441.5M1395 512.051V558.601M1395 512.051H1441.5M1395 558.601V605.151M1395 558.601H1441.5M1395 605.151V651.7M1395 605.151H1441.5M1395 651.7V698.25M1395 651.7H1441.5M1395 698.25V744.801M1395 698.25H1441.5M1395 744.801V791.351M1395 744.801H1441.5M1395 791.351V837.901M1395 791.351H1441.5M1395 837.901V884.45M1395 837.901H1441.5M1395 884.45V931M1395 884.45H1441.5M1395 931H1441.5M1441.5 0V46.5497M1441.5 0H1488M1441.5 46.5497V93.1009M1441.5 46.5497H1488M1441.5 93.1009V139.651M1441.5 93.1009H1488M1441.5 139.651V186.2M1441.5 139.651H1488M1441.5 186.2V232.75M1441.5 186.2H1488M1441.5 232.75V279.3M1441.5 232.75H1488M1441.5 279.3V325.851M1441.5 279.3H1488M1441.5 325.851V372.401M1441.5 325.851H1488M1441.5 372.401V418.95M1441.5 372.401H1488M1441.5 418.95V465.5M1441.5 418.95H1488M1441.5 465.5V512.051M1441.5 465.5H1488M1441.5 512.051V558.601M1441.5 512.051H1488M1441.5 558.601V605.151M1441.5 558.601H1488M1441.5 605.151V651.7M1441.5 605.151H1488M1441.5 651.7V698.25M1441.5 651.7H1488M1441.5 698.25V744.801M1441.5 698.25H1488M1441.5 744.801V791.351M1441.5 744.801H1488M1441.5 791.351V837.901M1441.5 791.351H1488M1441.5 837.901V884.45M1441.5 837.901H1488M1441.5 884.45V931M1441.5 884.45H1488M1441.5 931H1488M1488 0V46.5497M1488 0H1534.5M1488 46.5497V93.1009M1488 46.5497H1534.5M1488 93.1009V139.651M1488 93.1009H1534.5M1488 139.651V186.2M1488 139.651H1534.5M1488 186.2V232.75M1488 186.2H1534.5M1488 232.75V279.3M1488 232.75H1534.5M1488 279.3V325.851M1488 279.3H1534.5M1488 325.851V372.401M1488 325.851H1534.5M1488 372.401V418.95M1488 372.401H1534.5M1488 418.95V465.5M1488 418.95H1534.5M1488 465.5V512.051M1488 465.5H1534.5M1488 512.051V558.601M1488 512.051H1534.5M1488 558.601V605.151M1488 558.601H1534.5M1488 605.151V651.7M1488 605.151H1534.5M1488 651.7V698.25M1488 651.7H1534.5M1488 698.25V744.801M1488 698.25H1534.5M1488 744.801V791.351M1488 744.801H1534.5M1488 791.351V837.901M1488 791.351H1534.5M1488 837.901V884.45M1488 837.901H1534.5M1488 884.45V931M1488 884.45H1534.5M1488 931H1534.5M1534.5 0V46.5497M1534.5 0H1581M1534.5 46.5497V93.1009M1534.5 46.5497H1581M1534.5 93.1009V139.651M1534.5 93.1009H1581M1534.5 139.651V186.2M1534.5 139.651H1581M1534.5 186.2V232.75M1534.5 186.2H1581M1534.5 232.75V279.3M1534.5 232.75H1581M1534.5 279.3V325.851M1534.5 279.3H1581M1534.5 325.851V372.401M1534.5 325.851H1581M1534.5 372.401V418.95M1534.5 372.401H1581M1534.5 418.95V465.5M1534.5 418.95H1581M1534.5 465.5V512.051M1534.5 465.5H1581M1534.5 512.051V558.601M1534.5 512.051H1581M1534.5 558.601V605.151M1534.5 558.601H1581M1534.5 605.151V651.7M1534.5 605.151H1581M1534.5 651.7V698.25M1534.5 651.7H1581M1534.5 698.25V744.801M1534.5 698.25H1581M1534.5 744.801V791.351M1534.5 744.801H1581M1534.5 791.351V837.901M1534.5 791.351H1581M1534.5 837.901V884.45M1534.5 837.901H1581M1534.5 884.45V931M1534.5 884.45H1581M1534.5 931H1581M1581 0V46.5497M1581 0H1627.5M1581 46.5497V93.1009M1581 46.5497H1627.5M1581 93.1009V139.651M1581 93.1009H1627.5M1581 139.651V186.2M1581 139.651H1627.5M1581 186.2V232.75M1581 186.2H1627.5M1581 232.75V279.3M1581 232.75H1627.5M1581 279.3V325.851M1581 279.3H1627.5M1581 325.851V372.401M1581 325.851H1627.5M1581 372.401V418.95M1581 372.401H1627.5M1581 418.95V465.5M1581 418.95H1627.5M1581 465.5V512.051M1581 465.5H1627.5M1581 512.051V558.601M1581 512.051H1627.5M1581 558.601V605.151M1581 558.601H1627.5M1581 605.151V651.7M1581 605.151H1627.5M1581 651.7V698.25M1581 651.7H1627.5M1581 698.25V744.801M1581 698.25H1627.5M1581 744.801V791.351M1581 744.801H1627.5M1581 791.351V837.901M1581 791.351H1627.5M1581 837.901V884.45M1581 837.901H1627.5M1581 884.45V931M1581 884.45H1627.5M1581 931H1627.5M1627.5 0V46.5497M1627.5 0H1674.01M1627.5 46.5497V93.1009M1627.5 46.5497H1674.01M1627.5 93.1009V139.651M1627.5 93.1009H1674.01M1627.5 139.651V186.2M1627.5 139.651H1674.01M1627.5 186.2V232.75M1627.5 186.2H1674.01M1627.5 232.75V279.3M1627.5 232.75H1674.01M1627.5 279.3V325.851M1627.5 279.3H1674.01M1627.5 325.851V372.401M1627.5 325.851H1674.01M1627.5 372.401V418.95M1627.5 372.401H1674.01M1627.5 418.95V465.5M1627.5 418.95H1674.01M1627.5 465.5V512.051M1627.5 465.5H1674.01M1627.5 512.051V558.601M1627.5 512.051H1674.01M1627.5 558.601V605.151M1627.5 558.601H1674.01M1627.5 605.151V651.7M1627.5 605.151H1674.01M1627.5 651.7V698.25M1627.5 651.7H1674.01M1627.5 698.25V744.801M1627.5 698.25H1674.01M1627.5 744.801V791.351M1627.5 744.801H1674.01M1627.5 791.351V837.901M1627.5 791.351H1674.01M1627.5 837.901V884.45M1627.5 837.901H1674.01M1627.5 884.45V931M1627.5 884.45H1674.01M1627.5 931H1674.01M1674.01 0V46.5497M1674.01 0H1720.5M1674.01 46.5497V93.1009M1674.01 46.5497H1720.5M1674.01 93.1009V139.651M1674.01 93.1009H1720.5M1674.01 139.651V186.2M1674.01 139.651H1720.5M1674.01 186.2V232.75M1674.01 186.2H1720.5M1674.01 232.75V279.3M1674.01 232.75H1720.5M1674.01 279.3V325.851M1674.01 279.3H1720.5M1674.01 325.851V372.401M1674.01 325.851H1720.5M1674.01 372.401V418.95M1674.01 372.401H1720.5M1674.01 418.95V465.5M1674.01 418.95H1720.5M1674.01 465.5V512.051M1674.01 465.5H1720.5M1674.01 512.051V558.601M1674.01 512.051H1720.5M1674.01 558.601V605.151M1674.01 558.601H1720.5M1674.01 605.151V651.7M1674.01 605.151H1720.5M1674.01 651.7V698.25M1674.01 651.7H1720.5M1674.01 698.25V744.801M1674.01 698.25H1720.5M1674.01 744.801V791.351M1674.01 744.801H1720.5M1674.01 791.351V837.901M1674.01 791.351H1720.5M1674.01 837.901V884.45M1674.01 837.901H1720.5M1674.01 884.45V931M1674.01 884.45H1720.5M1674.01 931H1720.5M1720.5 0V46.5497M1720.5 0H1767.01M1720.5 46.5497V93.1009M1720.5 46.5497H1767.01M1720.5 93.1009V139.651M1720.5 93.1009H1767.01M1720.5 139.651V186.2M1720.5 139.651H1767.01M1720.5 186.2V232.75M1720.5 186.2H1767.01M1720.5 232.75V279.3M1720.5 232.75H1767.01M1720.5 279.3V325.851M1720.5 279.3H1767.01M1720.5 325.851V372.401M1720.5 325.851H1767.01M1720.5 372.401V418.95M1720.5 372.401H1767.01M1720.5 418.95V465.5M1720.5 418.95H1767.01M1720.5 465.5V512.051M1720.5 465.5H1767.01M1720.5 512.051V558.601M1720.5 512.051H1767.01M1720.5 558.601V605.151M1720.5 558.601H1767.01M1720.5 605.151V651.7M1720.5 605.151H1767.01M1720.5 651.7V698.25M1720.5 651.7H1767.01M1720.5 698.25V744.801M1720.5 698.25H1767.01M1720.5 744.801V791.351M1720.5 744.801H1767.01M1720.5 791.351V837.901M1720.5 791.351H1767.01M1720.5 837.901V884.45M1720.5 837.901H1767.01M1720.5 884.45V931M1720.5 884.45H1767.01M1720.5 931H1767.01M1767.01 0V46.5497M1767.01 0H1813.5M1767.01 46.5497V93.1009M1767.01 46.5497H1813.5M1767.01 93.1009V139.651M1767.01 93.1009H1813.5M1767.01 139.651V186.2M1767.01 139.651H1813.5M1767.01 186.2V232.75M1767.01 186.2H1813.5M1767.01 232.75V279.3M1767.01 232.75H1813.5M1767.01 279.3V325.851M1767.01 279.3H1813.5M1767.01 325.851V372.401M1767.01 325.851H1813.5M1767.01 372.401V418.95M1767.01 372.401H1813.5M1767.01 418.95V465.5M1767.01 418.95H1813.5M1767.01 465.5V512.051M1767.01 465.5H1813.5M1767.01 512.051V558.601M1767.01 512.051H1813.5M1767.01 558.601V605.151M1767.01 558.601H1813.5M1767.01 605.151V651.7M1767.01 605.151H1813.5M1767.01 651.7V698.25M1767.01 651.7H1813.5M1767.01 698.25V744.801M1767.01 698.25H1813.5M1767.01 744.801V791.351M1767.01 744.801H1813.5M1767.01 791.351V837.901M1767.01 791.351H1813.5M1767.01 837.901V884.45M1767.01 837.901H1813.5M1767.01 884.45V931M1767.01 884.45H1813.5M1767.01 931H1813.5M1813.5 0V46.5497M1813.5 0H1860M1813.5 46.5497V93.1009M1813.5 46.5497H1860M1813.5 93.1009V139.651M1813.5 93.1009H1860M1813.5 139.651V186.2M1813.5 139.651H1860M1813.5 186.2V232.75M1813.5 186.2H1860M1813.5 232.75V279.3M1813.5 232.75H1860M1813.5 279.3V325.851M1813.5 279.3H1860M1813.5 325.851V372.401M1813.5 325.851H1860M1813.5 372.401V418.95M1813.5 372.401H1860M1813.5 418.95V465.5M1813.5 418.95H1860M1813.5 465.5V512.051M1813.5 465.5H1860M1813.5 512.051V558.601M1813.5 512.051H1860M1813.5 558.601V605.151M1813.5 558.601H1860M1813.5 605.151V651.7M1813.5 605.151H1860M1813.5 651.7V698.25M1813.5 651.7H1860M1813.5 698.25V744.801M1813.5 698.25H1860M1813.5 744.801V791.351M1813.5 744.801H1860M1813.5 791.351V837.901M1813.5 791.351H1860M1813.5 837.901V884.45M1813.5 837.901H1860M1813.5 884.45V931M1813.5 884.45H1860M1813.5 931H1860M1860 0V46.5497M1860 0H1906.5M1860 46.5497V93.1009M1860 46.5497H1906.5M1860 93.1009V139.651M1860 93.1009H1906.5M1860 139.651V186.2M1860 139.651H1906.5M1860 186.2V232.75M1860 186.2H1906.5M1860 232.75V279.3M1860 232.75H1906.5M1860 279.3V325.851M1860 279.3H1906.5M1860 325.851V372.401M1860 325.851H1906.5M1860 372.401V418.95M1860 372.401H1906.5M1860 418.95V465.5M1860 418.95H1906.5M1860 465.5V512.051M1860 465.5H1906.5M1860 512.051V558.601M1860 512.051H1906.5M1860 558.601V605.151M1860 558.601H1906.5M1860 605.151V651.7M1860 605.151H1906.5M1860 651.7V698.25M1860 651.7H1906.5M1860 698.25V744.801M1860 698.25H1906.5M1860 744.801V791.351M1860 744.801H1906.5M1860 791.351V837.901M1860 791.351H1906.5M1860 837.901V884.45M1860 837.901H1906.5M1860 884.45V931M1860 884.45H1906.5M1860 931H1906.5M1906.5 0V46.5497M1906.5 0H1953M1906.5 46.5497V93.1009M1906.5 46.5497H1953M1906.5 93.1009V139.651M1906.5 93.1009H1953M1906.5 139.651V186.2M1906.5 139.651H1953M1906.5 186.2V232.75M1906.5 186.2H1953M1906.5 232.75V279.3M1906.5 232.75H1953M1906.5 279.3V325.851M1906.5 279.3H1953M1906.5 325.851V372.401M1906.5 325.851H1953M1906.5 372.401V418.95M1906.5 372.401H1953M1906.5 418.95V465.5M1906.5 418.95H1953M1906.5 465.5V512.051M1906.5 465.5H1953M1906.5 512.051V558.601M1906.5 512.051H1953M1906.5 558.601V605.151M1906.5 558.601H1953M1906.5 605.151V651.7M1906.5 605.151H1953M1906.5 651.7V698.25M1906.5 651.7H1953M1906.5 698.25V744.801M1906.5 698.25H1953M1906.5 744.801V791.351M1906.5 744.801H1953M1906.5 791.351V837.901M1906.5 791.351H1953M1906.5 837.901V884.45M1906.5 837.901H1953M1906.5 884.45V931M1906.5 884.45H1953M1906.5 931H1953M1953 0V46.5497M1953 0H1999.51M1953 46.5497V93.1009M1953 46.5497H1999.51M1953 93.1009V139.651M1953 93.1009H1999.51M1953 139.651V186.2M1953 139.651H1999.51M1953 186.2V232.75M1953 186.2H1999.51M1953 232.75V279.3M1953 232.75H1999.51M1953 279.3V325.851M1953 279.3H1999.51M1953 325.851V372.401M1953 325.851H1999.51M1953 372.401V418.95M1953 372.401H1999.51M1953 418.95V465.5M1953 418.95H1999.51M1953 465.5V512.051M1953 465.5H1999.51M1953 512.051V558.601M1953 512.051H1999.51M1953 558.601V605.151M1953 558.601H1999.51M1953 605.151V651.7M1953 605.151H1999.51M1953 651.7V698.25M1953 651.7H1999.51M1953 698.25V744.801M1953 698.25H1999.51M1953 744.801V791.351M1953 744.801H1999.51M1953 791.351V837.901M1953 791.351H1999.51M1953 837.901V884.45M1953 837.901H1999.51M1953 884.45V931M1953 884.45H1999.51M1953 931H1999.51M1999.51 0V46.5497M1999.51 0H2046V46.5497M1999.51 46.5497V93.1009M1999.51 46.5497H2046M1999.51 93.1009V139.651M1999.51 93.1009H2046M1999.51 139.651V186.2M1999.51 139.651H2046M1999.51 186.2V232.75M1999.51 186.2H2046M1999.51 232.75V279.3M1999.51 232.75H2046M1999.51 279.3V325.851M1999.51 279.3H2046M1999.51 325.851V372.401M1999.51 325.851H2046M1999.51 372.401V418.95M1999.51 372.401H2046M1999.51 418.95V465.5M1999.51 418.95H2046M1999.51 465.5V512.051M1999.51 465.5H2046M1999.51 512.051V558.601M1999.51 512.051H2046M1999.51 558.601V605.151M1999.51 558.601H2046M1999.51 605.151V651.7M1999.51 605.151H2046M1999.51 651.7V698.25M1999.51 651.7H2046M1999.51 698.25V744.801M1999.51 698.25H2046M1999.51 744.801V791.351M1999.51 744.801H2046M1999.51 791.351V837.901M1999.51 791.351H2046M1999.51 837.901V884.45M1999.51 837.901H2046M1999.51 884.45V931M1999.51 884.45H2046M1999.51 931H2046V884.45M2046 46.5497V93.1009M2046 93.1009V139.651M2046 139.651V186.2M2046 186.2V232.75M2046 232.75V279.3M2046 279.3V325.851M2046 325.851V372.401M2046 372.401V418.95M2046 418.95V465.5M2046 465.5V512.051M2046 512.051V558.601M2046 558.601V605.151M2046 605.151V651.7M2046 651.7V698.25M2046 698.25V744.801M2046 744.801V791.351M2046 791.351V837.901M2046 837.901V884.45" stroke="url(#paint0_radial_16990_24645)" stroke-opacity="0.4" strokeWidth="0.471024" style="mix-blend-mode:soft-light"/>
</g>
<defs>
<radialGradient id="paint0_radial_16990_24645" cx="0" cy="0" r="1" gradientUnits="userSpaceOnUse" gradientTransform="translate(1023 465.5) rotate(90) scale(465.5 1023)">
<stop stop-color="white"/>
<stop offset="1" stop-color="white" stop-opacity="0"/>
</radialGradient>
</defs>
</svg>
