<svg width="32" height="33" viewBox="0 0 32 33" fill="none" xmlns="http://www.w3.org/2000/svg">
<rect y="0.912598" width="32" height="32" rx="16" fill="black" fill-opacity="0.01"/>
<path d="M17.8726 13.6731C17.8726 15.5657 16.3382 17.1 14.4456 17.1C12.5529 17.1 11.0186 15.5657 11.0186 13.6731C11.0186 11.7804 12.5529 10.2461 14.4456 10.2461C16.3382 10.2461 17.8726 11.7804 17.8726 13.6731Z" fill="#C9A74E"/>
<path d="M9.33459 21.5789C9.33459 19.738 10.827 18.2456 12.6679 18.2456H16.2266C18.0675 18.2456 19.5599 19.738 19.5599 21.5789V22.2456C19.5599 22.982 18.9629 23.5789 18.2266 23.5789H10.6679C9.93155 23.5789 9.33459 22.982 9.33459 22.2456V21.5789Z" fill="#C9A74E"/>
<path d="M17.8187 16.5423C17.6703 16.7165 17.7105 16.9911 17.9287 17.0603C18.1905 17.1434 18.4693 17.1882 18.7586 17.1882C20.2727 17.1882 21.5002 15.9607 21.5002 14.4466C21.5002 12.9325 20.2727 11.7051 18.7586 11.7051C18.5945 11.7051 18.4993 11.8795 18.5601 12.0319C18.7628 12.5394 18.8743 13.0932 18.8743 13.673C18.8743 14.7677 18.477 15.7695 17.8187 16.5423Z" fill="#C9A74E"/>
<path d="M20.5599 21.7864C20.5599 21.9704 20.7091 22.1197 20.8932 22.1197H22.0013C22.3695 22.1197 22.6679 21.8212 22.6679 21.453V20.4378C22.6679 19.1492 21.6233 18.1045 20.3346 18.1045H19.8203C19.4996 18.1045 19.3385 18.5464 19.5449 18.7918C20.1783 19.5452 20.5599 20.5174 20.5599 21.5788V21.7864Z" fill="#C9A74E"/>
</svg>
