<svg width="32" height="33" viewBox="0 0 32 33" fill="none" xmlns="http://www.w3.org/2000/svg">
<rect y="0.912598" width="32" height="32" rx="16" fill="black" fill-opacity="0.01"/>
<path d="M11.2327 15.6302H10.756V14.6841C10.756 14.6095 10.7264 14.538 10.6736 14.4852C10.6209 14.4325 10.5494 14.4028 10.4748 14.4028C10.4002 14.4028 10.3286 14.4325 10.2759 14.4852C10.2231 14.538 10.1935 14.6095 10.1935 14.6841V15.6302H9.7168C9.56775 15.6306 9.42493 15.69 9.31953 15.7954C9.21414 15.9008 9.15473 16.0436 9.1543 16.1927V22.9961C9.15428 23.07 9.16881 23.1431 9.19707 23.2114C9.22534 23.2796 9.26677 23.3417 9.31901 23.3939C9.37124 23.4461 9.43326 23.4876 9.50151 23.5158C9.56977 23.5441 9.64292 23.5586 9.7168 23.5586H10.1935V24.5064C10.1946 24.5803 10.2247 24.6508 10.2774 24.7026C10.33 24.7544 10.4009 24.7835 10.4748 24.7835C10.5487 24.7835 10.6196 24.7544 10.6722 24.7026C10.7248 24.6507 10.7549 24.5803 10.756 24.5064V23.5586H11.2327C11.3066 23.5586 11.3798 23.5441 11.448 23.5158C11.5163 23.4876 11.5783 23.4461 11.6305 23.3939C11.6828 23.3417 11.7242 23.2796 11.7525 23.2114C11.7807 23.1431 11.7953 23.07 11.7952 22.9961V16.1927C11.7948 16.0436 11.7354 15.9008 11.63 15.7954C11.5246 15.69 11.3818 15.6306 11.2327 15.6302Z" fill="#C9A74E"/>
<path d="M14.9169 12.1425H14.4421V11.1963C14.4421 11.1217 14.4125 11.0502 14.3597 10.9974C14.307 10.9447 14.2354 10.915 14.1608 10.915C14.0862 10.915 14.0147 10.9447 13.962 10.9974C13.9092 11.0502 13.8796 11.1217 13.8796 11.1963V12.1425H13.4038C13.2548 12.1429 13.1119 12.2023 13.0065 12.3077C12.9011 12.4131 12.8417 12.5559 12.8413 12.705V19.5084C12.8413 19.5823 12.8558 19.6554 12.8841 19.7237C12.9123 19.7919 12.9538 19.854 13.006 19.9062C13.0583 19.9584 13.1203 19.9999 13.1885 20.0281C13.2568 20.0564 13.3299 20.0709 13.4038 20.0709H13.8796V21.0186C13.8807 21.0925 13.9108 21.163 13.9634 21.2148C14.0161 21.2667 14.087 21.2957 14.1608 21.2957C14.2347 21.2957 14.3056 21.2667 14.3583 21.2148C14.4109 21.1629 14.441 21.0925 14.4421 21.0186V20.0709H14.9169C14.9909 20.0712 15.0641 20.0568 15.1325 20.0286C15.2009 20.0004 15.263 19.959 15.3153 19.9067C15.3675 19.8544 15.409 19.7923 15.4371 19.724C15.4653 19.6556 15.4797 19.5823 15.4794 19.5084V12.705C15.4795 12.6311 15.4649 12.5579 15.4367 12.4897C15.4084 12.4214 15.367 12.3594 15.3147 12.3072C15.2625 12.2549 15.2005 12.2135 15.1322 12.1852C15.064 12.157 14.9908 12.1425 14.9169 12.1425Z" fill="#C9A74E"/>
<path d="M18.5996 14.1028H18.1238V13.1558C18.1238 13.0812 18.0941 13.0096 18.0414 12.9569C17.9887 12.9041 17.9171 12.8745 17.8425 12.8745C17.7679 12.8745 17.6964 12.9041 17.6436 12.9569C17.5909 13.0096 17.5613 13.0812 17.5613 13.1558V14.1028H17.0864C17.0126 14.1028 16.9394 14.1174 16.8711 14.1456C16.8029 14.1739 16.7409 14.2153 16.6886 14.2676C16.6364 14.3198 16.595 14.3818 16.5667 14.4501C16.5384 14.5183 16.5239 14.5915 16.5239 14.6653V21.4688C16.5239 21.5427 16.5384 21.6158 16.5667 21.6841C16.595 21.7523 16.6364 21.8143 16.6886 21.8666C16.7409 21.9188 16.8029 21.9602 16.8711 21.9885C16.9394 22.0168 17.0126 22.0313 17.0864 22.0313H17.5613V22.9781C17.5624 23.052 17.5925 23.1224 17.6451 23.1743C17.6977 23.2261 17.7687 23.2552 17.8425 23.2552C17.9164 23.2552 17.9873 23.2261 18.0399 23.1743C18.0926 23.1224 18.1227 23.0519 18.1238 22.9781V22.0313H18.5996C18.7486 22.0309 18.8914 21.9714 18.9968 21.8661C19.1022 21.7607 19.1616 21.6178 19.1621 21.4688V14.6653C19.1616 14.5163 19.1022 14.3735 18.9968 14.2681C18.8914 14.1627 18.7486 14.1033 18.5996 14.1028Z" fill="#C9A74E"/>
<path d="M22.285 10.2667H21.8083V9.31885C21.8083 9.24426 21.7786 9.17272 21.7259 9.11997C21.6731 9.06723 21.6016 9.0376 21.527 9.0376C21.4524 9.0376 21.3809 9.06723 21.3281 9.11997C21.2754 9.17272 21.2458 9.24426 21.2458 9.31885V10.2667H20.769C20.6952 10.2666 20.622 10.2812 20.5538 10.3094C20.4855 10.3377 20.4235 10.3791 20.3712 10.4314C20.319 10.4836 20.2776 10.5456 20.2493 10.6139C20.2211 10.6821 20.2065 10.7553 20.2065 10.8292V17.6326C20.207 17.7816 20.2664 17.9245 20.3718 18.0299C20.4772 18.1353 20.62 18.1947 20.769 18.1951H21.2458V19.1412C21.2469 19.215 21.277 19.2855 21.3296 19.3374C21.3822 19.3892 21.4531 19.4183 21.527 19.4183C21.6009 19.4183 21.6718 19.3892 21.7244 19.3374C21.7771 19.2855 21.8072 19.215 21.8083 19.1412V18.1951H22.285C22.434 18.1947 22.5768 18.1353 22.6822 18.0299C22.7876 17.9245 22.847 17.7816 22.8475 17.6326V10.8292C22.8475 10.7553 22.833 10.6821 22.8047 10.6139C22.7764 10.5456 22.735 10.4836 22.6828 10.4314C22.6305 10.3791 22.5685 10.3377 22.5003 10.3094C22.432 10.2812 22.3589 10.2666 22.285 10.2667Z" fill="#C9A74E"/>
</svg>
