<svg width="32" height="33" viewBox="0 0 32 33" fill="none" xmlns="http://www.w3.org/2000/svg">
<rect y="0.912598" width="32" height="32" rx="16" fill="black" fill-opacity="0.01"/>
<path d="M22.7402 18.4686C22.2791 18.0075 21.5437 17.9763 21.0453 18.4L18.054 20.9239C17.9232 21.0298 17.7549 21.0921 17.5866 21.0921H15.0877C14.7574 21.0921 14.4895 20.8242 14.4895 20.4939C14.4895 20.1636 14.7574 19.8894 15.0877 19.8894H16.0038C16.7957 19.8894 17.3998 19.2496 17.3872 18.4935C17.381 17.7395 16.7579 17.1226 16.0038 17.1226H12.863C12.6013 17.1226 12.3521 17.2348 12.1714 17.4279L11.0621 18.6493C11.006 18.7116 10.9187 18.749 10.8315 18.749H9.81574C9.31863 18.749 8.88721 19.1435 8.88721 19.6838L8.8935 22.9866C8.8935 23.4976 9.31096 23.9151 9.82196 23.9151H18.1102C18.5214 23.9151 18.9202 23.7468 19.1944 23.4664L22.7402 20.2446C23.2325 19.7523 23.2325 18.9609 22.7402 18.4686Z" fill="#C9A74E"/>
<path d="M18.6604 15.343C18.6586 15.343 18.6566 15.343 18.6549 15.343C18.258 15.3398 17.9088 15.053 17.9121 14.674C17.9144 14.3957 17.6905 14.1688 17.4124 14.1665C17.411 14.1665 17.4098 14.1665 17.4084 14.1665C17.132 14.1665 16.9069 14.3893 16.9046 14.6659C16.8984 15.4432 17.4452 16.0705 18.1653 16.2741V16.6069C18.1653 16.8853 18.391 17.1104 18.6691 17.1104C18.9471 17.1104 19.1728 16.8853 19.1728 16.6069V16.2689C19.8852 16.0599 20.4104 15.4371 20.4165 14.6908C20.424 13.761 19.6398 13.0242 18.6951 13.0068C18.2753 13.0085 17.9295 12.714 17.9292 12.3424C17.9292 11.9761 18.2648 11.6775 18.6777 11.6775C19.0906 11.6775 19.4263 11.9761 19.4263 12.3424C19.4263 12.6208 19.652 12.8459 19.9301 12.8459C20.2081 12.8459 20.4338 12.6208 20.4338 12.3424C20.4338 11.5884 19.9033 10.9568 19.1815 10.7491V10.4136C19.1815 10.1353 18.9558 9.91016 18.6777 9.91016C18.3997 9.91016 18.174 10.1353 18.174 10.4136V10.7491C17.4522 10.9568 16.9217 11.5884 16.9217 12.3424C16.9217 13.2585 17.7003 14.0051 18.661 14.0137H18.6662C19.0663 14.017 19.4123 14.3071 19.4089 14.6827C19.406 15.0479 19.071 15.343 18.6604 15.343Z" fill="#C9A74E"/>
</svg>
