<svg width="32" height="33" viewBox="0 0 32 33" fill="none" xmlns="http://www.w3.org/2000/svg">
<rect y="0.912598" width="32" height="32" rx="16" fill="black" fill-opacity="0.01"/>
<path d="M15.9973 8.99121C16.1016 8.99121 16.186 8.90682 16.186 8.80253V8.23336C16.186 8.12907 16.1016 8.04468 15.9973 8.04468C15.893 8.04468 15.8086 8.12907 15.8086 8.23336V8.80253C15.8086 8.90682 15.893 8.99121 15.9973 8.99121Z" fill="#C9A74E"/>
<path d="M15.9973 24.834C15.893 24.834 15.8086 24.9184 15.8086 25.0227V25.5918C15.8086 25.6961 15.893 25.7805 15.9973 25.7805C16.1016 25.7805 16.186 25.6961 16.186 25.5918V25.0227C16.186 24.9184 16.1016 24.834 15.9973 24.834Z" fill="#C9A74E"/>
<path d="M10.1295 11.3111C10.1663 11.348 10.2146 11.3664 10.2629 11.3664C10.3112 11.3664 10.3594 11.348 10.3963 11.3111C10.47 11.2374 10.47 11.118 10.3963 11.0443L9.99386 10.6417C9.92016 10.568 9.80076 10.568 9.72706 10.6417C9.65336 10.7154 9.65336 10.8348 9.72706 10.9085L10.1295 11.3111Z" fill="#C9A74E"/>
<path d="M21.869 22.514C21.7953 22.4403 21.6759 22.4403 21.6022 22.514C21.5284 22.5877 21.5284 22.7071 21.6022 22.7808L22.0046 23.1832C22.0414 23.2201 22.0897 23.2385 22.138 23.2385C22.1862 23.2385 22.2345 23.2201 22.2714 23.1832C22.3451 23.1095 22.3451 22.9901 22.2714 22.9164L21.869 22.514Z" fill="#C9A74E"/>
<path d="M7.89048 16.7239H7.32149C7.2172 16.7239 7.13281 16.8083 7.13281 16.9126C7.13281 17.0168 7.2172 17.1012 7.32149 17.1012H7.89048C7.99477 17.1012 8.07916 17.0168 8.07916 16.9126C8.07916 16.8083 7.99477 16.7239 7.89048 16.7239Z" fill="#C9A74E"/>
<path d="M24.6799 16.7239H24.1106C24.0063 16.7239 23.9219 16.8083 23.9219 16.9126C23.9219 17.0168 24.0063 17.1012 24.1106 17.1012H24.6799C24.7842 17.1012 24.8686 17.0168 24.8686 16.9126C24.8686 16.8083 24.7842 16.7239 24.6799 16.7239Z" fill="#C9A74E"/>
<path d="M10.1295 22.514L9.72706 22.9164C9.65336 22.9901 9.65336 23.1095 9.72706 23.1832C9.76391 23.2201 9.81219 23.2385 9.86046 23.2385C9.90874 23.2385 9.95701 23.2201 9.99386 23.1832L10.3963 22.7808C10.47 22.7071 10.47 22.5877 10.3963 22.514C10.3226 22.4403 10.2032 22.4403 10.1295 22.514Z" fill="#C9A74E"/>
<path d="M21.7356 11.3669C21.7838 11.3669 21.8321 11.3485 21.869 11.3117L22.2714 10.9092C22.3451 10.8355 22.3451 10.7161 22.2714 10.6424C22.1977 10.5687 22.0783 10.5687 22.0046 10.6424L21.6022 11.0449C21.5284 11.1186 21.5284 11.238 21.6022 11.3117C21.639 11.3485 21.6873 11.3669 21.7356 11.3669Z" fill="#C9A74E"/>
<path d="M21.5385 13.5626C21.2663 13.0923 20.2979 13.1497 19.9161 12.7679C19.5344 12.3862 19.5918 11.4177 19.1214 11.1455C18.6577 10.8772 17.8489 11.4083 17.3192 11.2667C16.8072 11.1299 16.3737 10.2615 15.8186 10.2615C15.2636 10.2615 14.83 11.1299 14.3182 11.2667C13.7885 11.4083 12.9797 10.8771 12.516 11.1454C12.0456 11.4176 12.103 12.386 11.7213 12.7678C11.3396 13.1495 10.3711 13.0921 10.0989 13.5625C9.83058 14.0262 10.3617 14.835 10.2201 15.3647C10.0833 15.8766 9.21484 16.3102 9.21484 16.8652C9.21484 17.4203 10.0833 17.8538 10.2201 18.3657C10.3617 18.8953 9.83054 19.7041 10.0988 20.1678C10.371 20.6382 11.3394 20.5808 11.7212 20.9626C12.1029 21.3443 12.0454 22.3128 12.5159 22.585C12.9796 22.8533 13.7884 22.3222 14.3181 22.4638C14.83 22.6006 15.2635 23.469 15.8186 23.469C16.3736 23.469 16.8072 22.6006 17.3191 22.4638C17.8487 22.3222 18.6575 22.8533 19.1212 22.585C19.5916 22.3129 19.5342 21.3444 19.9159 20.9627C20.2977 20.581 21.2662 20.6384 21.5383 20.168C21.8067 19.7043 21.2756 18.8955 21.4171 18.3658C21.554 17.8539 22.4224 17.4203 22.4224 16.8652C22.4224 16.3102 21.554 15.8767 21.4172 15.3648C21.2756 14.8351 21.8067 14.0264 21.5385 13.5626ZM15.8185 20.796C13.6512 20.796 11.8879 19.0327 11.8879 16.8652C11.8879 14.6978 13.6512 12.9345 15.8185 12.9345C17.9861 12.9345 19.7494 14.6978 19.7494 16.8652C19.7494 19.0327 17.9861 20.796 15.8185 20.796Z" fill="#C9A74E"/>
<path d="M15.8188 13.312C13.8594 13.312 12.2656 14.906 12.2656 16.8654C12.2656 18.8248 13.8594 20.4188 15.8188 20.4188C17.7782 20.4188 19.3724 18.8248 19.3724 16.8654C19.3724 14.906 17.7782 13.312 15.8188 13.312ZM17.2435 16.0672L15.3803 17.9304C15.3435 17.9673 15.2952 17.9857 15.2469 17.9857C15.1986 17.9857 15.1504 17.9673 15.1135 17.9304L14.3942 17.2111C14.3205 17.1374 14.3205 17.018 14.3942 16.9443C14.4679 16.8706 14.5873 16.8706 14.661 16.9443L15.2469 17.5302L16.9767 15.8004C17.0504 15.7267 17.1698 15.7267 17.2435 15.8004C17.3172 15.8741 17.3172 15.9935 17.2435 16.0672Z" fill="#C9A74E"/>
</svg>
