<svg width="32" height="33" viewBox="0 0 32 33" fill="none" xmlns="http://www.w3.org/2000/svg">
<rect y="0.912598" width="32" height="32" rx="16" fill="black" fill-opacity="0.01"/>
<g clipPath="url(#clip0_13539_17814)">
<path d="M20.5454 15.7871H20.5162V13.7994C20.5162 11.3294 18.5139 9.3125 16.0293 9.3125H15.8539C13.8662 9.38558 12.2439 10.8033 11.7324 12.6448C11.557 13.2733 12.0393 13.8871 12.697 13.8871C13.1354 13.8871 13.5008 13.5802 13.6178 13.1709C13.8955 12.1771 14.7285 11.4025 15.8101 11.3002C15.8977 11.3002 15.9708 11.2856 16.0439 11.2856C17.4324 11.2856 18.5577 12.4109 18.5577 13.7994V15.8017L11.4547 15.8018C10.797 15.8018 10.2708 16.3279 10.2708 16.9856V23.3287C10.2708 23.9864 10.797 24.5125 11.4547 24.5125H20.5454C21.2031 24.5125 21.7293 23.9864 21.7293 23.3287V16.971C21.7293 16.3279 21.2031 15.7871 20.5454 15.7871ZM16.8769 21.5309C16.9061 21.6625 16.8039 21.794 16.6577 21.794H15.3277C15.1815 21.794 15.0793 21.6625 15.1085 21.5309L15.3569 20.274C15.1085 20.0548 14.9623 19.7333 15.0207 19.3679C15.0938 18.944 15.4446 18.6079 15.8831 18.5494H16C16.5407 18.5494 16.9792 18.9879 16.9792 19.5287C16.9792 19.8356 16.833 20.1133 16.6138 20.2886L16.8769 21.5309Z" fill="#C9A74E"/>
</g>
<defs>
<clipPath id="clip0_13539_17814">
<rect width="16" height="16" fill="white" transform="translate(8 8.9126)"/>
</clipPath>
</defs>
</svg>
