<svg width="32" height="33" viewBox="0 0 32 33" fill="none" xmlns="http://www.w3.org/2000/svg">
<rect y="0.912598" width="32" height="32" rx="16" fill="black" fill-opacity="0.01"/>
<g clipPath="url(#clip0_13539_17860)">
<path d="M9.01367 15.351C8.84033 15.1776 8.84033 14.8976 9.01367 14.7243L12.3692 11.3687C12.7648 10.9732 13.3737 10.8665 13.8803 11.1065L16.5292 12.351C16.6937 12.4309 16.8981 12.3954 17.0314 12.2621L20.3559 8.93762C20.5292 8.76428 20.8137 8.76428 20.987 8.93762C21.1603 9.11093 21.1603 9.39094 20.987 9.56428L17.6581 12.8932C17.2626 13.2887 16.6537 13.3954 16.147 13.1554L13.5026 11.911C13.3337 11.8309 13.1292 11.8665 12.9959 11.9954L9.64478 15.351C9.55588 15.4398 9.44477 15.4798 9.32924 15.4798C9.21368 15.4798 9.10257 15.4398 9.01367 15.351Z" fill="#C9A74E"/>
<path d="M14.4444 16.6179V22.129C14.4444 22.6223 14.0445 23.0179 13.5555 23.0179H12.6667C12.1778 23.0179 11.7778 22.6223 11.7778 22.129V16.6179C11.7778 16.129 12.1778 15.729 12.6667 15.729H13.5555C14.0445 15.729 14.4444 16.129 14.4444 16.6179Z" fill="#C9A74E"/>
<path d="M22 13.4978V22.1289C22 22.6222 21.6 23.0178 21.1111 23.0178H20.2222C19.7334 23.0178 19.3333 22.6222 19.3333 22.1289V13.4978C19.3333 13.0089 19.7334 12.6089 20.2222 12.6089H21.1111C21.6 12.6089 22 13.0089 22 13.4978Z" fill="#C9A74E"/>
<path d="M10.6667 20.591V22.1288C10.6667 22.6222 10.2667 23.0177 9.77778 23.0177H8.88889C8.40001 23.0177 8 22.6222 8 22.1288V20.591C8 20.1022 8.40001 19.7021 8.88889 19.7021H9.77778C10.2667 19.7021 10.6667 20.1022 10.6667 20.591Z" fill="#C9A74E"/>
<path d="M18.2222 18.1643V22.1287C18.2222 22.6221 17.8222 23.0176 17.3333 23.0176H16.4444C15.9556 23.0176 15.5555 22.6221 15.5555 22.1287V18.1643C15.5555 17.6754 15.9556 17.2754 16.4444 17.2754H17.3333C17.8222 17.2754 18.2222 17.6754 18.2222 18.1643Z" fill="#C9A74E"/>
</g>
<defs>
<clipPath id="clip0_13539_17860">
<rect width="16" height="16" fill="white" transform="translate(7 7.9126)"/>
</clipPath>
</defs>
</svg>
