<svg width="61" height="60" viewBox="0 0 61 60" fill="none" xmlns="http://www.w3.org/2000/svg">
<rect x="0.599976" width="60" height="60" rx="30" fill="black" fill-opacity="0.01"/>
<g clipPath="url(#clip0_14363_1543)">
<path fill-rule="evenodd" clip-rule="evenodd" d="M27.5168 15.7989C29.4577 14.8284 31.7423 14.8284 33.6833 15.7989L41.0935 19.5041C42.4458 20.1802 43.3 21.5623 43.3 23.0741V34.0279C43.3 36.4051 42.0754 38.6144 40.0597 39.8743L32.7155 44.4644C31.4212 45.2733 29.7788 45.2733 28.4845 44.4644L21.1403 39.8743C19.1246 38.6144 17.9 36.4051 17.9 34.0279V23.0741C17.9 21.5623 18.7542 20.1802 20.1064 19.5041L27.5168 15.7989ZM35.724 27.8554C36.1491 27.4303 36.1491 26.7411 35.724 26.316C35.2988 25.8909 34.6097 25.8909 34.1846 26.316L29.1486 31.3519L27.0155 29.2189C26.5903 28.7938 25.9011 28.7938 25.476 29.2189C25.0509 29.644 25.0509 30.3332 25.476 30.7583L28.3789 33.6611C28.583 33.8654 28.8599 33.98 29.1486 33.98C29.4373 33.98 29.7142 33.8654 29.9183 33.6611L35.724 27.8554Z" fill="white"/>
</g>
<defs>
<clipPath id="clip0_14363_1543">
<rect width="30" height="30" fill="white" transform="translate(15.6 15)"/>
</clipPath>
</defs>
</svg>
