<svg width="124" height="43" viewBox="0 0 124 43" fill="none" xmlns="http://www.w3.org/2000/svg">
<path d="M160.351 34.584H12.6533L0.769409 17.6069L12.6533 0.630341H160.351V34.584Z" fill="url(#paint0_linear_24344_29806)"/>
<path d="M160.351 34.584H12.6533L0.769409 17.6069L12.6533 0.630341H160.351V34.584Z" fill="url(#paint1_linear_24344_29806)"/>
<path d="M160.982 35.2139H12.3249L0 17.6069L12.3249 0H160.982V35.2139ZM12.9813 33.9536H159.721V1.26072H12.9813L1.53884 17.6069L12.9813 33.9536Z" fill="url(#paint2_linear_24344_29806)"/>
<path d="M24.064 13.004H31.26V14.516H25.814V17.134H30.854V18.562H25.814V21.488H31.358V23H24.064V13.004ZM34.6044 19.192L32.0984 15.762H34.0304L35.5424 17.988L37.1244 15.762H38.9724L36.5084 19.108L39.2804 23H37.3624L35.5284 20.326L33.7504 23H31.8744L34.6044 19.192ZM45.0639 18.184C44.9986 17.736 44.8166 17.4 44.5179 17.176C44.2286 16.9427 43.8599 16.826 43.4119 16.826C43.2066 16.826 42.9872 16.8633 42.7539 16.938C42.5206 17.0033 42.3059 17.134 42.1099 17.33C41.9139 17.5167 41.7506 17.7827 41.6199 18.128C41.4892 18.464 41.4239 18.9073 41.4239 19.458C41.4239 19.7567 41.4566 20.0553 41.5219 20.354C41.5966 20.6527 41.7086 20.9187 41.8579 21.152C42.0166 21.3853 42.2172 21.5767 42.4599 21.726C42.7026 21.866 42.9966 21.936 43.3419 21.936C43.8086 21.936 44.1912 21.7913 44.4899 21.502C44.7979 21.2127 44.9892 20.8067 45.0639 20.284H46.6599C46.5106 21.2267 46.1512 21.95 45.5819 22.454C45.0219 22.9487 44.2752 23.196 43.3419 23.196C42.7726 23.196 42.2686 23.1027 41.8299 22.916C41.4006 22.72 41.0366 22.4587 40.7379 22.132C40.4392 21.796 40.2106 21.3993 40.0519 20.942C39.9026 20.4847 39.8279 19.99 39.8279 19.458C39.8279 18.9167 39.9026 18.408 40.0519 17.932C40.2012 17.456 40.4252 17.0453 40.7239 16.7C41.0226 16.3453 41.3912 16.07 41.8299 15.874C42.2779 15.6687 42.8006 15.566 43.3979 15.566C43.8179 15.566 44.2146 15.622 44.5879 15.734C44.9706 15.8367 45.3066 15.9953 45.5959 16.21C45.8946 16.4247 46.1372 16.6953 46.3239 17.022C46.5106 17.3487 46.6226 17.736 46.6599 18.184H45.0639ZM47.9992 13.004H49.5952V23H47.9992V13.004ZM57.6901 23H56.1221V21.992H56.0941C55.8981 22.356 55.6041 22.65 55.2121 22.874C54.8295 23.0887 54.4375 23.196 54.0361 23.196C53.0841 23.196 52.3935 22.9627 51.9641 22.496C51.5441 22.02 51.3341 21.306 51.3341 20.354V15.762H52.9301V20.2C52.9301 20.8347 53.0515 21.2827 53.2941 21.544C53.5368 21.8053 53.8775 21.936 54.3161 21.936C54.6521 21.936 54.9321 21.8847 55.1561 21.782C55.3801 21.6793 55.5621 21.544 55.7021 21.376C55.8421 21.1987 55.9401 20.9887 55.9961 20.746C56.0615 20.5033 56.0941 20.242 56.0941 19.962V15.762H57.6901V23ZM60.5772 20.676C60.6239 21.1427 60.8012 21.4693 61.1092 21.656C61.4172 21.8427 61.7859 21.936 62.2152 21.936C62.3645 21.936 62.5325 21.9267 62.7192 21.908C62.9152 21.88 63.0972 21.8333 63.2652 21.768C63.4332 21.7027 63.5685 21.6093 63.6712 21.488C63.7832 21.3573 63.8345 21.1893 63.8252 20.984C63.8159 20.7787 63.7412 20.6107 63.6012 20.48C63.4612 20.3493 63.2792 20.2467 63.0552 20.172C62.8405 20.088 62.5932 20.018 62.3132 19.962C62.0332 19.906 61.7485 19.8453 61.4592 19.78C61.1605 19.7147 60.8712 19.6353 60.5912 19.542C60.3205 19.4487 60.0732 19.3227 59.8492 19.164C59.6345 19.0053 59.4619 18.8047 59.3312 18.562C59.2005 18.31 59.1352 18.002 59.1352 17.638C59.1352 17.246 59.2285 16.9193 59.4152 16.658C59.6112 16.3873 59.8539 16.1727 60.1432 16.014C60.4419 15.846 60.7685 15.7293 61.1232 15.664C61.4872 15.5987 61.8325 15.566 62.1592 15.566C62.5325 15.566 62.8872 15.608 63.2232 15.692C63.5685 15.7667 63.8765 15.8927 64.1472 16.07C64.4272 16.2473 64.6559 16.4807 64.8332 16.77C65.0199 17.05 65.1365 17.3907 65.1832 17.792H63.5172C63.4425 17.4093 63.2652 17.1527 62.9852 17.022C62.7145 16.8913 62.4019 16.826 62.0472 16.826C61.9352 16.826 61.7999 16.8353 61.6412 16.854C61.4919 16.8727 61.3472 16.91 61.2072 16.966C61.0765 17.0127 60.9645 17.0873 60.8712 17.19C60.7779 17.2833 60.7312 17.4093 60.7312 17.568C60.7312 17.764 60.7965 17.9227 60.9272 18.044C61.0672 18.1653 61.2445 18.268 61.4592 18.352C61.6832 18.4267 61.9352 18.492 62.2152 18.548C62.4952 18.604 62.7845 18.6647 63.0832 18.73C63.3725 18.7953 63.6572 18.8747 63.9372 18.968C64.2172 19.0613 64.4645 19.1873 64.6792 19.346C64.9032 19.5047 65.0805 19.7053 65.2112 19.948C65.3512 20.1907 65.4212 20.4893 65.4212 20.844C65.4212 21.2733 65.3232 21.6373 65.1272 21.936C64.9312 22.2347 64.6745 22.4773 64.3572 22.664C64.0492 22.8507 63.7039 22.986 63.3212 23.07C62.9385 23.154 62.5605 23.196 62.1872 23.196C61.7299 23.196 61.3052 23.1447 60.9132 23.042C60.5305 22.9393 60.1945 22.7853 59.9052 22.58C59.6252 22.3653 59.4012 22.104 59.2332 21.796C59.0745 21.4787 58.9905 21.1053 58.9812 20.676H60.5772ZM66.675 13.004H68.271V14.516H66.675V13.004ZM66.675 15.762H68.271V23H66.675V15.762ZM69.2959 15.762H71.0319L72.8659 21.32H72.8939L74.6579 15.762H76.3099L73.7199 23H71.9279L69.2959 15.762ZM82.2397 18.744C82.221 18.492 82.165 18.2493 82.0717 18.016C81.9877 17.7827 81.8664 17.582 81.7077 17.414C81.5584 17.2367 81.3717 17.0967 81.1477 16.994C80.933 16.882 80.6904 16.826 80.4197 16.826C80.1397 16.826 79.883 16.8773 79.6497 16.98C79.4257 17.0733 79.2297 17.2087 79.0617 17.386C78.903 17.554 78.7724 17.7547 78.6697 17.988C78.5764 18.2213 78.525 18.4733 78.5157 18.744H82.2397ZM78.5157 19.794C78.5157 20.074 78.553 20.3447 78.6277 20.606C78.7117 20.8673 78.833 21.096 78.9917 21.292C79.1504 21.488 79.351 21.6467 79.5937 21.768C79.8364 21.88 80.1257 21.936 80.4617 21.936C80.9284 21.936 81.3017 21.838 81.5817 21.642C81.871 21.4367 82.0857 21.1333 82.2257 20.732H83.7377C83.6537 21.124 83.509 21.474 83.3037 21.782C83.0984 22.09 82.851 22.3513 82.5617 22.566C82.2724 22.7713 81.9457 22.9253 81.5817 23.028C81.227 23.14 80.8537 23.196 80.4617 23.196C79.8924 23.196 79.3884 23.1027 78.9497 22.916C78.511 22.7293 78.1377 22.468 77.8297 22.132C77.531 21.796 77.3024 21.3947 77.1437 20.928C76.9944 20.4613 76.9197 19.948 76.9197 19.388C76.9197 18.8747 76.999 18.3893 77.1577 17.932C77.3257 17.4653 77.559 17.0593 77.8577 16.714C78.1657 16.3593 78.5344 16.0793 78.9637 15.874C79.393 15.6687 79.8784 15.566 80.4197 15.566C80.989 15.566 81.4977 15.6873 81.9457 15.93C82.403 16.1633 82.781 16.476 83.0797 16.868C83.3784 17.26 83.593 17.7127 83.7237 18.226C83.8637 18.73 83.901 19.2527 83.8357 19.794H78.5157ZM89.1695 13.004H93.3135C94.0788 13.004 94.7415 13.1347 95.3015 13.396C95.8615 13.6573 96.3188 14.0167 96.6735 14.474C97.0281 14.922 97.2895 15.4493 97.4575 16.056C97.6348 16.6627 97.7235 17.3113 97.7235 18.002C97.7235 18.6927 97.6348 19.3413 97.4575 19.948C97.2895 20.5547 97.0281 21.0867 96.6735 21.544C96.3188 21.992 95.8615 22.3467 95.3015 22.608C94.7415 22.8693 94.0788 23 93.3135 23H89.1695V13.004ZM90.9195 21.572H92.6415C93.3228 21.572 93.8781 21.4833 94.3075 21.306C94.7461 21.1193 95.0868 20.8673 95.3295 20.55C95.5815 20.2233 95.7495 19.8453 95.8335 19.416C95.9268 18.9773 95.9735 18.506 95.9735 18.002C95.9735 17.498 95.9268 17.0313 95.8335 16.602C95.7495 16.1633 95.5815 15.7853 95.3295 15.468C95.0868 15.1413 94.7461 14.8893 94.3075 14.712C93.8781 14.5253 93.3228 14.432 92.6415 14.432H90.9195V21.572ZM104.019 18.744C104 18.492 103.944 18.2493 103.851 18.016C103.767 17.7827 103.646 17.582 103.487 17.414C103.338 17.2367 103.151 17.0967 102.927 16.994C102.712 16.882 102.47 16.826 102.199 16.826C101.919 16.826 101.662 16.8773 101.429 16.98C101.205 17.0733 101.009 17.2087 100.841 17.386C100.682 17.554 100.552 17.7547 100.449 17.988C100.356 18.2213 100.304 18.4733 100.295 18.744H104.019ZM100.295 19.794C100.295 20.074 100.332 20.3447 100.407 20.606C100.491 20.8673 100.612 21.096 100.771 21.292C100.93 21.488 101.13 21.6467 101.373 21.768C101.616 21.88 101.905 21.936 102.241 21.936C102.708 21.936 103.081 21.838 103.361 21.642C103.65 21.4367 103.865 21.1333 104.005 20.732H105.517C105.433 21.124 105.288 21.474 105.083 21.782C104.878 22.09 104.63 22.3513 104.341 22.566C104.052 22.7713 103.725 22.9253 103.361 23.028C103.006 23.14 102.633 23.196 102.241 23.196C101.672 23.196 101.168 23.1027 100.729 22.916C100.29 22.7293 99.917 22.468 99.609 22.132C99.3103 21.796 99.0817 21.3947 98.923 20.928C98.7737 20.4613 98.699 19.948 98.699 19.388C98.699 18.8747 98.7783 18.3893 98.937 17.932C99.105 17.4653 99.3383 17.0593 99.637 16.714C99.945 16.3593 100.314 16.0793 100.743 15.874C101.172 15.6687 101.658 15.566 102.199 15.566C102.768 15.566 103.277 15.6873 103.725 15.93C104.182 16.1633 104.56 16.476 104.859 16.868C105.158 17.26 105.372 17.7127 105.503 18.226C105.643 18.73 105.68 19.2527 105.615 19.794H100.295ZM112.89 21.39C112.89 21.586 112.914 21.726 112.96 21.81C113.016 21.894 113.119 21.936 113.268 21.936C113.315 21.936 113.371 21.936 113.436 21.936C113.502 21.936 113.576 21.9267 113.66 21.908V23.014C113.604 23.0327 113.53 23.0513 113.436 23.07C113.352 23.098 113.264 23.1213 113.17 23.14C113.077 23.1587 112.984 23.1727 112.89 23.182C112.797 23.1913 112.718 23.196 112.652 23.196C112.326 23.196 112.055 23.1307 111.84 23C111.626 22.8693 111.486 22.6407 111.42 22.314C111.103 22.622 110.711 22.846 110.244 22.986C109.787 23.126 109.344 23.196 108.914 23.196C108.588 23.196 108.275 23.1493 107.976 23.056C107.678 22.972 107.412 22.846 107.178 22.678C106.954 22.5007 106.772 22.2813 106.632 22.02C106.502 21.7493 106.436 21.4367 106.436 21.082C106.436 20.634 106.516 20.27 106.674 19.99C106.842 19.71 107.057 19.4907 107.318 19.332C107.589 19.1733 107.888 19.0613 108.214 18.996C108.55 18.9213 108.886 18.8653 109.222 18.828C109.512 18.772 109.787 18.7347 110.048 18.716C110.31 18.688 110.538 18.646 110.734 18.59C110.94 18.534 111.098 18.45 111.21 18.338C111.332 18.2167 111.392 18.0393 111.392 17.806C111.392 17.6007 111.341 17.4327 111.238 17.302C111.145 17.1713 111.024 17.0733 110.874 17.008C110.734 16.9333 110.576 16.8867 110.398 16.868C110.221 16.84 110.053 16.826 109.894 16.826C109.446 16.826 109.078 16.9193 108.788 17.106C108.499 17.2927 108.336 17.582 108.298 17.974H106.702C106.73 17.5073 106.842 17.12 107.038 16.812C107.234 16.504 107.482 16.2567 107.78 16.07C108.088 15.8833 108.434 15.7527 108.816 15.678C109.199 15.6033 109.591 15.566 109.992 15.566C110.347 15.566 110.697 15.6033 111.042 15.678C111.388 15.7527 111.696 15.874 111.966 16.042C112.246 16.21 112.47 16.4293 112.638 16.7C112.806 16.9613 112.89 17.2833 112.89 17.666V21.39ZM111.294 19.374C111.052 19.5327 110.753 19.6307 110.398 19.668C110.044 19.696 109.689 19.7427 109.334 19.808C109.166 19.836 109.003 19.878 108.844 19.934C108.686 19.9807 108.546 20.0507 108.424 20.144C108.303 20.228 108.205 20.3447 108.13 20.494C108.065 20.634 108.032 20.8067 108.032 21.012C108.032 21.1893 108.084 21.3387 108.186 21.46C108.289 21.5813 108.41 21.6793 108.55 21.754C108.7 21.8193 108.858 21.866 109.026 21.894C109.204 21.922 109.362 21.936 109.502 21.936C109.68 21.936 109.871 21.9127 110.076 21.866C110.282 21.8193 110.473 21.74 110.65 21.628C110.837 21.516 110.991 21.376 111.112 21.208C111.234 21.0307 111.294 20.816 111.294 20.564V19.374ZM114.65 13.004H116.246V23H114.65V13.004Z" fill="white"/>
<defs>
<linearGradient id="paint0_linear_24344_29806" x1="0.769363" y1="17.6071" x2="160.351" y2="17.6071" gradientUnits="userSpaceOnUse">
<stop stop-color="#A57D24"/>
<stop offset="0.2112" stop-color="#D8BE62"/>
<stop offset="0.328" stop-color="#F1DD80"/>
<stop offset="0.524" stop-color="#FBF2A8"/>
<stop offset="0.7298" stop-color="#F1DD80"/>
<stop offset="1" stop-color="#A57D24"/>
</linearGradient>
<linearGradient id="paint1_linear_24344_29806" x1="0.769409" y1="17.6072" x2="160.351" y2="17.6072" gradientUnits="userSpaceOnUse">
<stop stop-color="#FFD89E"/>
<stop offset="1" stop-color="#B88609"/>
</linearGradient>
<linearGradient id="paint2_linear_24344_29806" x1="80.4907" y1="35.2141" x2="80.4907" y2="0.000184704" gradientUnits="userSpaceOnUse">
<stop stop-color="#F1DD80"/>
<stop offset="0.2038" stop-color="#A57D24"/>
<stop offset="0.2787" stop-color="#C5A54B"/>
<stop offset="0.3493" stop-color="#DDC468"/>
<stop offset="0.4094" stop-color="#ECD67A"/>
<stop offset="0.4517" stop-color="#F1DD80"/>
<stop offset="0.5189" stop-color="#FBF2A8"/>
<stop offset="0.5934" stop-color="#F1DD80"/>
<stop offset="0.8428" stop-color="#A57D24"/>
<stop offset="0.944" stop-color="#D8BE62"/>
<stop offset="1" stop-color="#F1DD80"/>
</linearGradient>
</defs>
</svg>
