<svg width="145" height="43" viewBox="0 0 145 43" fill="none" xmlns="http://www.w3.org/2000/svg">
<path d="M160.351 17.6072C160.351 26.9832 152.75 34.584 143.374 34.584H21.4923C15.9525 34.584 10.7611 31.881 7.58424 27.3426C3.49242 21.4971 3.49242 13.7168 7.58431 7.8714C10.7612 3.33316 15.9524 0.630341 21.4921 0.630341H143.374C152.75 0.630341 160.351 8.23112 160.351 17.6072Z" fill="url(#paint0_linear_24521_45368)"/>
<path d="M160.351 17.6072C160.351 26.9832 152.75 34.584 143.374 34.584H21.4923C15.9525 34.584 10.7611 31.881 7.58424 27.3426C3.49242 21.4971 3.49242 13.7168 7.58431 7.8714C10.7612 3.33316 15.9524 0.630341 21.4921 0.630341H143.374C152.75 0.630341 160.351 8.23112 160.351 17.6072Z" fill="url(#paint1_linear_24521_45368)"/>
<path d="M160.982 17.6069C160.982 27.331 153.099 35.2139 143.375 35.2139H21.492C15.7466 35.2139 10.3626 32.4107 7.06784 27.7039C2.82414 21.6414 2.82414 13.5724 7.06784 7.51002C10.3626 2.80322 15.7466 0 21.492 0H143.375C153.099 0 160.982 7.8829 160.982 17.6069ZM8.10056 26.981C11.1595 31.351 16.1581 33.9536 21.4923 33.9536H143.374C152.402 33.9536 159.721 26.6351 159.721 17.6072C159.721 8.57927 152.402 1.26072 143.374 1.26072H21.4921C16.158 1.26072 11.1595 3.86322 8.10064 8.233C4.16078 13.8613 4.16078 21.3526 8.10056 26.981Z" fill="url(#paint2_linear_24521_45368)"/>
<path d="M23.3104 11.8365H32.1728V13.6987H25.4657V16.9229H31.6728V18.6816H25.4657V22.2852H32.2935V24.1474H23.3104V11.8365ZM36.2917 19.4575L33.2053 15.2332H35.5848L37.4469 17.9747L39.3953 15.2332H41.6712L38.6366 19.3541L42.0505 24.1474H39.6884L37.4297 20.8541L35.2399 24.1474H32.9295L36.2917 19.4575ZM49.1734 18.2161C49.093 17.6643 48.8688 17.2505 48.501 16.9747C48.1446 16.6873 47.6906 16.5436 47.1389 16.5436C46.886 16.5436 46.6158 16.5896 46.3285 16.6815C46.0411 16.762 45.7767 16.9229 45.5353 17.1643C45.294 17.3942 45.0928 17.7218 44.9319 18.1471C44.7709 18.5609 44.6905 19.1069 44.6905 19.7851C44.6905 20.1529 44.7307 20.5208 44.8112 20.8886C44.9031 21.2564 45.0411 21.584 45.225 21.8714C45.4204 22.1588 45.6675 22.3944 45.9664 22.5783C46.2653 22.7508 46.6273 22.837 47.0526 22.837C47.6274 22.837 48.0987 22.6588 48.4665 22.3025C48.8458 21.9461 49.0815 21.4461 49.1734 20.8024H51.139C50.9551 21.9634 50.5126 22.8542 49.8114 23.4749C49.1217 24.0841 48.2021 24.3888 47.0526 24.3888C46.3515 24.3888 45.7308 24.2738 45.1905 24.0439C44.6617 23.8025 44.2134 23.4807 43.8456 23.0784C43.4778 22.6645 43.1962 22.176 43.0008 21.6128C42.8168 21.0495 42.7249 20.4403 42.7249 19.7851C42.7249 19.1184 42.8168 18.492 43.0008 17.9057C43.1847 17.3195 43.4605 16.8137 43.8284 16.3884C44.1962 15.9516 44.6502 15.6125 45.1905 15.3711C45.7422 15.1183 46.386 14.9918 47.1216 14.9918C47.6389 14.9918 48.1274 15.0608 48.5872 15.1987C49.0585 15.3252 49.4723 15.5206 49.8286 15.7849C50.1965 16.0493 50.4953 16.3827 50.7252 16.785C50.9551 17.1873 51.093 17.6643 51.139 18.2161H49.1734ZM52.7885 11.8365H54.7541V24.1474H52.7885V11.8365ZM64.7236 24.1474H62.7925V22.9059H62.758C62.5167 23.3542 62.1546 23.7163 61.6718 23.9922C61.2005 24.2566 60.7177 24.3888 60.2235 24.3888C59.051 24.3888 58.2004 24.1014 57.6716 23.5267C57.1544 22.9404 56.8957 22.0611 56.8957 20.8886V15.2332H58.8613V20.6989C58.8613 21.4806 59.0108 22.0323 59.3096 22.3542C59.6085 22.676 60.028 22.837 60.5683 22.837C60.9821 22.837 61.327 22.7737 61.6028 22.6473C61.8787 22.5209 62.1028 22.3542 62.2753 22.1473C62.4477 21.9289 62.5684 21.6703 62.6374 21.3714C62.7178 21.0725 62.758 20.7507 62.758 20.4058V15.2332H64.7236V24.1474ZM68.2793 21.2852C68.3368 21.8599 68.5552 22.2622 68.9345 22.4921C69.3138 22.722 69.7679 22.837 70.2966 22.837C70.4805 22.837 70.6874 22.8255 70.9173 22.8025C71.1587 22.768 71.3829 22.7105 71.5898 22.6301C71.7967 22.5496 71.9634 22.4347 72.0898 22.2852C72.2277 22.1243 72.291 21.9174 72.2795 21.6645C72.268 21.4116 72.176 21.2047 72.0036 21.0438C71.8312 20.8829 71.607 20.7564 71.3311 20.6645C71.0668 20.561 70.7622 20.4748 70.4173 20.4058C70.0725 20.3369 69.7219 20.2621 69.3655 20.1817C68.9977 20.1012 68.6414 20.0035 68.2965 19.8886C67.9632 19.7736 67.6586 19.6184 67.3827 19.423C67.1183 19.2276 66.9057 18.9805 66.7447 18.6816C66.5838 18.3713 66.5034 17.9919 66.5034 17.5436C66.5034 17.0609 66.6183 16.6585 66.8482 16.3367C67.0896 16.0033 67.3885 15.739 67.7448 15.5436C68.1126 15.3367 68.5149 15.193 68.9517 15.1125C69.4 15.032 69.8253 14.9918 70.2277 14.9918C70.6874 14.9918 71.1242 15.0435 71.5381 15.147C71.9634 15.2389 72.3427 15.3941 72.676 15.6125C73.0209 15.8309 73.3025 16.1183 73.5209 16.4746C73.7508 16.8195 73.8945 17.239 73.9519 17.7333H71.9001C71.8082 17.262 71.5898 16.9459 71.2449 16.785C70.9116 16.6241 70.5265 16.5436 70.0897 16.5436C69.9518 16.5436 69.7851 16.5551 69.5897 16.5781C69.4058 16.6011 69.2276 16.6471 69.0552 16.716C68.8943 16.7735 68.7563 16.8655 68.6414 16.9919C68.5264 17.1068 68.469 17.262 68.469 17.4574C68.469 17.6988 68.5494 17.8942 68.7103 18.0437C68.8828 18.1931 69.1012 18.3195 69.3655 18.423C69.6414 18.5149 69.9518 18.5954 70.2966 18.6644C70.6415 18.7333 70.9978 18.8081 71.3656 18.8885C71.722 18.969 72.0726 19.0667 72.4174 19.1816C72.7622 19.2966 73.0669 19.4518 73.3312 19.6472C73.6071 19.8426 73.8255 20.0897 73.9864 20.3886C74.1589 20.6875 74.2451 21.0553 74.2451 21.4921C74.2451 22.0208 74.1244 22.4691 73.883 22.837C73.6416 23.2048 73.3255 23.5037 72.9347 23.7336C72.5553 23.9635 72.13 24.1301 71.6587 24.2336C71.1875 24.337 70.7219 24.3888 70.2621 24.3888C69.6989 24.3888 69.1759 24.3255 68.6931 24.1991C68.2218 24.0727 67.808 23.883 67.4517 23.6301C67.1068 23.3657 66.831 23.0439 66.6241 22.6645C66.4286 22.2737 66.3252 21.8139 66.3137 21.2852H68.2793ZM75.7892 11.8365H77.7548V13.6987H75.7892V11.8365ZM75.7892 15.2332H77.7548V24.1474H75.7892V15.2332ZM79.0171 15.2332H81.1551L83.4138 22.0783H83.4483L85.6208 15.2332H87.6554L84.4656 24.1474H82.2586L79.0171 15.2332ZM94.9584 18.9058C94.9354 18.5954 94.8664 18.2965 94.7514 18.0092C94.648 17.7218 94.4986 17.4747 94.3032 17.2678C94.1192 17.0494 93.8893 16.8769 93.6135 16.7505C93.3491 16.6126 93.0502 16.5436 92.7169 16.5436C92.372 16.5436 92.0559 16.6068 91.7686 16.7333C91.4927 16.8482 91.2513 17.0149 91.0444 17.2333C90.849 17.4402 90.6881 17.6873 90.5616 17.9747C90.4467 18.2621 90.3834 18.5724 90.372 18.9058H94.9584ZM90.372 20.1989C90.372 20.5438 90.4179 20.8771 90.5099 21.199C90.6133 21.5208 90.7628 21.8024 90.9582 22.0438C91.1536 22.2852 91.4007 22.4806 91.6996 22.6301C91.9985 22.768 92.3548 22.837 92.7686 22.837C93.3433 22.837 93.8031 22.7163 94.148 22.4749C94.5043 22.222 94.7687 21.8484 94.9411 21.3541H96.8033C96.6998 21.8369 96.5216 22.268 96.2688 22.6473C96.0159 23.0266 95.7113 23.3485 95.3549 23.6129C94.9986 23.8657 94.5963 24.0554 94.148 24.1819C93.7112 24.3198 93.2514 24.3888 92.7686 24.3888C92.0674 24.3888 91.4467 24.2738 90.9065 24.0439C90.3662 23.814 89.9064 23.4922 89.5271 23.0784C89.1593 22.6645 88.8776 22.1703 88.6822 21.5955C88.4983 21.0208 88.4064 20.3886 88.4064 19.6989C88.4064 19.0667 88.5041 18.469 88.6995 17.9057C88.9064 17.331 89.1937 16.831 89.5616 16.4057C89.9409 15.9689 90.3949 15.624 90.9237 15.3711C91.4525 15.1183 92.0502 14.9918 92.7169 14.9918C93.4181 14.9918 94.0445 15.1412 94.5963 15.4401C95.1595 15.7275 95.625 16.1125 95.9929 16.5953C96.3607 17.0781 96.6251 17.6356 96.786 18.2678C96.9584 18.8885 97.0044 19.5322 96.924 20.1989H90.372ZM103.493 11.8365H108.597C109.539 11.8365 110.355 11.9974 111.045 12.3193C111.735 12.6411 112.298 13.0837 112.735 13.6469C113.171 14.1987 113.493 14.8481 113.7 15.5953C113.919 16.3424 114.028 17.1413 114.028 17.9919C114.028 18.8425 113.919 19.6414 113.7 20.3886C113.493 21.1357 113.171 21.7909 112.735 22.3542C112.298 22.9059 111.735 23.3427 111.045 23.6646C110.355 23.9864 109.539 24.1474 108.597 24.1474H103.493V11.8365ZM105.648 22.3887H107.769C108.608 22.3887 109.292 22.2795 109.821 22.0611C110.361 21.8312 110.781 21.5208 111.079 21.13C111.39 20.7277 111.597 20.2621 111.7 19.7334C111.815 19.1931 111.873 18.6127 111.873 17.9919C111.873 17.3712 111.815 16.7965 111.7 16.2677C111.597 15.7275 111.39 15.2619 111.079 14.8711C110.781 14.4688 110.361 14.1584 109.821 13.94C109.292 13.7101 108.608 13.5952 107.769 13.5952H105.648V22.3887ZM121.781 18.9058C121.758 18.5954 121.689 18.2965 121.574 18.0092C121.471 17.7218 121.321 17.4747 121.126 17.2678C120.942 17.0494 120.712 16.8769 120.436 16.7505C120.172 16.6126 119.873 16.5436 119.54 16.5436C119.195 16.5436 118.879 16.6068 118.591 16.7333C118.316 16.8482 118.074 17.0149 117.867 17.2333C117.672 17.4402 117.511 17.6873 117.385 17.9747C117.27 18.2621 117.206 18.5724 117.195 18.9058H121.781ZM117.195 20.1989C117.195 20.5438 117.241 20.8771 117.333 21.199C117.436 21.5208 117.586 21.8024 117.781 22.0438C117.977 22.2852 118.224 22.4806 118.523 22.6301C118.821 22.768 119.178 22.837 119.592 22.837C120.166 22.837 120.626 22.7163 120.971 22.4749C121.327 22.222 121.592 21.8484 121.764 21.3541H123.626C123.523 21.8369 123.345 22.268 123.092 22.6473C122.839 23.0266 122.534 23.3485 122.178 23.6129C121.822 23.8657 121.419 24.0554 120.971 24.1819C120.534 24.3198 120.074 24.3888 119.592 24.3888C118.89 24.3888 118.27 24.2738 117.729 24.0439C117.189 23.814 116.729 23.4922 116.35 23.0784C115.982 22.6645 115.701 22.1703 115.505 21.5955C115.321 21.0208 115.229 20.3886 115.229 19.6989C115.229 19.0667 115.327 18.469 115.522 17.9057C115.729 17.331 116.017 16.831 116.384 16.4057C116.764 15.9689 117.218 15.624 117.747 15.3711C118.275 15.1183 118.873 14.9918 119.54 14.9918C120.241 14.9918 120.867 15.1412 121.419 15.4401C121.982 15.7275 122.448 16.1125 122.816 16.5953C123.184 17.0781 123.448 17.6356 123.609 18.2678C123.781 18.8885 123.827 19.5322 123.747 20.1989H117.195ZM132.707 22.1645C132.707 22.4059 132.736 22.5783 132.793 22.6818C132.862 22.7852 132.989 22.837 133.173 22.837C133.23 22.837 133.299 22.837 133.379 22.837C133.46 22.837 133.552 22.8255 133.655 22.8025V24.1646C133.586 24.1876 133.494 24.2106 133.379 24.2336C133.276 24.2681 133.167 24.2968 133.052 24.3198C132.937 24.3428 132.822 24.36 132.707 24.3715C132.592 24.383 132.494 24.3888 132.414 24.3888C132.012 24.3888 131.678 24.3083 131.414 24.1474C131.149 23.9864 130.977 23.7048 130.897 23.3025C130.506 23.6818 130.023 23.9577 129.448 24.1301C128.885 24.3025 128.339 24.3888 127.81 24.3888C127.408 24.3888 127.023 24.3313 126.655 24.2163C126.287 24.1129 125.96 23.9577 125.672 23.7508C125.396 23.5324 125.172 23.2623 125 22.9404C124.839 22.6071 124.758 22.222 124.758 21.7852C124.758 21.2335 124.856 20.7852 125.051 20.4403C125.258 20.0955 125.523 19.8253 125.845 19.6299C126.178 19.4345 126.546 19.2966 126.948 19.2161C127.362 19.1242 127.776 19.0552 128.19 19.0092C128.546 18.9403 128.885 18.8943 129.207 18.8713C129.529 18.8368 129.81 18.7851 130.052 18.7161C130.305 18.6471 130.5 18.5437 130.638 18.4057C130.787 18.2563 130.862 18.0379 130.862 17.7505C130.862 17.4977 130.799 17.2908 130.672 17.1298C130.557 16.9689 130.408 16.8482 130.224 16.7677C130.052 16.6758 129.856 16.6183 129.638 16.5953C129.419 16.5608 129.213 16.5436 129.017 16.5436C128.465 16.5436 128.011 16.6585 127.655 16.8884C127.299 17.1183 127.098 17.4747 127.052 17.9575H125.086C125.12 17.3827 125.258 16.9057 125.5 16.5264C125.741 16.147 126.046 15.8424 126.414 15.6125C126.793 15.3826 127.218 15.2217 127.69 15.1297C128.161 15.0378 128.644 14.9918 129.138 14.9918C129.575 14.9918 130.006 15.0378 130.431 15.1297C130.856 15.2217 131.236 15.3711 131.569 15.578C131.914 15.7849 132.19 16.0551 132.397 16.3884C132.604 16.7103 132.707 17.1068 132.707 17.5781V22.1645ZM130.741 19.6817C130.443 19.8771 130.075 19.9978 129.638 20.0437C129.201 20.0782 128.764 20.1357 128.327 20.2162C128.121 20.2507 127.919 20.3024 127.724 20.3713C127.529 20.4288 127.356 20.515 127.207 20.63C127.057 20.7334 126.937 20.8771 126.845 21.061C126.764 21.2335 126.724 21.4461 126.724 21.699C126.724 21.9174 126.787 22.1013 126.914 22.2507C127.04 22.4002 127.19 22.5209 127.362 22.6128C127.546 22.6933 127.741 22.7508 127.948 22.7852C128.167 22.8197 128.362 22.837 128.534 22.837C128.753 22.837 128.988 22.8082 129.241 22.7508C129.494 22.6933 129.73 22.5956 129.948 22.4576C130.178 22.3197 130.368 22.1473 130.517 21.9404C130.667 21.722 130.741 21.4576 130.741 21.1472V19.6817ZM134.874 11.8365H136.839V24.1474H134.874V11.8365Z" fill="white"/>
<defs>
<linearGradient id="paint0_linear_24521_45368" x1="0.769241" y1="17.6071" x2="160.351" y2="17.6071" gradientUnits="userSpaceOnUse">
<stop stop-color="#A57D24"/>
<stop offset="0.2112" stop-color="#D8BE62"/>
<stop offset="0.328" stop-color="#F1DD80"/>
<stop offset="0.524" stop-color="#FBF2A8"/>
<stop offset="0.7298" stop-color="#F1DD80"/>
<stop offset="1" stop-color="#A57D24"/>
</linearGradient>
<linearGradient id="paint1_linear_24521_45368" x1="5.80446" y1="17.6072" x2="165.387" y2="17.6072" gradientUnits="userSpaceOnUse">
<stop stop-color="#A57D24"/>
<stop offset="0.0751" stop-color="#A88027"/>
<stop offset="0.14" stop-color="#B08B31"/>
<stop offset="0.2013" stop-color="#BE9D43"/>
<stop offset="0.546897" stop-color="#D2B65B"/>
<stop offset="0.726182" stop-color="#EBD679"/>
<stop offset="0.730664" stop-color="#F1DD80"/>
<stop offset="0.832258" stop-color="#FBF2A8"/>
<stop offset="0.945805" stop-color="#F1DD80"/>
<stop offset="1" stop-color="#A57D24"/>
</linearGradient>
<linearGradient id="paint2_linear_24521_45368" x1="80.4907" y1="35.2141" x2="80.4907" y2="0.000184704" gradientUnits="userSpaceOnUse">
<stop stop-color="#F1DD80"/>
<stop offset="0.2038" stop-color="#A57D24"/>
<stop offset="0.2787" stop-color="#C5A54B"/>
<stop offset="0.3493" stop-color="#DDC468"/>
<stop offset="0.4094" stop-color="#ECD67A"/>
<stop offset="0.4517" stop-color="#F1DD80"/>
<stop offset="0.5189" stop-color="#FBF2A8"/>
<stop offset="0.5934" stop-color="#F1DD80"/>
<stop offset="0.8428" stop-color="#A57D24"/>
<stop offset="0.944" stop-color="#D8BE62"/>
<stop offset="1" stop-color="#F1DD80"/>
</linearGradient>
</defs>
</svg>
