<svg width="16" height="24" viewBox="0 0 16 24" fill="none" xmlns="http://www.w3.org/2000/svg">
<path d="M8 3.99988C3.58897 3.99988 0 7.58885 0 11.9999C0 16.4109 3.58897 19.9999 8 19.9999C12.411 19.9999 16 16.4109 16 11.9999C16 7.58885 12.411 3.99988 8 3.99988ZM12.4712 9.89461L7.3584 14.9673C7.05764 15.268 6.57644 15.2881 6.25564 14.9873L3.54887 12.5212C3.22807 12.2204 3.20802 11.7192 3.48872 11.3984C3.78947 11.0776 4.29073 11.0575 4.61153 11.3583L6.75689 13.3232L11.3283 8.75176C11.6491 8.43096 12.1504 8.43096 12.4712 8.75176C12.792 9.07256 12.792 9.57381 12.4712 9.89461Z" fill="#16A34A"/>
</svg>
