<svg width="60" height="60" viewBox="0 0 60 60" fill="none" xmlns="http://www.w3.org/2000/svg">
<rect width="60" height="60" rx="30" fill="black" fill-opacity="0.01"/>
<g clipPath="url(#clip0_14363_1504)">
<path d="M41.8861 34.5989L36.7031 37.2768C36.4362 37.834 36.0175 38.3045 35.4951 38.6342C34.9727 38.9639 34.3678 39.1394 33.75 39.1406H28.4109C28.2245 39.1406 28.0456 39.0665 27.9138 38.9347C27.7819 38.8028 27.7078 38.624 27.7078 38.4375C27.7078 38.251 27.7819 38.0721 27.9138 37.9403C28.0456 37.8084 28.2245 37.7343 28.4109 37.7343H33.75C34.2473 37.7343 34.7242 37.5368 35.0758 37.1852C35.4275 36.8335 35.625 36.3566 35.625 35.8593C35.625 35.3621 35.4275 34.8852 35.0758 34.5335C34.7242 34.1819 34.2473 33.9843 33.75 33.9843H30.7969C29.9915 33.9852 29.204 33.7468 28.5342 33.2995C27.5384 32.6398 26.3551 32.322 25.1628 32.3941C23.9705 32.4661 22.834 32.9241 21.9248 33.6989L21.5911 33.9843H20.3906V42.8906H22.4447L30.4688 44.1562C32.7901 44.5712 35.1813 44.0487 37.118 42.7031L43.9191 37.972C44.1804 37.7903 44.3939 37.548 44.5413 37.266C44.6887 36.9839 44.7657 36.6703 44.7656 36.352C44.7656 36.0134 44.6785 35.6805 44.5126 35.3852C44.3467 35.09 44.1077 34.8425 43.8184 34.6664C43.5292 34.4903 43.1995 34.3916 42.8611 34.3798C42.5227 34.3679 42.1869 34.4434 41.8861 34.5989Z" fill="white"/>
<path d="M18.2812 32.5781H15.9375C15.5492 32.5781 15.2344 32.8929 15.2344 33.2812V43.5938C15.2344 43.9821 15.5492 44.2969 15.9375 44.2969H18.2812C18.6696 44.2969 18.9844 43.9821 18.9844 43.5938V33.2812C18.9844 32.8929 18.6696 32.5781 18.2812 32.5781Z" fill="white"/>
<path d="M32.1816 30.5769L33.4795 31.1178C33.6527 31.1896 33.8473 31.1896 34.0205 31.1178L35.318 30.5769C36.7276 29.9897 37.9318 28.9983 38.7789 27.7278C39.626 26.4573 40.0781 24.9644 40.0781 23.4374V18.7499C40.0782 18.5819 40.0181 18.4194 39.9087 18.2919C39.7993 18.1644 39.6479 18.0802 39.4819 18.0547L38.4586 17.8972C37.2397 17.7097 36.0834 17.2335 35.0859 16.5083L34.1634 15.8375C34.0433 15.7502 33.8985 15.7031 33.75 15.7031C33.6015 15.7031 33.4567 15.7502 33.3366 15.8375L32.4141 16.5083C31.4166 17.2335 30.2603 17.7097 29.0414 17.8972L28.0181 18.0547C27.8521 18.0802 27.7007 18.1644 27.5913 18.2919C27.4819 18.4194 27.4218 18.5819 27.4219 18.7499V23.4374C27.4219 24.9643 27.8738 26.4572 28.7209 27.7277C29.5679 28.9982 30.772 29.9896 32.1816 30.5769ZM30.9089 22.7839C30.9742 22.7186 31.0517 22.6668 31.1371 22.6314C31.2224 22.596 31.3139 22.5778 31.4062 22.5778C31.4986 22.5778 31.5901 22.596 31.6754 22.6314C31.7608 22.6668 31.8383 22.7186 31.9036 22.7839L32.9686 23.8494L35.5964 21.2216C35.7282 21.0897 35.9071 21.0156 36.0936 21.0155C36.2801 21.0155 36.459 21.0895 36.5909 21.2213C36.7228 21.3532 36.7969 21.532 36.7969 21.7185C36.797 21.905 36.7229 22.0839 36.5911 22.2158L33.4659 25.3405C33.3341 25.4723 33.1553 25.5464 32.9688 25.5464C32.7824 25.5464 32.6036 25.4723 32.4717 25.3405L30.9089 23.7781C30.7771 23.6463 30.703 23.4675 30.703 23.281C30.703 23.0946 30.7771 22.9158 30.9089 22.7839Z" fill="white"/>
</g>
<defs>
<clipPath id="clip0_14363_1504">
<rect width="30" height="30" fill="white" transform="translate(15 15)"/>
</clipPath>
</defs>
</svg>
