<svg width="61" height="60" viewBox="0 0 61 60" fill="none" xmlns="http://www.w3.org/2000/svg">
<rect x="0.200012" width="60" height="60" rx="30" fill="black" fill-opacity="0.01"/>
<g clipPath="url(#clip0_14363_1550)">
<path d="M26.3635 32.8207C25.9692 32.4325 25.4725 32.1914 25.0681 32.1914C24.9466 32.1914 24.779 32.2148 24.6704 32.3249L21.5536 35.4928C21.3823 35.6668 21.425 35.983 21.4515 36.1103C21.5256 36.4708 21.7535 36.8595 22.0768 37.1776C22.4714 37.5657 22.9678 37.8068 23.3722 37.8068C23.4934 37.8068 23.661 37.7841 23.7699 37.6733L26.8867 34.5061C27.1629 34.225 26.998 33.445 26.3635 32.8207Z" fill="white"/>
<path d="M23.8744 30.8236C23.8003 30.4638 23.5724 30.075 23.2495 29.757C22.849 29.3627 22.3523 29.1216 21.9479 29.1216C21.8264 29.1216 21.6591 29.145 21.5505 29.2551L18.4334 32.4229C18.2621 32.597 18.3048 32.9132 18.3313 33.0405C18.4054 33.401 18.6333 33.7897 18.9566 34.1077C19.3573 34.502 19.8537 34.7432 20.2581 34.7432C20.3796 34.7432 20.5469 34.7198 20.6555 34.6097L23.7723 31.4418C23.9436 31.2677 23.9009 30.9516 23.8744 30.8236Z" fill="white"/>
<path d="M29.4779 35.8851C29.0836 35.497 28.5872 35.2559 28.1828 35.2559C28.0613 35.2559 27.8937 35.2786 27.7848 35.3893L24.668 38.5566C24.3918 38.8377 24.5566 39.6177 25.1911 40.242C25.5857 40.6302 26.0824 40.8713 26.4869 40.8713C26.6081 40.8713 26.7757 40.8479 26.8842 40.7378L30.0011 37.5699C30.2772 37.2894 30.1121 36.5089 29.4779 35.8851Z" fill="white"/>
<path d="M31.2966 38.3198C31.1751 38.3198 31.0078 38.3432 30.8992 38.4533L27.7824 41.6212C27.6111 41.7952 27.6538 42.1114 27.6803 42.2394C27.7544 42.5992 27.9823 42.988 28.3052 43.306C28.706 43.7003 29.2024 43.9414 29.6071 43.9414C29.7283 43.9414 29.8959 43.918 30.0045 43.8079L33.1213 40.6401C33.3975 40.3596 33.2323 39.579 32.5982 38.9552C32.1977 38.5609 31.701 38.3198 31.2966 38.3198Z" fill="white"/>
<path d="M42.7909 19.2642C41.2417 17.7091 39.1768 16.8535 36.9753 16.8535C34.7753 16.8535 32.7079 17.7098 31.1532 19.2642L26.8766 23.5472C26.7391 23.6844 26.728 23.8425 26.7335 23.9249C26.7394 24.0061 26.7714 24.1593 26.9242 24.2749C27.7426 24.895 28.896 24.9749 29.819 24.4404L34.8473 21.4823C35.1468 21.3057 35.5331 21.4048 35.71 21.705C35.8868 22.0045 35.7872 22.3902 35.4876 22.5674L35.0343 22.834L35.5988 23.3985C35.6043 23.4037 35.6117 23.4053 35.6171 23.4107L42.1721 29.9654C42.4436 30.2367 42.6525 30.5537 42.7937 30.8985C44.3453 29.345 45.2 27.2802 45.2 25.0826C45.2 22.8841 44.3444 20.8173 42.7909 19.2642Z" fill="white"/>
<path d="M34.7404 24.3153C34.7349 24.3102 34.7275 24.3086 34.7221 24.3031L33.9127 23.4938L30.4541 25.5285C29.0931 26.3177 27.3794 26.2002 26.1639 25.2793C25.7619 24.9755 25.5116 24.5135 25.4768 24.0116C25.4421 23.5084 25.6275 23.0145 25.9855 22.6565L29.5303 19.1066L29.3782 18.9528C27.7365 17.3117 25.5706 16.4062 23.2815 16.4062C21.1021 16.4062 19.0658 17.2422 17.548 18.7603C14.3429 21.9712 14.4299 27.2797 17.7429 30.5927L18.1078 30.9576L20.6525 28.3715C20.9806 28.0382 21.4284 27.8616 21.9479 27.8616C22.6925 27.8616 23.4866 28.2227 24.127 28.8526C24.6369 29.3545 24.9832 29.9622 25.1084 30.5694C25.1344 30.696 25.1396 30.8184 25.1455 30.9407C25.8676 30.9645 26.6288 31.3144 27.2471 31.9226C27.8856 32.5509 28.2262 33.3107 28.2609 34.0054C28.9828 34.0294 29.7439 34.3791 30.3618 34.9872C30.9998 35.6154 31.3404 36.3749 31.3752 37.0694C32.0969 37.0936 32.8578 37.4437 33.4758 38.0517C33.9913 38.559 34.3105 39.1507 34.4385 39.7245C34.6578 39.6468 34.8533 39.528 35.0149 39.3637C35.6318 38.7474 35.6324 37.7469 35.0216 37.1258L35.0195 37.1241L28.4614 30.5657C28.3383 30.4426 28.2769 30.2814 28.2769 30.1202C28.2764 29.9585 28.3376 29.7966 28.4611 29.6731C28.7071 29.4271 29.1057 29.4271 29.3518 29.6731L35.9089 36.2303C35.9108 36.2322 35.912 36.2345 35.9139 36.2364C36.5315 36.8493 37.5334 36.8486 38.1489 36.2334C38.4479 35.9344 38.6127 35.5365 38.6127 35.1139C38.6127 34.6913 38.4479 34.2933 38.1489 33.9944L31.5908 27.4366C31.3448 27.1905 31.3448 26.7919 31.5908 26.5459C31.8369 26.2998 32.2355 26.2998 32.4815 26.5459L39.0365 33.1006C39.6363 33.7009 40.6817 33.7016 41.2814 33.1006C41.5813 32.801 41.7461 32.4024 41.7461 31.9786C41.7461 31.5548 41.581 31.1562 41.2814 30.856L34.7404 24.3153Z" fill="white"/>
</g>
<defs>
<clipPath id="clip0_14363_1550">
<rect width="30" height="30" fill="white" transform="translate(15.2 15)"/>
</clipPath>
</defs>
</svg>
