<svg width="61" height="60" viewBox="0 0 61 60" fill="none" xmlns="http://www.w3.org/2000/svg">
<rect x="0.399994" width="60" height="60" rx="30" fill="black" fill-opacity="0.01"/>
<g clipPath="url(#clip0_14363_1564)">
<path d="M30.4002 18.5151C30.8859 18.5151 31.2791 18.1219 31.2791 17.6362V15.8784C31.2791 15.3927 30.8859 14.9995 30.4002 14.9995C29.9145 14.9995 29.5213 15.3927 29.5213 15.8784V17.6362C29.5213 18.1219 29.9145 18.5151 30.4002 18.5151Z" fill="white"/>
<path d="M34.5372 20.0155L36.295 18.2576C36.6384 17.9143 36.6384 17.3581 36.295 17.0148C35.9517 16.6715 35.3955 16.6715 35.0522 17.0148L33.2944 18.7726C32.9511 19.116 32.9511 19.6721 33.2944 20.0155C33.6377 20.3588 34.1939 20.3588 34.5372 20.0155Z" fill="white"/>
<path d="M26.2631 20.0155C26.6065 20.3588 27.1626 20.3588 27.506 20.0155C27.8493 19.6721 27.8493 19.116 27.506 18.7726L25.7482 17.0148C25.4048 16.6715 24.8486 16.6715 24.5053 17.0148C24.162 17.3581 24.162 17.9143 24.5053 18.2576L26.2631 20.0155Z" fill="white"/>
<path d="M23.3103 27.4214C23.3103 25.4825 21.7336 23.9058 19.7947 23.9058C17.8559 23.9058 16.2791 25.4825 16.2791 27.4214C16.2791 29.3602 17.8559 30.937 19.7947 30.937C21.7336 30.937 23.3103 29.3602 23.3103 27.4214Z" fill="white"/>
<path d="M30.4002 22.0894C28.9463 22.0894 27.7635 23.2722 27.7635 24.7261C27.7635 28.1181 24.9445 30.937 21.5525 30.937H19.7947C17.3718 30.937 15.4002 32.9086 15.4002 35.3315V44.1206C15.4002 44.6063 15.7934 44.9995 16.2791 44.9995H23.3103C23.7953 44.9995 24.1776 44.6063 24.1776 44.1215L24.1826 35.9024C29.3153 34.693 33.0369 30.0716 33.0369 24.7261C33.0369 23.2722 31.854 22.0894 30.4002 22.0894Z" fill="white"/>
<path d="M44.5213 27.4214C44.5213 25.4825 42.9445 23.9058 41.0056 23.9058C39.0668 23.9058 37.49 25.4825 37.49 27.4214C37.49 29.3602 39.0668 30.937 41.0056 30.937C42.9445 30.937 44.5213 29.3602 44.5213 27.4214Z" fill="white"/>
<path d="M41.0057 30.9372H39.2479C37.2269 30.9372 35.3871 29.8859 34.2649 28.3762C33.7506 30.1908 32.8548 31.8376 31.6584 33.2477C33.0598 34.4848 34.7915 35.4668 36.6176 35.9016L36.6228 44.1217C36.6228 44.6065 37.0051 44.9997 37.4901 44.9997H44.5213C45.007 44.9997 45.4002 44.6065 45.4002 44.1208V35.3317C45.4002 32.9088 43.4286 30.9372 41.0057 30.9372Z" fill="white"/>
</g>
<defs>
<clipPath id="clip0_14363_1564">
<rect width="30" height="30" fill="white" transform="translate(15.4 15)"/>
</clipPath>
</defs>
</svg>
