<svg width="17" height="17" viewBox="0 0 17 17" fill="none" xmlns="http://www.w3.org/2000/svg">
<path d="M10.1999 4.41967L9.5332 7.16634H13.4199C13.6269 7.16634 13.831 7.21453 14.0162 7.3071C14.2013 7.39967 14.3623 7.53408 14.4865 7.69967C14.6107 7.86527 14.6947 8.05751 14.7317 8.26116C14.7687 8.46481 14.7578 8.67429 14.6999 8.87301L13.1465 14.2063C13.0658 14.4833 12.8973 14.7266 12.6665 14.8997C12.4357 15.0728 12.155 15.1663 11.8665 15.1663H2.86654C2.51291 15.1663 2.17378 15.0259 1.92373 14.7758C1.67368 14.5258 1.5332 14.1866 1.5332 13.833V8.49967C1.5332 8.14605 1.67368 7.80691 1.92373 7.55687C2.17378 7.30682 2.51291 7.16634 2.86654 7.16634H4.70654C4.95459 7.16621 5.19769 7.09688 5.40851 6.96615C5.61932 6.83543 5.78949 6.64848 5.89987 6.42634L8.19987 1.83301C8.51425 1.8369 8.8237 1.91179 9.10507 2.05207C9.38645 2.19236 9.63249 2.39441 9.82481 2.64314C10.0171 2.89187 10.1507 3.18085 10.2157 3.48848C10.2806 3.7961 10.2752 4.11443 10.1999 4.41967Z" fill="#64748B" stroke="#64748B" strokeLinecap="round" strokeLinejoin="round"/>
<path d="M4.86719 6.71814L4.86719 15.166" stroke="white" strokeLinecap="square" strokeLinejoin="round"/>
</svg>
