<svg width="60" height="60" viewBox="0 0 60 60" fill="none" xmlns="http://www.w3.org/2000/svg">
<rect width="60" height="60" rx="30" fill="black" fill-opacity="0.01"/>
<path d="M29.9999 29.5315C32.7984 28.7956 35.6391 27.0049 35.6485 23.8923L35.5922 19.1719C35.5926 19.076 35.563 18.9825 35.5075 18.9043C35.452 18.8261 35.3735 18.7672 35.2829 18.736L30.1593 16.9031C30.0564 16.8656 29.9435 16.8656 29.8405 16.9031L24.717 18.736C24.6264 18.7672 24.5478 18.8261 24.4923 18.9043C24.4368 18.9824 24.4072 19.076 24.4076 19.1719L24.3514 23.897C24.3607 27.0002 27.2061 28.8002 29.9999 29.5315ZM27.7874 22.1673C27.8308 22.1238 27.8823 22.0893 27.939 22.0658C27.9957 22.0423 28.0565 22.0302 28.1179 22.0302C28.1793 22.0302 28.2401 22.0423 28.2968 22.0658C28.3535 22.0893 28.405 22.1238 28.4483 22.1673L29.3671 23.0861L31.5375 20.9204C31.5809 20.877 31.6324 20.8426 31.6891 20.8191C31.7458 20.7956 31.8066 20.7835 31.8679 20.7835C31.9293 20.7835 31.9901 20.7956 32.0468 20.8191C32.1035 20.8426 32.155 20.877 32.1984 20.9204C32.2418 20.9638 32.2762 21.0153 32.2997 21.072C32.3232 21.1287 32.3353 21.1895 32.3353 21.2509C32.3353 21.3122 32.3232 21.373 32.2997 21.4297C32.2762 21.4864 32.2418 21.5379 32.1984 21.5813L29.6999 24.0798C29.6565 24.1241 29.6047 24.1594 29.5476 24.1835C29.4905 24.2076 29.4291 24.2202 29.3671 24.2204C29.3058 24.2202 29.2451 24.2076 29.1888 24.1834C29.1324 24.1593 29.0815 24.124 29.039 24.0798L27.7874 22.8329C27.6996 22.7444 27.6503 22.6248 27.6503 22.5001C27.6503 22.3754 27.6996 22.2558 27.7874 22.1673Z" fill="white"/>
<path d="M34.2562 37.7104C34.2515 37.7104 32.9672 37.2791 32.9672 37.2791C32.1502 38.0133 31.0904 38.419 29.9921 38.4182C28.8937 38.4173 27.8345 38.0099 27.0187 37.2744C26.6578 37.401 26.3062 37.5276 25.9734 37.6307C25.313 37.7976 24.7268 38.1791 24.3069 38.7153C23.8869 39.2515 23.6569 39.9121 23.6531 40.5932V41.9197C23.6538 42.239 23.7809 42.545 24.0067 42.7708C24.2325 42.9966 24.5385 43.1237 24.8578 43.1244H35.1281C35.4347 43.1253 35.7299 43.0087 35.9531 42.7986C36.1763 42.5884 36.3105 42.3008 36.3281 41.9947C36.332 41.9699 36.3336 41.9448 36.3328 41.9197V40.5932C36.3311 39.956 36.1299 39.3353 35.7575 38.8183C35.385 38.3013 34.8601 37.9138 34.2562 37.7104Z" fill="white"/>
<path d="M41.3859 37.4436L40.6781 37.2092C40.124 37.7744 39.4101 38.1563 38.6325 38.3038C37.8549 38.4513 37.0507 38.3572 36.3281 38.0342C36.942 38.7468 37.2768 39.6578 37.2703 40.5983V41.9202C37.2711 41.9453 37.2695 41.9704 37.2656 41.9952H42.0656C42.3469 41.9936 42.6162 41.8808 42.8146 41.6815C43.0131 41.4821 43.1247 41.2124 43.125 40.9311V39.8624C43.1251 39.3278 42.9572 38.8068 42.6452 38.3728C42.3331 37.9388 41.8927 37.6138 41.3859 37.4436Z" fill="white"/>
<path d="M37.9125 37.4342C38.4933 37.4338 39.061 37.2611 39.5436 36.938C40.0263 36.6149 40.4024 36.156 40.6242 35.6192C40.8461 35.0824 40.9037 34.4919 40.79 33.9223C40.6762 33.3527 40.3961 32.8297 39.9851 32.4193C39.574 32.0089 39.0505 31.7296 38.4808 31.6168C37.911 31.5039 37.3206 31.5625 36.7841 31.7852C36.2477 32.0079 35.7894 32.3847 35.467 32.8679C35.1447 33.3511 34.973 33.919 34.9734 34.4999C34.9748 35.2785 35.2851 36.0247 35.8361 36.5748C36.3871 37.125 37.1339 37.434 37.9125 37.4342Z" fill="white"/>
<path d="M22.0875 37.4342C22.6683 37.4338 23.236 37.2611 23.7187 36.938C24.2013 36.6149 24.5774 36.156 24.7992 35.6192C25.0211 35.0824 25.0788 34.4919 24.965 33.9223C24.8512 33.3527 24.5711 32.8297 24.1601 32.4193C23.749 32.0089 23.2255 31.7296 22.6558 31.6168C22.086 31.5039 21.4956 31.5625 20.9592 31.7852C20.4227 32.0079 19.9644 32.3847 19.6421 32.8679C19.3198 33.3511 19.148 33.919 19.1484 34.4999C19.1496 35.2786 19.4598 36.025 20.0108 36.5751C20.5619 37.1253 21.3088 37.4343 22.0875 37.4342Z" fill="white"/>
<path d="M26.4656 33.9557C26.4651 34.6533 26.6716 35.3354 27.0588 35.9157C27.446 36.4961 27.9966 36.9485 28.6409 37.216C29.2853 37.4834 29.9945 37.5537 30.6788 37.418C31.3631 37.2824 31.9919 36.9469 32.4855 36.4539C32.9791 35.9609 33.3155 35.3326 33.4521 34.6485C33.5886 33.9643 33.5192 33.255 33.2527 32.6103C32.9861 31.9656 32.5344 31.4144 31.9546 31.0264C31.3748 30.6385 30.6929 30.4311 29.9953 30.4307C29.0601 30.431 28.1632 30.8023 27.5014 31.4632C26.8397 32.1241 26.4672 33.0204 26.4656 33.9557Z" fill="white"/>
<path d="M23.6484 38.0436C22.9279 38.3607 22.1279 38.4507 21.3549 38.3016C20.582 38.1526 19.8728 37.7715 19.3219 37.2092L18.6141 37.4436C18.1073 37.6138 17.6669 37.9388 17.3548 38.3728C17.0428 38.8068 16.8749 39.3278 16.875 39.8623V40.9311C16.8753 41.2124 16.9869 41.4821 17.1854 41.6815C17.3838 41.8808 17.6531 41.9936 17.9344 41.9951H22.7203C22.7164 41.9719 22.7149 41.9484 22.7156 41.9248V40.5936C22.7103 39.6591 23.0414 38.754 23.6484 38.0436Z" fill="white"/>
</svg>
