<svg width="114" height="114" viewBox="0 0 114 114" fill="none" xmlns="http://www.w3.org/2000/svg">
<path d="M112.64 45.4329C111.892 41.7788 110.776 38.1847 109.323 34.7499C107.897 31.3779 106.132 28.1259 104.077 25.0843C102.042 22.0718 99.7047 19.2393 97.1303 16.6649C94.556 14.0906 91.7234 11.7534 88.7109 9.71852C85.6694 7.66346 82.4174 5.89803 79.0454 4.47191C75.6106 3.01955 72.0165 1.90368 68.3624 1.15571C64.6141 0.388986 60.757 0 56.8976 0C53.0382 0 49.1812 0.388986 45.4329 1.15571C41.7788 1.90368 38.1847 3.01955 34.7499 4.47191C31.3779 5.89803 28.1259 7.66346 25.0843 9.71852C22.0718 11.7534 19.2393 14.0906 16.6649 16.6649C14.6221 18.7078 12.7282 20.9138 11.0167 23.243C10.571 23.8485 10.1384 24.4624 9.71852 25.0843C7.66346 28.1259 5.89803 31.3779 4.47191 34.7499C3.36823 37.3598 2.45904 40.0616 1.75793 42.8117C1.53625 43.6811 1.3352 44.5551 1.1557 45.4329C0.388983 49.1812 0 53.0383 0 56.8976C0 60.757 0.388983 64.6141 1.1557 68.3624C1.90368 72.0165 3.01955 75.6106 4.47191 79.0454C5.89803 82.4173 7.66346 85.6694 9.71852 88.7109C11.7534 91.7235 14.0906 94.556 16.6649 97.1303C19.2393 99.7047 22.0718 102.042 25.0843 104.077C28.1259 106.132 31.3779 107.897 34.7499 109.323C38.1847 110.776 41.7788 111.892 45.4329 112.64C49.1812 113.406 53.0382 113.795 56.8976 113.795C60.757 113.795 64.6141 113.406 68.3624 112.64C72.0165 111.892 75.6106 110.776 79.0454 109.323C82.4174 107.897 85.6694 106.132 88.7109 104.077C89.4912 103.55 90.2594 103.003 91.0139 102.436C93.1735 100.815 95.2229 99.0378 97.1303 97.1303C99.7047 94.556 102.042 91.7235 104.077 88.7109C104.622 87.9034 105.148 87.0814 105.651 86.2458C107.045 83.9344 108.276 81.5222 109.323 79.0454C110.776 75.6106 111.892 72.0165 112.64 68.3624C113.406 64.6141 113.795 60.757 113.795 56.8976C113.795 53.0383 113.406 49.1812 112.64 45.4329ZM106.371 65.0462C106.264 65.7027 106.144 66.3565 106.011 67.0061C105.353 70.2229 104.371 73.3868 103.093 76.4101C102.208 78.5017 101.175 80.5413 100.008 82.5008C99.5195 83.3233 99.0064 84.1317 98.4712 84.9237C96.6771 87.5796 94.6165 90.0771 92.3468 92.3468C90.0766 94.6165 87.5791 96.6771 84.9237 98.4712C82.2439 100.282 79.3795 101.837 76.4101 103.093C73.3868 104.371 70.2229 105.353 67.0061 106.011C63.7034 106.688 60.3024 107.03 56.8976 107.03C53.4928 107.03 50.0918 106.688 46.7892 106.011C43.5723 105.353 40.4084 104.371 37.3851 103.093C34.4157 101.837 31.5513 100.282 28.8715 98.4712C26.2157 96.6771 23.7187 94.6165 21.4485 92.3468C19.1788 90.0771 17.1181 87.5796 15.3241 84.9237C13.5137 82.2439 11.9587 79.3795 10.7027 76.4101C9.4242 73.3868 8.4419 70.2229 7.7839 67.0061C7.10763 63.7035 6.76505 60.3024 6.76505 56.8976C6.76505 53.4929 7.10763 50.0918 7.7839 46.7892C8.4419 43.5723 9.4242 40.4084 10.7027 37.3851C11.9587 34.4157 13.5137 31.5513 15.3241 28.8715C15.7501 28.2417 16.1907 27.6198 16.6462 27.0082C16.6467 27.0072 16.6471 27.0068 16.6481 27.0058C18.1093 25.0417 19.7182 23.1788 21.4485 21.4485C23.7182 19.1788 26.2157 17.1181 28.8715 15.3241C29.3753 14.9839 29.8852 14.6525 30.4017 14.3306C30.4022 14.3306 30.4026 14.3296 30.4036 14.3296C32.633 12.9391 34.9744 11.7225 37.3851 10.7027C40.4084 9.4242 43.5723 8.4419 46.7892 7.78391C50.0918 7.10764 53.4928 6.76505 56.8976 6.76505C60.3024 6.76505 63.7034 7.10764 67.0061 7.78391C70.2229 8.4419 73.3868 9.4242 76.4101 10.7027C79.3795 11.9587 82.2439 13.5137 84.9237 15.3241C87.5796 17.1181 90.0766 19.1788 92.3468 21.4485C94.6165 23.7182 96.6771 26.2157 98.4712 28.8715C100.282 31.5513 101.837 34.4157 103.093 37.3851C104.371 40.4084 105.353 43.5723 106.011 46.7892C106.688 50.0918 107.03 53.4929 107.03 56.8976C107.03 59.6327 106.809 62.365 106.371 65.0462Z" fill="#C9A74E"/>
<path d="M73.8679 53.4227L84.9099 42.3807L82.5629 40.0342L82.1669 39.6382L80.8232 38.2945L73.7629 31.2342L71.4159 28.8872L69.0693 31.2342L56.8993 43.4043L55.0303 41.5353L49.3769 35.8819L44.7292 31.2342L42.3827 28.8872L41.226 30.0439L40.0356 31.2342L39.8824 31.3875L29.8874 41.3825L28.8887 42.3807L43.4058 56.8978L43.1227 57.1809L37.4698 62.8338L31.2357 69.0679L28.8887 71.4144L30.3082 72.834L31.2357 73.7615L31.6514 74.1772L42.3827 84.9084L44.1336 83.1576L44.7292 82.5614L56.8993 70.3914L69.0693 82.5614L71.4159 84.9084L75.9061 80.4183L82.5629 73.7615L84.0316 72.2927L84.9099 71.4144L84.7646 71.2692L83.421 69.9255L82.5629 69.0679L70.3928 56.8978L72.5243 54.7664L73.8679 53.4227Z" fill="#C9A74E"/>
</svg>
