<svg width="61" height="60" viewBox="0 0 61 60" fill="none" xmlns="http://www.w3.org/2000/svg">
<rect x="0.799988" width="60" height="60" rx="30" fill="black" fill-opacity="0.01"/>
<path d="M43.6531 25.1249L43.3624 21.2435C43.3314 20.8574 43.1664 20.4942 42.8959 20.2169C42.6255 19.9396 42.2666 19.7655 41.8813 19.7249C40.5834 19.5914 39.3058 19.305 38.075 18.8717C36.9682 18.4784 35.906 17.9693 34.9061 17.353C34.6464 17.1943 34.348 17.1104 34.0437 17.1104C33.7394 17.1104 33.441 17.1943 33.1813 17.353C32.1824 17.9711 31.1201 18.4803 30.0126 18.8717C28.7822 19.306 27.5044 19.5923 26.2063 19.7249C25.8221 19.7659 25.4644 19.9403 25.1954 20.2177C24.9265 20.4952 24.7633 20.8582 24.7344 21.2435L24.4344 25.1249C24.3101 26.6889 24.5211 28.2614 25.0532 29.7374L26.8062 27.6842C27.0256 27.4296 27.2976 27.2256 27.6035 27.0864C27.9094 26.9472 28.2419 26.876 28.578 26.8779C28.7775 26.8751 28.9763 26.9004 29.1687 26.953C29.215 25.991 29.5426 25.0637 30.1108 24.2862C30.6791 23.5086 31.4631 22.9149 32.3656 22.5787C33.2682 22.2425 34.2495 22.1786 35.188 22.3949C36.1265 22.6112 36.9809 23.0982 37.6452 23.7955C38.3095 24.4928 38.7546 25.3697 38.9252 26.3176C39.0959 27.2655 38.9845 28.2426 38.6051 29.1278C38.2256 30.013 37.5947 30.7673 36.7905 31.2973C35.9864 31.8273 35.0443 32.1096 34.0812 32.1092C33.4226 32.112 32.7703 31.9804 32.1642 31.7225C31.5581 31.4646 31.011 31.0858 30.5562 30.6092L29.5251 33.6935H30.7158C31.1529 33.6924 31.585 33.7875 31.9812 33.9723C32.3775 34.1571 32.7281 34.4268 33.0083 34.7625C33.2884 35.0981 33.4911 35.4914 33.6021 35.9142C33.713 36.3371 33.7294 36.7792 33.65 37.2092C33.778 37.2463 33.9105 37.2652 34.0437 37.2655C34.256 37.2659 34.4663 37.2244 34.6626 37.1436L36.6782 36.3374C38.889 35.4629 40.7604 33.9011 42.0162 31.8823C43.272 29.8635 43.8459 27.4946 43.6531 25.1249Z" fill="white"/>
<path d="M33.0181 29.8608C32.7696 29.86 32.5315 29.7613 32.3553 29.5861L31.0557 28.287C30.9686 28.2 30.8996 28.0966 30.8525 27.9829C30.8054 27.8692 30.7811 27.7473 30.7811 27.6242C30.7811 27.5011 30.8054 27.3792 30.8525 27.2654C30.8996 27.1517 30.9686 27.0484 31.0557 26.9613C31.1427 26.8743 31.2461 26.8052 31.3598 26.7581C31.4735 26.711 31.5954 26.6868 31.7185 26.6868C31.8416 26.6868 31.9635 26.711 32.0773 26.7581C32.191 26.8052 32.2943 26.8743 32.3814 26.9613L33.014 27.5935L35.7775 24.7933C35.9522 24.6165 36.19 24.5162 36.4386 24.5147C36.6872 24.5131 36.9263 24.6104 37.1032 24.7851C37.2801 24.9598 37.3803 25.1976 37.3818 25.4462C37.3834 25.6949 37.2861 25.9339 37.1114 26.1108L33.685 29.5821C33.5093 29.7563 33.2733 29.8562 33.0259 29.8609L33.0181 29.8608Z" fill="white"/>
<path d="M20.4894 33.6086H18.9341C18.4173 33.6086 17.9984 34.0275 17.9984 34.5443V41.8755C17.9984 42.3922 18.4173 42.8111 18.9341 42.8111H20.4894C21.0061 42.8111 21.425 42.3922 21.425 41.8755V34.5443C21.425 34.0275 21.0061 33.6086 20.4894 33.6086Z" fill="white"/>
<path d="M32.7031 37.1717L31.6812 41.2592C31.5689 41.702 31.3129 42.095 30.9532 42.3766C30.5936 42.6583 30.1506 42.8126 29.6938 42.8153H25.3583C24.5592 42.8153 23.771 42.6292 23.0563 42.2717L22.8806 42.1839C22.7251 42.1068 22.5942 41.9878 22.5027 41.8404C22.4111 41.6929 22.3626 41.5228 22.3625 41.3492C22.3623 39.8513 22.3614 35.8651 22.3563 34.6724C22.3553 34.4492 22.4353 34.2331 22.5814 34.0643L27.5188 28.2935C27.7031 28.0772 27.9495 27.9229 28.2245 27.8515C28.4995 27.7801 28.7899 27.7951 29.0561 27.8945C29.3223 27.9938 29.5515 28.1726 29.7126 28.4067C29.8736 28.6408 29.9588 28.9188 29.9564 29.2029C29.9575 29.3493 29.9354 29.4948 29.8907 29.6342L28.2219 34.6311H30.7158C31.0267 34.631 31.3335 34.7017 31.613 34.8379C31.8924 34.9741 32.1372 35.1721 32.3287 35.417C32.5203 35.6618 32.6535 35.9471 32.7184 36.2511C32.7833 36.5551 32.7781 36.8699 32.7031 37.1717Z" fill="white"/>
</svg>
