<svg width="16" height="16" viewBox="0 0 16 16" fill="none" xmlns="http://www.w3.org/2000/svg">
<g clip-path="url(#clip0_17265_36256)">
<path d="M9.07088 11.2726C8.90731 11.2879 8.74309 11.251 8.60178 11.1672C8.49853 11.0612 8.44903 10.914 8.46725 10.7672C8.47106 10.6449 8.48566 10.5232 8.51087 10.4035C8.53528 10.2662 8.56681 10.1303 8.60541 9.99625L9.0345 8.51988C9.07875 8.37416 9.108 8.22429 9.12178 8.0726C9.12178 7.90897 9.14359 7.79622 9.14359 7.73079C9.15272 7.43913 9.02819 7.15925 8.80541 6.97079C8.53138 6.76041 8.19013 6.65701 7.84541 6.67988C7.59838 6.6836 7.35325 6.72404 7.11813 6.79988C6.86116 6.87988 6.59084 6.97563 6.30722 7.08716L6.18359 7.56716C6.26722 7.53807 6.36906 7.50535 6.48541 7.46897C6.59641 7.4361 6.71147 7.41894 6.82722 7.41807C6.98959 7.40047 7.15303 7.44035 7.28903 7.53079C7.38141 7.64101 7.42475 7.78419 7.40903 7.92716C7.40863 8.04944 7.39522 8.17135 7.36903 8.29079C7.34356 8.41807 7.31084 8.5526 7.27084 8.69441L6.83813 10.178C6.80325 10.3159 6.77534 10.4555 6.7545 10.5962C6.7375 10.7167 6.729 10.8382 6.72903 10.9598C6.72725 11.2535 6.86153 11.5314 7.09266 11.7126C7.37091 11.9262 7.71703 12.0321 8.06719 12.0108C8.31375 12.0158 8.55947 11.9802 8.79447 11.9053C9.00053 11.835 9.27569 11.7344 9.61994 11.6035L9.73631 11.1453C9.64306 11.184 9.54703 11.2156 9.44903 11.2398C9.32509 11.2681 9.19784 11.2791 9.07088 11.2726Z" fill="#E4C575"/>
<path d="M9.52174 4.27305C9.32384 4.0913 9.06309 3.99352 8.79446 4.00033C8.52599 3.99427 8.26549 4.09196 8.06718 4.27305C7.70368 4.58649 7.66309 5.13527 7.97656 5.4988C8.00449 5.53121 8.03478 5.56149 8.06718 5.58943C8.48131 5.95983 9.10762 5.95983 9.52171 5.58943C9.88521 5.2729 9.92331 4.72165 9.60678 4.35815C9.58046 4.32786 9.55203 4.29943 9.52174 4.27305Z" fill="#E4C575"/>
<path d="M8 0C3.58172 0 0 3.58172 0 8C0 12.4183 3.58172 16 8 16C12.4183 16 16 12.4183 16 8C16 3.58172 12.4183 0 8 0ZM8 15.2727C3.98338 15.2727 0.727281 12.0166 0.727281 8C0.727281 3.98338 3.98338 0.727281 8 0.727281C12.0166 0.727281 15.2727 3.98338 15.2727 8C15.2727 12.0166 12.0166 15.2727 8 15.2727Z" fill="white" fill-opacity="0.4"/>
</g>
<defs>
<clipPath id="clip0_17265_36256">
<rect width="16" height="16" fill="white"/>
</clipPath>
</defs>
</svg>
