<svg width="28" height="28" viewBox="0 0 28 28" fill="none" xmlns="http://www.w3.org/2000/svg">
<path d="M23.4964 3.72378L15.954 21.9176H14.0252L21.9994 2.60106H22.1146C20.0802 1.16168 17.8444 0.31724 15.4071 0.0677471C13.0081 -0.162556 10.7147 0.192493 8.52681 1.13289C6.24299 2.09248 4.3526 3.56065 2.85564 5.5374C1.35868 7.51415 0.447074 9.7212 0.120814 12.1586C-0.186255 14.5383 0.0920261 16.8414 0.955656 19.0676C1.85767 21.3706 3.26826 23.3042 5.18744 24.8683C7.10662 26.4324 9.28488 27.416 11.7222 27.819C14.0828 28.2029 16.3954 28.0014 18.6601 27.2145C20.9823 26.3893 22.9542 25.041 24.5759 23.1698C26.1976 21.2986 27.2484 19.154 27.7282 16.7358C28.1888 14.3752 28.064 12.053 27.3539 9.76918C26.6054 7.42779 25.3196 5.41265 23.4964 3.72378ZM11.9525 11.6692C11.7222 12.053 11.6071 12.4656 11.6071 12.907V18.9524H9.27529V8.44495H11.5207V9.76918H11.5783C11.9813 9.30858 12.4611 8.95354 13.0177 8.70404C13.6894 8.41616 14.3899 8.28182 15.1192 8.30101C15.4454 8.28182 15.7813 8.31061 16.1267 8.38738C16.357 8.42576 16.5778 8.50253 16.7889 8.61768L15.8389 10.8343C15.3591 10.5848 14.8505 10.4697 14.3131 10.4889C13.8141 10.4889 13.3439 10.5944 12.9025 10.8055C12.4995 10.9975 12.1828 11.2853 11.9525 11.6692Z" fill="url(#paint0_linear_16386_27187)"/>
<defs>
<linearGradient id="paint0_linear_16386_27187" x1="-2.75758" y1="29.9175" x2="26.0995" y2="0.00805129" gradientUnits="userSpaceOnUse">
<stop stop-color="#FFF2D0"/>
<stop offset="1" stop-color="#8E6B0F"/>
</linearGradient>
</defs>
</svg>
