<svg width="14" height="14" viewBox="0 0 14 14" fill="none" xmlns="http://www.w3.org/2000/svg">
<g clip-path="url(#clip0_20029_42020)">
<path d="M13.1747 8.3449C12.8995 7.91685 12.6243 7.50409 12.3492 7.07605C12.288 6.98432 12.288 6.92317 12.3492 6.83145C12.6243 6.41869 12.8842 6.00593 13.1594 5.59317C13.4804 5.10398 13.3123 4.63007 12.7619 4.43133C12.3033 4.26317 11.8447 4.07972 11.3861 3.91156C11.2943 3.88099 11.2485 3.81984 11.2485 3.71283C11.2332 3.20835 11.2026 2.70386 11.1721 2.21467C11.1415 1.67961 10.7287 1.37386 10.2089 1.51145C9.71975 1.63375 9.23056 1.77133 8.75665 1.90892C8.64964 1.93949 8.58849 1.90892 8.51205 1.83248C8.2063 1.43501 7.88527 1.05283 7.57952 0.670644C7.2432 0.242598 6.72343 0.242598 6.37182 0.670644C6.06607 1.05283 5.74504 1.43501 5.45458 1.8172C5.37814 1.92421 5.30171 1.93949 5.17941 1.90892C4.7055 1.77134 4.23159 1.64904 3.89527 1.55731C3.23791 1.40444 2.84044 1.66432 2.80987 2.21467C2.77929 2.71915 2.74872 3.22363 2.73343 3.7434C2.73343 3.85041 2.68757 3.89628 2.59585 3.94214C2.12194 4.12559 1.64803 4.30903 1.17412 4.49248C0.684926 4.69122 0.532052 5.16513 0.822511 5.60846C1.09768 6.03651 1.37286 6.44927 1.64803 6.87731C1.70918 6.96904 1.70918 7.03018 1.64803 7.1372C1.35757 7.56524 1.0824 7.99329 0.807223 8.43662C0.547338 8.84938 0.715498 9.33857 1.17412 9.52203C1.64803 9.70548 2.13722 9.88892 2.61113 10.0724C2.71814 10.1029 2.74871 10.1641 2.74871 10.2711C2.764 10.7603 2.82515 11.2342 2.82515 11.7234C2.82515 12.2126 3.2532 12.6559 3.8494 12.4725C4.32331 12.3196 4.79722 12.2126 5.27113 12.075C5.36285 12.0444 5.424 12.0597 5.48515 12.1514C5.80618 12.5489 6.11193 12.9311 6.43297 13.3286C6.78457 13.7566 7.28906 13.7566 7.62538 13.3286C7.94641 12.9311 8.25216 12.5489 8.57319 12.1514C8.63434 12.075 8.68021 12.0444 8.78722 12.075C9.27641 12.2126 9.76561 12.3349 10.2548 12.4725C10.7593 12.6101 11.1873 12.3043 11.2026 11.7846C11.2332 11.2801 11.2638 10.7756 11.2791 10.2558C11.2791 10.1335 11.3402 10.0877 11.4319 10.0571C11.8905 9.88892 12.3645 9.70548 12.8231 9.52203C13.3123 9.27743 13.4652 8.78823 13.1747 8.3449ZM9.52102 5.83777L6.46355 8.89524C6.38711 8.97168 6.2801 9.03283 6.17309 9.04812C6.14251 9.04812 6.09665 9.06341 6.06608 9.06341C5.92849 9.06341 5.77562 9.00226 5.6686 8.89524L4.41504 7.64168C4.20102 7.42766 4.20102 7.07604 4.41504 6.86202C4.62906 6.648 4.98067 6.648 5.1947 6.86202L6.05079 7.71811L8.71079 5.05812C8.92481 4.84409 9.27642 4.84409 9.49045 5.05812C9.73504 5.27214 9.73504 5.62375 9.52102 5.83777Z" fill="#2563EB"/>
</g>
<defs>
<clipPath id="clip0_20029_42020">
<rect width="14" height="14" fill="white"/>
</clipPath>
</defs>
</svg>
