<svg width="25" height="20" viewBox="0 0 25 20" fill="none" xmlns="http://www.w3.org/2000/svg">
<path fill-rule="evenodd" clip-rule="evenodd" d="M6.46191 1.81734C6.46191 1.1529 7.00056 0.614258 7.665 0.614258H16.3272C16.9916 0.614258 17.5303 1.1529 17.5303 1.81734V14.8106C17.5303 15.4751 16.9916 16.0137 16.3272 16.0137H7.665C7.00056 16.0137 6.46191 15.4751 6.46191 14.8106V1.81734ZM12.6826 5.37394C12.4665 4.7089 11.5257 4.7089 11.3096 5.37394L11.0237 6.25375C10.9271 6.55118 10.6499 6.75255 10.3372 6.75255H9.41209C8.71281 6.75255 8.42207 7.64735 8.98778 8.05837L9.7362 8.60214C9.98921 8.78595 10.0951 9.11177 9.99845 9.40919L9.71257 10.289C9.49647 10.9541 10.2577 11.5071 10.8234 11.0961L11.5718 10.5523C11.8248 10.3685 12.1674 10.3685 12.4204 10.5523L13.1688 11.0961C13.7345 11.5071 14.4957 10.9541 14.2796 10.289L13.9937 9.40919C13.8971 9.11177 14.003 8.78595 14.256 8.60214L15.0044 8.05837C15.5701 7.64735 15.2794 6.75255 14.5801 6.75255H13.655C13.3423 6.75255 13.0651 6.55118 12.9685 6.25375L12.6826 5.37394Z" fill="#9CA3AF"/>
<path d="M14.8765 16.9763L13.2852 17.6267L17.4404 19.325C18.0554 19.5763 18.7578 19.2815 19.0092 18.6665L23.9249 6.63895C24.1764 6.02389 23.8814 5.3215 23.2664 5.07013L18.4928 3.11914V14.8108C18.4928 16.0068 17.5233 16.9763 16.3272 16.9763H14.8765Z" fill="#9CA3AF"/>
<path d="M5.50255 3.13184L0.762886 5.06897C0.147822 5.32034 -0.146988 6.02272 0.104391 6.63778L5.02009 18.6653C5.27146 19.2804 5.97384 19.5752 6.58891 19.3238L12.3355 16.9751H7.66809C6.47209 16.9751 5.50255 16.0056 5.50255 14.8096V3.13184Z" fill="#9CA3AF"/>
</svg>
