<svg width="32" height="32" viewBox="0 0 32 32" fill="none" xmlns="http://www.w3.org/2000/svg">
<path fill-rule="evenodd" clip-rule="evenodd" d="M25.8572 14.4333C25.7278 13.896 26.0585 13.356 26.5945 13.2267C27.1305 13.096 27.6718 13.4267 27.8012 13.964C28.0425 14.964 28.1705 16.008 28.1705 17.0813C28.1705 24.3947 22.2332 30.3333 14.9185 30.3333C7.60517 30.3333 1.6665 24.3947 1.6665 17.0813C1.6665 9.76668 7.60517 3.82935 14.9185 3.82935C15.9918 3.82935 17.0358 3.95735 18.0358 4.19868C18.5732 4.32801 18.9038 4.86935 18.7732 5.40535C18.6438 5.94135 18.1038 6.27201 17.5665 6.14268C16.7172 5.93735 15.8305 5.82935 14.9185 5.82935C8.70784 5.82935 3.6665 10.8707 3.6665 17.0813C3.6665 23.292 8.70784 28.3333 14.9185 28.3333C21.1292 28.3333 26.1705 23.292 26.1705 17.0813C26.1705 16.1693 26.0625 15.2827 25.8572 14.4333Z" fill="white"/>
<path fill-rule="evenodd" clip-rule="evenodd" d="M19.6853 17.0814C19.6853 16.5294 20.1333 16.0814 20.6853 16.0814C21.236 16.0814 21.6853 16.5294 21.6853 17.0814C21.6853 20.8147 18.6533 23.8467 14.9187 23.8467C11.1853 23.8467 8.15332 20.8147 8.15332 17.0814C8.15332 13.3467 11.1853 10.3147 14.9187 10.3147C15.4707 10.3147 15.9187 10.764 15.9187 11.3147C15.9187 11.8667 15.4707 12.3147 14.9187 12.3147C12.288 12.3147 10.1533 14.4507 10.1533 17.0814C10.1533 19.712 12.288 21.8467 14.9187 21.8467C17.5493 21.8467 19.6853 19.712 19.6853 17.0814Z" fill="white"/>
<path fill-rule="evenodd" clip-rule="evenodd" d="M30.04 7.45072L25.964 11.5281C25.776 11.7161 25.5214 11.8214 25.256 11.8214H21.1787C20.6267 11.8214 20.1787 11.3734 20.1787 10.8214V6.74406C20.1787 6.47872 20.284 6.22406 20.472 6.03606L24.5494 1.96006C24.7947 1.71472 25.1494 1.61339 25.4867 1.69339C25.824 1.77339 26.096 2.02139 26.2054 2.35072L27.0667 4.93339L29.6494 5.79472C29.9787 5.90406 30.2267 6.17606 30.3067 6.51339C30.3867 6.85072 30.2854 7.20539 30.04 7.45072ZM27.4827 7.18139L25.96 6.67339C25.6614 6.57339 25.4267 6.33872 25.3267 6.04006L24.8187 4.51739L22.1787 7.15739V9.82139H24.8427L27.4827 7.18139Z" fill="#C9A74E"/>
<path fill-rule="evenodd" clip-rule="evenodd" d="M20.4721 10.1133C20.8628 9.72265 21.4961 9.72265 21.8868 10.1133C22.2775 10.504 22.2775 11.1373 21.8868 11.528L15.7708 17.6426C15.3801 18.0333 14.7468 18.0333 14.3575 17.6426C13.9668 17.2533 13.9668 16.62 14.3575 16.2293L20.4721 10.1133Z" fill="#C9A74E"/>
</svg>
