<svg width="32" height="32" viewBox="0 0 32 32" fill="none" xmlns="http://www.w3.org/2000/svg">
<path d="M31 21H29V16C29 15.448 28.552 15 28 15H17V11H19C19.552 11 20 10.552 20 10V4C20 3.448 19.552 3 19 3H13C12.448 3 12 3.448 12 4V10C12 10.552 12.448 11 13 11H15V15H4C3.448 15 3 15.448 3 16V21H1C0.448 21 0 21.448 0 22V28C0 28.552 0.448 29 1 29H7C7.552 29 8 28.552 8 28V22C8 21.448 7.552 21 7 21H5V17H15V21H13C12.448 21 12 21.448 12 22V28C12 28.552 12.448 29 13 29H19C19.552 29 20 28.552 20 28V22C20 21.448 19.552 21 19 21H17V17H27V21H25C24.448 21 24 21.448 24 22V28C24 28.552 24.448 29 25 29H31C31.552 29 32 28.552 32 28V22C32 21.448 31.552 21 31 21Z" fill="white"/>
</svg>
