<svg width="32" height="32" viewBox="0 0 32 32" fill="none" xmlns="http://www.w3.org/2000/svg">
<path d="M16 20C12.97 20 10.5 22.47 10.5 25.5C10.5 28.53 12.97 31 16 31C19.03 31 21.5 28.53 21.5 25.5C21.5 22.47 19.03 20 16 20ZM19.35 26.21C19.15 26.41 18.9 26.5 18.64 26.5C18.38 26.5 18.13 26.4 17.93 26.21L16.99 25.27V28.61C16.99 29.16 16.54 29.61 15.99 29.61C15.44 29.61 14.99 29.16 14.99 28.61V25.27L14.05 26.21C13.66 26.6 13.03 26.6 12.64 26.21C12.25 25.82 12.25 25.19 12.64 24.8L15.29 22.15C15.68 21.76 16.31 21.76 16.7 22.15L19.35 24.8C19.74 25.19 19.74 25.82 19.35 26.21Z" fill="#C9A74E"/>
<path d="M4.67979 5.12932L2.55979 3.96932C2.07979 3.69932 1.46979 3.87932 1.19979 4.36932C0.929791 4.84932 1.10979 5.45932 1.59979 5.72932L3.71979 6.88932C3.86979 6.96932 4.03979 7.00932 4.19979 7.00932C4.54979 7.00932 4.89979 6.81932 5.07979 6.48932C5.34979 6.00932 5.16979 5.39932 4.67979 5.12932Z" fill="white"/>
<path d="M2.84859 8.72968L1.71859 9.05968C1.18859 9.20968 0.888586 9.76968 1.03859 10.2997C1.16859 10.7397 1.56859 11.0197 1.99859 11.0197C2.08859 11.0197 2.18859 11.0097 2.27859 10.9797L3.40859 10.6497C3.93859 10.4997 4.23859 9.93968 4.08859 9.40968C3.93859 8.87968 3.37859 8.56968 2.84859 8.72968Z" fill="white"/>
<path d="M5.75921 3.40956C5.88921 3.84956 6.28921 4.12956 6.71921 4.12956C6.80921 4.12956 6.90921 4.11956 6.99921 4.08956C7.52921 3.92956 7.82921 3.37956 7.67921 2.84956L7.34921 1.71956C7.18921 1.18956 6.63921 0.889563 6.10921 1.03956C5.57921 1.19956 5.27921 1.74956 5.42921 2.27956L5.75921 3.40956Z" fill="white"/>
<path d="M30.4077 5.71994C30.8877 5.44994 31.0677 4.84994 30.8077 4.35994C30.5477 3.87994 29.9377 3.69994 29.4477 3.95994L27.3277 5.11994C26.8477 5.38994 26.6677 5.98994 26.9277 6.47994C27.1077 6.80994 27.4477 6.99994 27.8077 6.99994C27.9677 6.99994 28.1377 6.95994 28.2877 6.87994L30.4077 5.71994Z" fill="white"/>
<path d="M30.2797 9.05968L29.1497 8.72968C28.6097 8.56968 28.0597 8.87968 27.9097 9.40968C27.7597 9.93968 28.0597 10.4997 28.5897 10.6497L29.7197 10.9797C29.8097 11.0097 29.9097 11.0197 29.9997 11.0197C30.4297 11.0197 30.8297 10.7397 30.9597 10.2997C31.1097 9.76968 30.8097 9.20968 30.2797 9.05968Z" fill="white"/>
<path d="M24.9995 4.08956C25.0895 4.11956 25.1895 4.12956 25.2795 4.12956C25.7095 4.12956 26.1095 3.84956 26.2395 3.40956L26.5695 2.27956C26.7295 1.74956 26.4195 1.19956 25.8895 1.03956C25.3595 0.889563 24.8095 1.18956 24.6495 1.71956L24.3195 2.84956C24.1595 3.37956 24.4695 3.92956 24.9995 4.08956Z" fill="white"/>
<path d="M24.8605 11.3593C24.3805 11.4593 24.0405 11.8893 24.0605 12.3793C24.1505 14.3693 22.9005 15.0793 22.8005 15.1393C22.4805 15.3393 22.2105 15.3293 21.9905 15.1193C21.6905 14.8293 21.5505 14.2393 21.8805 13.6693C23.3505 11.0693 23.7005 8.71933 22.9105 6.69933C21.8805 4.05933 19.2905 2.96933 18.6905 2.75933C18.5605 2.69933 18.4105 2.65933 18.2605 2.65933C17.7105 2.65933 17.2605 3.10933 17.2605 3.65933C17.2605 3.91933 17.3705 4.14933 17.5305 4.31933C18.1205 5.35933 18.1505 6.36933 17.7405 7.41933C17.4805 8.09933 16.8005 8.47933 16.0405 8.39933C15.1505 8.27933 14.8405 7.89933 14.6805 7.60933C13.9105 6.22933 14.9005 3.31933 15.3105 2.40933C15.5005 1.98933 15.3805 1.50933 15.0205 1.21933C14.6705 0.939333 14.1605 0.929333 13.8005 1.19933C6.75051 6.42933 8.13051 9.70933 10.1705 12.6593C10.7605 13.5093 10.8605 14.3293 10.6605 14.7093C10.5505 14.9093 10.2805 15.0193 9.88051 14.9993C8.97051 14.9793 8.13051 12.5393 7.89051 10.8593C7.82051 10.3893 7.43051 10.0193 6.95051 9.99933C6.51051 9.97933 6.04051 10.2893 5.93051 10.7593C4.49051 16.5293 5.07051 20.8793 7.66051 23.6693C7.86051 23.8793 8.13051 23.9893 8.39051 23.9893C8.63051 23.9893 8.88051 23.8993 9.07051 23.7193C9.48051 23.3393 9.50051 22.7093 9.13051 22.3093C7.62051 20.6793 6.98051 18.2893 7.21051 15.1893C7.80051 16.1893 8.65051 16.9793 9.85051 16.9993H9.93051C11.4705 16.9993 12.1605 16.1593 12.4305 15.6493C13.0305 14.5193 12.8005 12.9393 11.7905 11.4793C10.5605 9.70933 9.39051 8.01933 12.5005 4.90933C12.3105 6.14933 12.3305 7.50933 12.9305 8.58933C13.3205 9.28933 14.1305 10.1693 15.7805 10.3893C17.4405 10.5993 19.0105 9.67933 19.6005 8.14933C19.9005 7.37933 20.0105 6.62933 19.9505 5.87933C20.3905 6.28933 20.8005 6.79933 21.0505 7.44933C21.6005 8.87933 21.3005 10.6393 20.1405 12.6893C19.4005 13.9893 19.5905 15.5793 20.6005 16.5593C21.4905 17.4193 22.7305 17.5393 23.7705 16.8893C23.8105 16.8693 24.2905 16.6193 24.7905 16.0693C24.9305 18.0393 24.6405 20.4893 22.8705 22.3093C22.4905 22.7093 22.4905 23.3393 22.8905 23.7193C23.0805 23.9093 23.3405 23.9993 23.5905 23.9993C23.8405 23.9993 24.1105 23.8993 24.3105 23.6993C28.6305 19.2493 26.1005 12.2893 25.9905 11.9893C25.8205 11.5293 25.3305 11.2593 24.8505 11.3593H24.8605Z" fill="white"/>
</svg>
