<svg width="32" height="32" viewBox="0 0 32 32" fill="none" xmlns="http://www.w3.org/2000/svg">
<g clipPath="url(#clip0_11639_3742)">
<path d="M28.1874 16.0625V29.5C28.1874 30.9062 27.3062 32 26.1812 32H23.4374C22.3124 32 21.4312 30.9 21.4312 29.5V16.0625C21.4312 14.6562 22.3124 13.5625 23.4374 13.5625H26.1812C27.2999 13.5625 28.1874 14.6625 28.1874 16.0625Z" fill="white"/>
<path d="M28.2313 8.18125C28.0438 8.3125 27.8001 8.31875 27.6001 8.2L25.7251 7.075C22.6376 12.1875 18.2813 17 9.86885 17C8.09385 17 6.1376 16.7875 3.9751 16.3125C3.6626 16.2437 3.4626 15.9375 3.5251 15.6188C3.5876 15.3313 3.8501 15.1375 4.14385 15.1625C4.66885 15.2063 16.8688 16.025 21.9938 4.74375L20.0751 3.8125C19.7876 3.675 19.6626 3.325 19.8001 3.0375C19.8626 2.90625 19.9688 2.80625 20.1001 2.75L26.4688 0.0437505C26.7626 -0.0812495 27.1063 0.0562505 27.2313 0.35C27.2501 0.39375 27.2626 0.4375 27.2688 0.48125L28.4751 7.6C28.5189 7.825 28.4188 8.05625 28.2313 8.18125Z" fill="#C9A74E"/>
<path d="M19.3812 21V29.5C19.3812 30.9063 18.4999 32 17.3749 32H14.6249C13.4999 32 12.6187 30.9 12.6187 29.5V21C12.6187 19.5938 13.4999 18.5 14.6249 18.5H17.3687C18.4999 18.4938 19.3812 19.5938 19.3812 21Z" fill="white"/>
<path d="M10.7688 25.1126V29.5001C10.7688 30.9001 9.8876 32.0001 8.7626 32.0001H6.0126C4.8876 32.0001 4.00635 30.9001 4.00635 29.5001V25.1126C4.00635 23.7063 4.8876 22.6126 6.0126 22.6126H8.75635C9.8876 22.6063 10.7688 23.7063 10.7688 25.1126Z" fill="white"/>
</g>
<defs>
<clipPath id="clip0_11639_3742">
<rect width="32" height="32" fill="white"/>
</clipPath>
</defs>
</svg>
